<svg width="542" height="401" viewBox="0 0 542 401" fill="none" xmlns="http://www.w3.org/2000/svg">
<g clip-path="url(#clip0)">
<path opacity="0.1" d="M35.4738 157.171H82.5805V221.457H38.9182C38.8068 222.121 38.6954 222.781 38.57 223.446H82.5805V275.282C82.5062 275.282 82.4319 275.226 82.3623 275.198C81.1244 274.705 79.8866 274.183 78.6487 273.632C78.3841 273.511 78.1242 273.386 77.8549 273.269C76.6171 272.684 75.3792 272.064 74.1414 271.41C73.7097 271.183 73.278 270.946 72.8555 270.704C65.9834 266.865 59.7376 261.997 54.3341 256.27C54.1717 256.116 54.0231 255.949 53.8699 255.805C53.1179 254.987 52.3799 254.16 51.665 253.314C51.3958 253.003 51.1358 252.687 50.8712 252.385C50.0264 251.353 49.2094 250.284 48.4203 249.21C48.2996 249.048 48.1882 248.89 48.0721 248.746C44.8394 244.267 42.1587 239.414 40.0879 234.293C40.023 234.139 39.9626 233.972 39.9023 233.828C39.2617 232.201 38.6814 230.552 38.1801 228.869C37.9666 228.168 37.7577 227.475 37.5813 226.745C37.5163 226.536 37.4652 226.323 37.4095 226.113C34.8008 215.82 34.499 205.122 34.499 194.475C34.499 193.235 34.499 191.996 34.499 190.757C34.5362 186.41 34.5872 182.068 34.6522 177.731C34.677 176.615 34.7002 175.495 34.7218 174.371C34.7868 171.523 34.8797 168.67 35.0004 165.81C35.0282 165.02 35.0653 164.226 35.1071 163.44C35.1257 162.985 35.1489 162.529 35.1768 162.074C35.2603 160.429 35.3593 158.794 35.4738 157.171Z" fill="#118AB2"/>
<path opacity="0.1" d="M82.5806 85.5937H56.7388C60.9414 79.0154 65.5311 72.6932 70.4836 66.6606C74.3272 61.939 78.375 57.3382 82.5806 52.9047V85.5937Z" fill="#118AB2"/>
<path opacity="0.1" d="M82.5804 87.5734V155.182H35.6223C35.6223 154.987 35.6502 154.787 35.6687 154.592C35.7105 154.057 35.7523 153.528 35.7987 152.993C35.8451 152.37 35.9055 151.748 35.9658 151.134C36.0262 150.521 36.0865 149.777 36.1608 149.103C36.2351 148.43 36.2954 147.746 36.3697 147.073C36.4439 146.399 36.5182 145.725 36.6018 145.056C36.6853 144.386 36.7596 143.708 36.8524 143.039C36.9221 142.486 36.9917 141.928 37.0706 141.37C37.1774 140.585 37.2888 139.8 37.4048 139.019C37.4048 138.898 37.442 138.782 37.4605 138.666C38.3089 132.951 39.4618 127.285 40.9141 121.694C42.4394 115.829 44.3863 110.082 46.7398 104.499C49.2406 98.6485 52.1699 92.9913 55.5038 87.5734H82.5804Z" fill="#118AB2"/>
<path opacity="0.1" d="M93.8325 157.171V221.457H194.452V157.171H93.8325ZM93.8325 223.446V278.656C94.4081 278.772 94.9744 278.888 95.5454 278.986C96.3113 279.134 97.0819 279.269 97.8664 279.385L98.3306 279.45C98.637 279.501 98.948 279.543 99.259 279.58C100.034 279.692 100.809 279.776 101.58 279.85C101.942 279.887 102.318 279.915 102.685 279.948L103.581 280.013C104.068 280.05 104.551 280.078 105.034 280.096C105.331 280.096 105.628 280.12 105.929 280.129C106.231 280.138 106.394 280.129 106.635 280.129H107.512C107.912 280.129 108.311 280.129 108.705 280.129H109.216C109.615 280.129 110.014 280.129 110.409 280.092H110.432C110.711 280.092 110.985 280.092 111.263 280.059C111.342 280.064 111.421 280.064 111.5 280.059C111.732 280.059 111.964 280.059 112.187 280.031C112.239 280.027 112.292 280.027 112.345 280.031C112.86 279.999 113.38 279.957 113.904 279.91C114.429 279.864 114.926 279.808 115.45 279.752L116.504 279.622C120.81 279.019 125.068 278.112 129.246 276.908C138.637 274.287 147.814 270.62 157.2 267.939C169.325 264.477 182.731 262.771 194.447 266.986V223.446H93.8325ZM194.452 85.5936V0.0092986C183.437 -0.112029 172.452 1.17641 161.763 3.84331C136.283 10.2519 113.403 24.1519 93.8325 41.9045V85.589H98.8969V87.5734H93.8325V155.182H194.452V87.5734H119.614V85.5843L194.452 85.5936ZM323.721 56.6829C317.417 56.4598 311.151 54.4661 305.478 51.3757C294.644 45.4783 285.982 36.3603 276.308 28.6737C256.208 12.6546 231.281 2.98356 205.708 0.585561V85.5936H349.335L349.693 85.2172L323.721 56.6829ZM336.807 54.3593L350.681 69.607V50.3487C346.012 50.9389 341.945 52.3098 336.807 54.3407V54.3593ZM350.681 292.365V223.446H321.094C321.019 223.153 320.936 222.856 320.843 222.558C320.931 222.856 321.01 223.153 321.089 223.446H205.708V273.283C206.804 274.097 207.886 274.956 208.958 275.821C210.115 276.769 211.265 277.728 212.407 278.697L213.558 279.65C214.11 280.115 214.672 280.58 215.229 281.021C216.346 281.923 217.471 282.815 218.604 283.698C219.17 284.144 219.74 284.582 220.312 285.013C229.379 291.95 238.942 298.212 248.925 303.746C251.163 304.996 253.423 306.2 255.698 307.376C257.211 308.157 258.735 308.922 260.27 309.672C262.572 310.796 264.893 311.881 267.233 312.925C288.802 322.618 311.611 329.268 335.006 332.685C340.198 333.45 345.414 334.054 350.654 334.497V292.356H351.118L350.681 292.365ZM205.708 87.5734V155.182H350.681V87.5734H205.708ZM205.708 157.162V221.457H350.681V157.171L205.708 157.162ZM361.934 50.2557V71.7726L379.638 52.3145C373.771 51.3447 367.869 50.6585 361.934 50.2557ZM361.934 157.171V221.457H502.933V157.171H361.934ZM502.436 297.463L502.933 223.446H361.934V335.246C371.016 335.624 380.112 335.514 389.182 334.916H389.34C393.672 334.637 397.985 334.24 402.277 333.726H402.374C425.28 331.057 447.677 325.067 468.861 315.945L502.436 297.463ZM530.135 167.73C529.6 166.49 529.05 165.251 528.487 164.012C527.438 161.688 526.333 159.43 525.191 157.176H514.19V221.457H542C541.977 203.249 537.372 184.66 530.135 167.73ZM514.19 223.446V287.114C522.021 279.599 528.645 270.997 533.408 261.163C539.141 249.317 541.763 236.5 541.981 223.441L514.19 223.446ZM514.19 138.438V155.168H524.161C521.138 149.417 517.81 143.832 514.19 138.438ZM418.566 62.8731C417.832 62.5896 417.094 62.3061 416.356 62.0366C408.574 59.1572 400.621 56.7639 392.543 54.8705L365.443 84.6409L364.914 85.2126L365.262 85.589H461.713C448.279 76.3344 433.795 68.7091 418.566 62.8731ZM464.544 87.5734H363.911L361.934 89.3812V155.182H379.271H502.933V123.302C491.751 109.764 478.845 97.7521 464.544 87.5734Z" fill="#118AB2"/>
<path opacity="0.1" d="M82.5804 121.68V155.182H35.6223C35.6223 154.987 35.6502 154.787 35.6687 154.592C35.7105 154.057 35.7523 153.528 35.7987 152.993C35.8451 152.37 35.9055 151.748 35.9658 151.134C36.0262 150.521 36.0865 149.777 36.1608 149.103C36.2351 148.43 36.2954 147.746 36.3697 147.073C36.4439 146.399 36.5182 145.725 36.6018 145.056C36.6853 144.386 36.7596 143.708 36.8524 143.039C36.9221 142.486 36.9917 141.928 37.0706 141.37C37.1774 140.585 37.2888 139.8 37.4048 139.019C37.4048 138.898 37.442 138.782 37.4605 138.666C38.3089 132.951 39.4618 127.285 40.9141 121.694L82.5804 121.68Z" fill="#118AB2"/>
<path opacity="0.1" d="M35.4738 157.171H82.5805V221.457H38.9182C38.8068 222.121 38.6954 222.781 38.57 223.446H82.5805V275.282C82.5062 275.282 82.4319 275.226 82.3623 275.198C81.1244 274.705 79.8866 274.183 78.6487 273.632C78.3841 273.511 78.1242 273.386 77.8549 273.269C76.6171 272.684 75.3792 272.064 74.1414 271.41C73.7097 271.183 73.278 270.946 72.8555 270.704C65.9834 266.865 59.7376 261.997 54.3341 256.27C54.1717 256.116 54.0231 255.949 53.8699 255.805C53.1179 254.987 52.3799 254.16 51.665 253.314C51.3958 253.003 51.1358 252.687 50.8712 252.385C50.0264 251.353 49.2094 250.284 48.4203 249.21C48.2996 249.048 48.1882 248.89 48.0721 248.746C44.8394 244.267 42.1587 239.414 40.0879 234.293C40.023 234.139 39.9626 233.972 39.9023 233.828C39.2617 232.201 38.6814 230.552 38.1801 228.869C37.9666 228.168 37.7577 227.475 37.5813 226.745C37.5163 226.536 37.4652 226.323 37.4095 226.113C34.8008 215.82 34.499 205.122 34.499 194.475C34.499 193.235 34.499 191.996 34.499 190.757C34.5362 186.41 34.5872 182.068 34.6522 177.731C34.677 176.615 34.7002 175.495 34.7218 174.371C34.7868 171.523 34.8797 168.67 35.0004 165.81C35.0282 165.02 35.0653 164.226 35.1071 163.44C35.1257 162.985 35.1489 162.529 35.1768 162.074C35.2603 160.429 35.3593 158.794 35.4738 157.171Z" fill="#118AB2"/>
<path opacity="0.1" d="M129.251 97.2583V155.182H93.8279V97.2583H98.8783V77.6467H119.609V97.2583H129.251Z" fill="#118AB2"/>
<path opacity="0.1" d="M129.246 157.166H93.8279V221.452H129.246V157.166Z" fill="#118AB2"/>
<path opacity="0.1" d="M93.8325 223.446H129.251V276.89C125.073 278.094 120.815 278.999 116.508 279.599C116.156 279.65 115.808 279.692 115.455 279.729C114.935 279.79 114.42 279.845 113.904 279.892L112.349 280.017H112.191L111.504 280.054H111.268C110.989 280.054 110.715 280.087 110.437 280.092H110.414C110.014 280.092 109.62 280.12 109.221 280.129H108.71C108.315 280.129 107.921 280.129 107.517 280.129H106.644H105.934C105.632 280.129 105.335 280.129 105.034 280.092C104.557 280.073 104.074 280.045 103.585 280.008L102.689 279.943C102.318 279.915 101.947 279.878 101.58 279.841C100.8 279.773 100.026 279.684 99.259 279.576L98.3306 279.446L97.8664 279.381C97.0912 279.264 96.3206 279.134 95.5454 278.986C94.9698 278.883 94.4035 278.767 93.8325 278.646V223.446Z" fill="#118AB2"/>
<path opacity="0.1" d="M350.677 90.4175H321.47V155.177H350.677V90.4175Z" fill="#118AB2"/>
<path opacity="0.1" d="M350.682 157.166V221.457H205.708V193.727H282.928V210.085H321.47V157.166H350.682Z" fill="#118AB2"/>
<path opacity="0.1" d="M351.141 292.379C350.988 292.379 350.835 292.379 350.677 292.351V334.525C345.444 334.095 340.229 333.492 335.034 332.718C311.63 329.302 288.813 322.655 267.233 312.967C261.004 310.153 254.901 307.088 248.925 303.77C238.945 298.232 229.384 291.971 220.317 285.036C218.033 283.289 215.783 281.503 213.567 279.678C212.031 278.405 210.508 277.104 208.958 275.844C207.89 274.975 206.809 274.115 205.708 273.297V223.446H321.089C321.006 223.149 320.931 222.856 320.848 222.558C320.936 222.856 321.019 223.149 321.094 223.446H350.682V292.347C350.835 292.351 350.988 292.365 351.141 292.379Z" fill="#118AB2"/>
<path opacity="0.1" d="M426.856 85.5936H407.824V79.6729H416.352V62.0365C417.091 62.3091 417.828 62.588 418.561 62.873V79.6729H426.852L426.856 85.5936Z" fill="#118AB2"/>
<path opacity="0.1" d="M472.714 155.182H379.271C379.28 155.184 379.29 155.184 379.299 155.182H379.257H361.934V90.4222H366.845V138.289H389.284V109.941H407.829V87.5734H426.861V109.955H445.396V138.303H472.719L472.714 155.182Z" fill="#118AB2"/>
<path opacity="0.1" d="M361.934 157.171V221.457H472.719V157.171H361.934ZM502.775 297.124L502.933 246.236H472.719V223.464H361.934V335.246C371.016 335.624 380.112 335.514 389.182 334.916H389.34C393.672 334.637 397.985 334.24 402.277 333.726H402.374C425.28 331.057 447.677 325.067 468.861 315.945" fill="#118AB2"/>
<path opacity="0.1" d="M516.14 223.446H541.981C541.759 236.5 539.14 249.322 533.408 261.163C528.645 271.002 522.021 279.604 514.19 287.118V246.222H516.14V223.446Z" fill="#118AB2"/>
<path opacity="0.1" d="M542 221.457H516.14V167.73H530.135C537.372 184.66 541.977 203.249 542 221.457Z" fill="#118AB2"/>
<path opacity="0.1" d="M350.682 108.421H335.033V128.725H350.682V108.421Z" fill="#118AB2"/>
<path opacity="0.1" d="M350.682 150.507H335.033V155.182H350.682V150.507Z" fill="#118AB2"/>
<path opacity="0.1" d="M350.682 157.166H335.033V170.806H350.682V157.166Z" fill="#118AB2"/>
<path opacity="0.1" d="M350.682 192.593H335.033V212.897H350.682V192.593Z" fill="#118AB2"/>
<path opacity="0.1" d="M350.682 234.678H335.033V254.982H350.682V234.678Z" fill="#118AB2"/>
<path opacity="0.1" d="M350.682 292.347C350.835 292.347 350.988 292.347 351.146 292.379C350.993 292.379 350.839 292.379 350.682 292.351V297.068H335.033V276.764H350.682V292.347Z" fill="#118AB2"/>
<path opacity="0.1" d="M350.682 318.845V334.525C345.445 334.095 340.229 333.492 335.033 332.717V318.845H350.682Z" fill="#118AB2"/>
<path opacity="0.1" d="M272.771 219.965H205.708V221.457H272.771V219.965Z" fill="#118AB2"/>
<path opacity="0.1" d="M272.771 223.441H205.708V229.157H272.771V223.441Z" fill="#118AB2"/>
<path opacity="0.1" d="M272.771 247.895H205.708V257.088H272.771V247.895Z" fill="#118AB2"/>
<path opacity="0.1" d="M272.771 275.825V285.018H220.317C218.033 283.277 215.783 281.489 213.567 279.655C212.026 278.386 210.504 277.085 208.958 275.825H272.771Z" fill="#118AB2"/>
<path opacity="0.1" d="M272.771 303.751V312.967H267.233C261.004 310.153 254.901 307.088 248.925 303.77L272.771 303.751Z" fill="#118AB2"/>
<path opacity="0.1" d="M402.384 163.398H389.182V176.615H402.384V163.398Z" fill="#118AB2"/>
<path opacity="0.1" d="M116.541 101.817H103.339V115.034H116.541V101.817Z" fill="#118AB2"/>
<path opacity="0.1" d="M116.541 132.517H103.339V145.734H116.541V132.517Z" fill="#118AB2"/>
<path opacity="0.1" d="M116.541 163.217H103.339V176.434H116.541V163.217Z" fill="#118AB2"/>
<path opacity="0.1" d="M116.541 193.912H103.339V207.129H116.541V193.912Z" fill="#118AB2"/>
<path opacity="0.1" d="M116.541 224.612H103.339V237.829H116.541V224.612Z" fill="#118AB2"/>
<path opacity="0.1" d="M116.541 255.312H103.339V268.529H116.541V255.312Z" fill="#118AB2"/>
<path opacity="0.1" d="M452.782 163.398H439.58V176.615H452.782V163.398Z" fill="#118AB2"/>
<path opacity="0.1" d="M402.384 195.999H389.182V209.216H402.384V195.999Z" fill="#118AB2"/>
<path opacity="0.1" d="M452.782 195.999H439.58V209.216H452.782V195.999Z" fill="#118AB2"/>
<path opacity="0.1" d="M402.384 228.595H389.182V241.812H402.384V228.595Z" fill="#118AB2"/>
<path opacity="0.1" d="M452.782 228.595H439.58V241.812H452.782V228.595Z" fill="#118AB2"/>
<path opacity="0.1" d="M402.384 261.196H389.182V274.413H402.384V261.196Z" fill="#118AB2"/>
<path opacity="0.1" d="M452.782 261.196H439.58V274.413H452.782V261.196Z" fill="#118AB2"/>
<path opacity="0.1" d="M402.384 293.797H389.182V307.013H402.384V293.797Z" fill="#118AB2"/>
<path opacity="0.1" d="M452.782 293.797H439.58V307.013H452.782V293.797Z" fill="#118AB2"/>
<path opacity="0.1" d="M389.182 334.916V326.393H402.379V333.703L389.182 334.916Z" fill="#118AB2"/>
<path opacity="0.1" d="M37.405 138.652V146.213H82.5806V138.652H37.405ZM41.9031 145.739H38.1895V139.13H41.9031V145.739ZM46.4012 145.739H42.6876V139.13H46.4012V145.739ZM50.8899 145.739H47.1764V139.13H50.8899V145.739ZM55.388 145.739H51.6744V139.13H55.388V145.739ZM59.8814 145.739H56.1678V139.13H59.8814V145.739ZM64.3795 145.739H60.6659V139.13H64.3795V145.739ZM68.8775 145.739H65.164V139.13H68.8775V145.739ZM73.3709 145.739H69.6574V139.13H73.3709V145.739ZM77.8644 145.739H74.1508V139.13H77.8644V145.739ZM82.3624 145.739H78.6489V139.13H82.3624V145.739Z" fill="#118AB2"/>
<path opacity="0.1" d="M37.405 160.661V168.222H82.5806V160.661H37.405ZM41.9031 167.748H38.1895V161.14H41.9031V167.748ZM46.4012 167.748H42.6876V161.14H46.4012V167.748ZM50.8899 167.748H47.1764V161.14H50.8899V167.748ZM55.388 167.748H51.6744V161.14H55.388V167.748ZM59.8814 167.748H56.1678V161.14H59.8814V167.748ZM64.3795 167.748H60.6659V161.14H64.3795V167.748ZM68.8775 167.748H65.164V161.14H68.8775V167.748ZM73.3709 167.748H69.6574V161.14H73.3709V167.748ZM77.8644 167.748H74.1508V161.14H77.8644V167.748ZM82.3624 167.748H78.6489V161.14H82.3624V167.748Z" fill="#118AB2"/>
<path opacity="0.1" d="M37.405 182.675V190.232H82.5806V182.675H37.405ZM41.9031 189.753H38.1895V183.145H41.9031V189.753ZM46.4012 189.753H42.6876V183.145H46.4012V189.753ZM50.8899 189.753H47.1764V183.145H50.8899V189.753ZM55.388 189.753H51.6744V183.145H55.388V189.753ZM59.8814 189.753H56.1678V183.145H59.8814V189.753ZM64.3795 189.753H60.6659V183.145H64.3795V189.753ZM68.8775 189.753H65.164V183.145H68.8775V189.753ZM73.3709 189.753H69.6574V183.145H73.3709V189.753ZM77.8644 189.753H74.1508V183.145H77.8644V189.753ZM82.3624 189.753H78.6489V183.145H82.3624V189.753Z" fill="#118AB2"/>
<path opacity="0.1" d="M37.405 204.685V212.241H82.5806V204.685H37.405ZM41.9031 211.767H38.1895V205.15H41.9031V211.767ZM46.4012 211.767H42.6876V205.15H46.4012V211.767ZM50.8899 211.767H47.1764V205.15H50.8899V211.767ZM55.388 211.767H51.6744V205.15H55.388V211.767ZM59.8814 211.767H56.1678V205.15H59.8814V211.767ZM64.3795 211.767H60.6659V205.15H64.3795V211.767ZM68.8775 211.767H65.164V205.15H68.8775V211.767ZM73.3709 211.767H69.6574V205.15H73.3709V211.767ZM77.8644 211.767H74.1508V205.15H77.8644V211.767ZM82.3624 211.767H78.6489V205.15H82.3624V211.767Z" fill="#118AB2"/>
<path opacity="0.1" d="M37.623 226.685C37.7994 227.401 38.0083 228.107 38.2219 228.809V227.164H41.9354V233.768H39.944C39.9997 233.926 40.0601 234.088 40.1251 234.232H82.599V226.685H37.623ZM46.4428 233.768H42.7292V227.164H46.4428V233.768ZM50.9315 233.768H47.218V227.164H50.9315V233.768ZM55.4296 233.768H51.716V227.164H55.4296V233.768ZM59.923 233.768H56.2095V227.164H59.923V233.768ZM64.4211 233.768H60.7075V227.164H64.4211V233.768ZM68.9191 233.768H65.2056V227.164H68.9191V233.768ZM73.4126 233.768H69.699V227.164H73.4126V233.768ZM77.906 233.768H74.1924V227.164H77.906V233.768ZM82.404 233.768H78.6905V227.164H82.404V233.768Z" fill="#118AB2"/>
<path opacity="0.1" d="M48.0862 248.695C48.2069 248.843 48.3183 249.011 48.4343 249.159H50.8899V252.333L51.6837 253.263V249.141H55.3973V255.805H53.8701C54.0186 255.958 54.1625 256.121 54.3343 256.27H82.5713V248.695H48.0862ZM59.9046 255.805H56.191V249.169H59.9046V255.805ZM64.4027 255.805H60.6891V249.169H64.4027V255.805ZM68.9007 255.805H65.1872V249.169H68.9007V255.805ZM73.3942 255.805H69.6806V249.169H73.3942V255.805ZM77.8876 255.805H74.174V249.169H77.8876V255.805ZM82.3856 255.805H78.6721V249.169H82.3856V255.805Z" fill="#118AB2"/>
<path opacity="0.1" d="M72.8694 270.704C73.2964 270.946 73.7282 271.169 74.1599 271.406V271.173H77.8734V273.269C78.1427 273.386 78.398 273.511 78.6626 273.632V271.173H82.3761V275.198C82.4467 275.23 82.5197 275.256 82.5943 275.277V270.704H72.8694Z" fill="#118AB2"/>
<path opacity="0.1" d="M350.677 292.347H351.141H350.677ZM320.843 222.558C320.931 222.856 321.01 223.153 321.089 223.446C321.019 223.153 320.936 222.856 320.843 222.558ZM98.897 85.5936V87.5734H119.633V85.5844L98.897 85.5936ZM350.682 292.347H351.146H350.682ZM320.843 222.558C320.931 222.856 321.01 223.153 321.089 223.446C321.019 223.153 320.936 222.856 320.843 222.558ZM350.677 292.347H351.141H350.677ZM320.843 222.558C320.931 222.856 321.01 223.153 321.089 223.446C321.019 223.153 320.936 222.856 320.843 222.558Z" fill="#118AB2"/>
<path opacity="0.1" d="M408.228 401C433.208 401 453.459 397.744 453.459 393.727C453.459 389.71 433.208 386.454 408.228 386.454C383.247 386.454 362.997 389.71 362.997 393.727C362.997 397.744 383.247 401 408.228 401Z" fill="#118AB2"/>
<path opacity="0.1" d="M204.232 393.727C229.213 393.727 249.464 390.471 249.464 386.454C249.464 382.437 229.213 379.181 204.232 379.181C179.252 379.181 159.001 382.437 159.001 386.454C159.001 390.471 179.252 393.727 204.232 393.727Z" fill="#118AB2"/>
<path d="M256.306 194.14C256.295 194.094 256.271 194.052 256.236 194.019C255.545 193.336 246.725 180.849 246.725 180.849C246.725 180.849 246.261 179.455 245.509 177.642C245.75 177.33 245.931 176.975 246.043 176.597C246.083 176.436 246.113 176.273 246.131 176.109C246.131 176.058 246.168 176.016 246.182 175.965C246.343 175.334 246.327 174.672 246.135 174.05C246.084 174.209 246.02 174.365 245.945 174.515C245.77 173.973 245.537 173.453 245.249 172.963C244.079 170.946 242.408 169.245 241.178 167.279C239.315 164.225 238.575 160.616 239.084 157.073C239.084 157.255 239.084 157.441 239.084 157.622C239.131 156.919 239.224 156.221 239.363 155.531C239.557 154.745 239.816 153.977 240.138 153.235C241.243 150.702 243.03 148.495 244.116 145.953C244.481 145.095 244.757 144.203 244.942 143.29C245.325 141.764 245.465 140.188 245.356 138.619C245.356 138.991 245.295 139.363 245.239 139.73C245.122 135.958 243.601 132.366 240.974 129.659C237.181 125.844 231.736 124.361 226.528 123.581C224.339 123.325 222.249 122.526 220.447 121.257C218.446 119.96 215.861 119.649 213.521 119.932C210.832 120.223 208.333 121.46 206.47 123.423C203.996 126.146 202.923 130.003 200.036 132.299C198.286 133.693 196.067 134.344 194.029 135.292C191.992 136.24 190.065 137.615 189.411 139.651C189.411 139.651 189.411 139.623 189.411 139.609V139.725L189.383 139.8C188.705 142.207 190.014 144.656 190.696 147.059C191.407 149.545 191.453 152.171 191.49 154.741C191.541 157.882 191.588 161.028 191.537 164.175C191.513 165.411 191.472 166.661 191.379 167.892C190.28 168.225 189.213 168.654 188.19 169.175C187.15 169.853 183.26 174.059 183.26 174.059L175.652 203.161L175.754 203.277L175.652 203.672L176.037 203.583C177.114 204.745 180.331 208.054 183.803 210.118L184.128 215.824C184.128 215.824 184.518 221.55 189.777 223.915C189.898 225.9 190.274 233.958 188.533 237.151C187.328 239.483 186.761 242.094 186.89 244.717C186.89 244.717 187.498 249.559 186.806 252.106C186.402 253.808 186.372 255.577 186.718 257.292C186.718 257.292 186.718 257.854 186.718 258.821C186.718 263.975 186.779 280.491 186.718 282.36C186.63 284.567 186.718 317.214 186.718 317.214C186.718 317.214 186.287 333.531 184.903 337.95C183.52 342.37 183.868 357.004 183.868 357.004C183.868 357.004 183 374.436 186.068 377.875C186.068 378.029 186.041 378.186 186.036 378.34C186.036 378.41 186.036 378.489 186.036 378.558C185.999 379.883 186.254 381.291 187.391 381.723C189.712 382.615 192.781 385.292 193.361 386.059C193.941 386.826 197.316 388.736 201.716 388.225C204.473 387.914 207.247 387.787 210.021 387.844C210.021 387.844 211.757 387.528 211.195 385.367C210.833 384.019 209.478 381.946 208.512 380.585C208.689 380.631 208.86 380.668 209.023 380.701L209.19 380.733H209.32C209.391 380.738 209.462 380.738 209.534 380.733H209.626C209.713 380.74 209.8 380.74 209.886 380.733C211.051 380.622 215.396 382.648 216.172 383.986C216.947 385.325 219.681 386.342 221.742 386.598C222.967 386.747 226.059 386.496 228.654 386.161C229.961 386.026 231.255 385.79 232.525 385.455C233.138 385.222 233.268 384.479 233.091 383.642C232.883 382.58 232.316 381.622 231.485 380.928C230.733 380.394 229.74 378.986 229.007 377.833L228.812 377.522C230.107 376.286 232.446 372.243 233.156 371.406C234.02 370.388 231.764 333.168 231.764 333.168V314.509L235.222 296.85L237.641 287.504L239.716 273.395C239.716 273.395 243.346 256.916 242.227 255.298C242.227 255.266 241.298 238.299 240.324 234.223C239.901 232.406 240.008 228.316 240.259 224.338C240.521 224.078 240.703 223.748 240.785 223.388C240.868 223.027 240.846 222.651 240.723 222.303C240.654 222.064 240.563 221.833 240.454 221.61C240.454 221.541 240.454 221.466 240.454 221.396C242.459 220.473 244.554 219.759 246.706 219.268C250.165 218.59 249.301 216.805 249.301 216.805C249.301 216.805 250.081 215.276 250.596 214.342C251.112 213.408 250.685 205.164 250.596 204.485C250.564 204.211 250.35 202.696 250.104 200.976C251.214 200.186 252.657 199.206 254.231 198.276C257.225 196.501 256.552 194.628 256.306 194.14ZM211.186 311.963C211.186 311.963 208.591 318.59 209.631 320.286C210.671 321.982 209.459 328.279 209.459 328.279L208.591 337.625C208.591 337.625 206.173 354.959 207.036 359.035C207.714 362.232 207.965 371.783 208.043 375.765C207.984 375.788 207.927 375.816 207.872 375.849L207.756 375.909C208.155 374.343 207.988 371.174 206.006 364.798L205.839 338.462C205.839 338.462 205.532 308.04 207.932 304.639C210.332 301.237 211.181 295.46 211.181 295.46C211.181 295.46 210.662 303.793 210.323 306C209.984 308.208 211.186 311.963 211.186 311.963ZM206.354 377.424C206.331 377.48 206.303 377.536 206.284 377.587L206.154 377.42C206.221 377.426 206.287 377.428 206.354 377.424Z" fill="url(#paint0_linear)"/>
<path d="M232.817 387.862C231.476 388.378 224.202 389.256 222.169 389.01C220.136 388.764 217.443 387.732 216.677 386.384C215.911 385.037 211.618 383.001 210.466 383.131C209.995 383.145 209.524 383.079 209.074 382.936C208.28 382.695 207.504 382.397 206.753 382.044C206.648 381.458 206.665 380.857 206.804 380.278C206.831 380.161 206.865 380.046 206.906 379.934C207.177 379.172 207.737 378.547 208.466 378.196L208.633 378.117C208.955 377.978 209.291 377.875 209.636 377.81C213.284 377.108 228.338 378.517 228.338 378.517C228.338 378.517 228.76 379.274 229.341 380.213C230.065 381.375 231.049 382.792 231.792 383.326C232.614 384.031 233.173 384.994 233.375 386.059C233.551 386.882 233.421 387.634 232.817 387.862Z" fill="white"/>
<path opacity="0.1" d="M232.817 387.862C231.476 388.378 224.207 389.256 222.173 389.01C220.14 388.764 217.448 387.727 216.677 386.384C215.907 385.041 211.622 383.001 210.471 383.131C209.32 383.261 206.757 382.044 206.757 382.044C206.757 382.044 206.358 380.185 207.519 378.916L209.84 380.566C209.84 380.566 216.051 382.495 217.202 384.284C218.353 386.073 220.451 387.072 223.482 387.253C225.748 387.402 230.951 386.519 233.388 386.078C233.551 386.882 233.426 387.634 232.817 387.862Z" fill="black"/>
<path d="M210.596 390.232C207.858 390.179 205.12 390.308 202.399 390.618C198.04 391.129 194.712 389.224 194.131 388.438C193.551 387.653 190.548 384.999 188.241 384.07C187.113 383.633 186.848 382.211 186.899 380.882C186.899 380.812 186.899 380.733 186.899 380.664C186.942 379.822 187.066 378.986 187.271 378.168L205.332 377.782L206.897 379.906L207.138 380.231L208.09 381.528C208.09 381.528 208.522 382.095 209.088 382.922C210.044 384.316 211.381 386.375 211.738 387.737C212.309 389.916 210.596 390.232 210.596 390.232Z" fill="white"/>
<path opacity="0.1" d="M210.596 390.232C207.858 390.179 205.12 390.308 202.399 390.618C198.045 391.129 194.712 389.224 194.136 388.438C193.56 387.653 190.548 384.976 188.241 384.079C187.113 383.642 186.848 382.22 186.899 380.891C188.19 381.193 190.901 381.965 191.964 383.308C193.356 385.102 195.849 388.118 199.391 388.308C202.25 388.462 209.213 387.95 211.766 387.746C212.314 389.916 210.596 390.232 210.596 390.232Z" fill="black"/>
<path opacity="0.1" d="M208.447 378.177C208.238 379.729 207.593 380.148 207.129 380.241C207.015 380.263 206.899 380.263 206.785 380.241C206.724 380.236 206.664 380.227 206.604 380.213C206.604 380.213 190.385 383.8 187.108 380.896C187.025 380.821 186.947 380.74 186.876 380.654C186.919 379.812 187.043 378.976 187.247 378.159L205.309 377.773L206.874 379.897C207.144 379.134 207.705 378.51 208.433 378.159L208.447 378.177Z" fill="black"/>
<path opacity="0.1" d="M229.336 380.194C228.974 380.594 228.672 380.822 228.482 380.743C227.628 380.399 220.628 379.204 218.404 380.231C216.181 381.258 208.656 380.399 208.656 380.399C208.656 380.399 208.656 379.506 208.614 378.075C208.936 377.936 209.272 377.833 209.617 377.768C213.266 377.067 228.319 378.475 228.319 378.475C228.319 378.475 228.76 379.255 229.336 380.194Z" fill="black"/>
<path d="M239.929 275.073L237.877 289.266L235.491 298.672L232.075 316.452V335.274C232.075 335.274 234.294 372.721 233.439 373.744C232.585 374.766 229.341 380.589 228.486 380.25C227.632 379.911 220.632 378.712 218.409 379.734C216.185 380.757 208.661 379.906 208.661 379.906C208.661 379.906 208.489 365.374 207.635 361.27C206.781 357.167 209.171 339.726 209.171 339.726L210.025 330.324C210.025 330.324 211.223 323.995 210.197 322.284C209.171 320.574 211.734 313.919 211.734 313.919C211.734 313.919 210.541 310.15 210.884 307.929C211.228 305.708 211.734 297.329 211.734 297.329C211.734 297.329 210.884 303.147 208.512 306.563C206.14 309.978 206.442 340.59 206.442 340.59L206.609 367.08C210.884 381.105 206.609 379.734 206.609 379.734C206.609 379.734 190.39 383.326 187.113 380.417C183.835 377.508 184.773 359.198 184.773 359.198C184.773 359.198 184.434 344.494 185.799 340.051C187.164 335.608 187.595 319.189 187.595 319.189C187.595 319.189 187.507 286.356 187.595 284.14C187.66 282.281 187.595 265.639 187.595 260.438C187.595 259.472 187.595 258.9 187.595 258.9L189.554 254.03L212.764 251.121H223.868C223.868 251.121 240.579 255.052 242.306 256.748C242.342 256.777 242.374 256.811 242.398 256.851C243.517 258.491 239.929 275.073 239.929 275.073Z" fill="#118AB2"/>
<path opacity="0.1" d="M211.748 349.624C211.748 349.624 216.854 361.935 219.263 362.79C221.672 363.645 211.748 349.624 211.748 349.624Z" fill="black"/>
<path opacity="0.1" d="M213.637 367.749C213.637 367.749 230.877 368.604 230.705 370.486C230.534 372.368 213.637 367.749 213.637 367.749Z" fill="black"/>
<path opacity="0.1" d="M190.571 362.827C191.253 363.473 203.722 364.686 202.696 365.867C201.67 367.047 191.597 369.343 191.597 369.343L190.571 362.827Z" fill="black"/>
<path opacity="0.1" d="M188.524 341.589C188.524 342.1 191.086 358.003 191.773 358.686C192.46 359.37 198.091 360.053 198.091 360.053L188.524 341.589Z" fill="black"/>
<path d="M207.115 124.217C204.669 126.954 203.61 130.835 200.76 133.149C199.029 134.544 196.838 135.208 194.823 136.156C192.808 137.104 190.812 138.549 190.214 140.697C189.545 143.113 190.836 145.581 191.513 147.997C192.214 150.498 192.256 153.109 192.298 155.726C192.344 158.891 192.395 162.055 192.34 165.22C192.256 170.151 191.848 175.309 189.234 179.487C198.671 182.494 208.707 182.903 218.604 183.289C220.506 183.425 222.416 183.376 224.309 183.145C225.949 182.818 227.571 182.407 229.169 181.913C232.328 181.076 235.584 180.659 238.852 180.672C240.277 180.672 241.73 180.761 243.104 180.389C244.478 180.017 245.801 179.064 246.172 177.689C246.502 176.453 246.019 175.138 245.388 174.027C244.237 172.001 242.603 170.309 241.368 168.311C240.107 166.2 239.36 163.822 239.185 161.369C239.01 158.916 239.413 156.456 240.361 154.188C241.456 151.636 243.22 149.415 244.297 146.859C245.4 144.114 245.693 141.111 245.142 138.205C244.591 135.298 243.218 132.612 241.187 130.463C237.441 126.625 232.066 125.137 226.922 124.347C224.757 124.091 222.691 123.292 220.916 122.024C218.943 120.722 216.385 120.406 214.073 120.695C211.406 120.994 208.936 122.244 207.115 124.217Z" fill="#3F3D56"/>
<g opacity="0.1">
<path opacity="0.1" d="M240.505 151.506C239.558 153.745 239.153 156.177 239.321 158.602C239.425 156.868 239.825 155.164 240.505 153.565C241.596 151.013 243.36 148.792 244.437 146.236C245.317 144.102 245.687 141.791 245.518 139.488C245.422 141.102 245.057 142.689 244.437 144.182C243.36 146.738 241.596 148.955 240.505 151.506Z" fill="black"/>
<path opacity="0.1" d="M192.437 155.094C192.465 156.915 192.493 158.742 192.498 160.564C192.498 158.054 192.474 155.549 192.437 153.044C192.4 150.446 192.354 147.816 191.653 145.311C191.189 143.722 190.502 142.109 190.26 140.506C189.847 142.783 191.021 145.093 191.653 147.365C192.354 149.847 192.4 152.496 192.437 155.094Z" fill="black"/>
<path opacity="0.1" d="M243.262 177.731C241.869 178.107 240.44 178.023 239.015 178.014C235.749 177.993 232.495 178.403 229.336 179.232C227.738 179.723 226.116 180.132 224.476 180.459C222.582 180.694 220.67 180.744 218.766 180.607C209.204 180.231 199.507 179.827 190.348 177.089C190.076 177.697 189.766 178.287 189.42 178.855C198.857 181.857 208.893 182.271 218.785 182.657C220.688 182.793 222.601 182.744 224.495 182.508C226.129 182.185 227.745 181.777 229.336 181.286C232.488 180.454 235.736 180.04 238.996 180.054C240.421 180.054 241.869 180.143 243.243 179.766C244.617 179.39 245.94 178.446 246.312 177.071C246.468 176.434 246.452 175.766 246.265 175.137C245.852 176.439 244.576 177.345 243.262 177.731Z" fill="black"/>
</g>
<path d="M229.512 172.224C229.169 172.995 227.721 179.659 227.377 180.342C227.034 181.026 225.158 191.961 224.987 192.574C224.815 193.188 212.625 190.009 212.625 190.009L205.286 183.851L197.743 176.336C197.743 176.336 197.52 169.556 203.077 167.381C203.454 167.233 203.842 167.112 204.237 167.019C210.977 165.397 210.299 144.879 210.299 144.879L224.132 150.86C224.132 150.86 221.57 162.831 221.658 165.141C221.681 165.917 222.29 166.401 223.083 166.693C224.311 167.043 225.588 167.181 226.862 167.102C226.862 167.102 229.856 171.457 229.512 172.224Z" fill="#FBBEBE"/>
<path d="M254.277 194.707L256.241 195.223C256.241 195.223 257.694 197.435 254.277 199.494C252.108 200.813 250.026 202.271 248.043 203.858L237.947 206.934L236.002 200.823L245.397 193.685L254.277 194.707Z" fill="#118AB2"/>
<path opacity="0.1" d="M254.277 194.707L256.241 195.223C256.241 195.223 257.694 197.435 254.277 199.494C252.108 200.813 250.026 202.271 248.043 203.858L237.947 206.934L236.002 200.823L245.397 193.685L254.277 194.707Z" fill="black"/>
<path d="M180.596 200.609L176.668 204.457C176.668 204.457 183.752 212.664 189.202 213.175C194.651 213.687 198.165 206.934 198.165 206.934L193.449 199.499L180.596 200.609Z" fill="#118AB2"/>
<path opacity="0.1" d="M180.596 200.609L176.668 204.457C176.668 204.457 183.752 212.664 189.202 213.175C194.651 213.687 198.165 206.934 198.165 206.934L193.449 199.499L180.596 200.609Z" fill="black"/>
<path opacity="0.1" d="M217.898 158.286C225.443 158.286 231.56 152.163 231.56 144.609C231.56 137.056 225.443 130.932 217.898 130.932C210.353 130.932 204.237 137.056 204.237 144.609C204.237 152.163 210.353 158.286 217.898 158.286Z" fill="black"/>
<path d="M217.898 157.259C225.443 157.259 231.56 151.136 231.56 143.582C231.56 136.029 225.443 129.906 217.898 129.906C210.353 129.906 204.237 136.029 204.237 143.582C204.237 151.136 210.353 157.259 217.898 157.259Z" fill="#FBBEBE"/>
<path opacity="0.1" d="M242.408 258.403C239.297 258.759 236.233 259.446 233.268 260.452C228.162 262.153 188.148 260.48 187.591 260.452C187.591 259.486 187.591 258.914 187.591 258.914L189.55 254.044L212.76 251.135H223.863C223.863 251.135 240.574 255.066 242.301 256.762C242.371 257.785 242.408 258.403 242.408 258.403Z" fill="black"/>
<path opacity="0.1" d="M229.512 172.224C229.169 172.995 227.721 179.659 227.377 180.342C227.034 181.026 225.158 191.961 224.987 192.574C224.815 193.188 212.625 190.009 212.625 190.009L205.286 183.851L197.743 176.336C197.743 176.336 197.52 169.556 203.077 167.381L216.872 183.261L223.083 166.693C224.311 167.043 225.588 167.181 226.862 167.102C226.862 167.102 229.856 171.457 229.512 172.224Z" fill="black"/>
<path d="M216.872 183.772L202.751 167.507C201.925 166.978 200.98 166.664 200.002 166.592C199.024 166.52 198.044 166.692 197.149 167.093C193.987 168.464 190.06 169.575 189.034 170.258C188.009 170.941 184.165 175.17 184.165 175.17L195.612 205.15L190.571 224.896C190.571 224.896 191.342 234.985 189.378 238.661C188.182 241.012 187.622 243.634 187.753 246.269C187.753 246.269 188.352 251.144 187.67 253.704C187.271 255.416 187.241 257.194 187.582 258.919C187.582 258.919 228.148 260.629 233.268 258.919C236.232 257.91 239.297 257.223 242.408 256.869C242.408 256.869 241.479 239.767 240.551 235.664C239.623 231.56 241.322 215.917 241.322 215.917L240.212 199.159L246.869 181.964C246.869 181.964 243.262 170.941 239.502 169.83C239.502 169.83 232.674 168.204 231.221 167.437C229.768 166.67 225.497 165.982 225.497 165.982L223.255 166.735L216.872 183.772Z" fill="#118AB2"/>
<path opacity="0.1" d="M236.574 198.593L206.86 196.571C206.108 196.519 205.457 197.088 205.405 197.841L202.215 244.81C202.164 245.562 202.732 246.214 203.484 246.265L233.199 248.288C233.951 248.339 234.602 247.771 234.653 247.018L237.843 200.049C237.894 199.296 237.326 198.645 236.574 198.593Z" fill="black"/>
<path d="M237.597 197.573L207.883 195.551C207.131 195.499 206.48 196.068 206.429 196.821L203.239 243.79C203.188 244.542 203.756 245.194 204.508 245.245L234.222 247.268C234.974 247.319 235.625 246.751 235.676 245.998L238.866 199.029C238.917 198.276 238.349 197.625 237.597 197.573Z" fill="#3F3D56"/>
<path d="M236.616 201.255L208.356 199.331L205.452 242.09L233.712 244.013L236.616 201.255Z" fill="white"/>
<path opacity="0.1" d="M234.083 212.169L210.998 210.551L210.548 216.992L233.632 218.61L234.083 212.169Z" fill="black"/>
<path opacity="0.1" d="M233.247 237.766L229.584 237.516L229.356 240.873L233.019 241.122L233.247 237.766Z" fill="black"/>
<path opacity="0.1" d="M229.634 229.664L210.882 228.387L210.654 231.744L229.406 233.021L229.634 229.664Z" fill="black"/>
<path d="M233.119 199.656L213.593 198.327L213.243 203.488L232.768 204.817L233.119 199.656Z" fill="#3F3D56"/>
<path opacity="0.1" d="M233.119 199.656L213.593 198.327L213.243 203.488L232.768 204.817L233.119 199.656Z" fill="black"/>
<path opacity="0.1" d="M218.581 257.459C218.581 257.459 218.409 282.768 211.748 297.301C211.748 297.301 219.778 278.149 219.778 277.382C219.778 276.615 224.216 268.576 223.028 266.182C221.839 263.789 218.581 257.459 218.581 257.459Z" fill="black"/>
<path opacity="0.1" d="M218.943 140.162C218.687 137.922 219.235 135.664 220.488 133.791C220.339 135.668 220.87 137.537 221.983 139.056C223.096 140.574 224.717 141.642 226.551 142.063C226.394 141.927 226.283 141.747 226.23 141.546C226.178 141.345 226.188 141.133 226.258 140.938C227.21 142.016 227.939 143.294 229.016 144.242C230.093 145.19 231.708 145.757 232.975 145.083C234.697 144.154 234.716 141.705 234.27 139.799C233.314 135.742 231.352 131.991 228.565 128.892C227.87 127.956 226.968 127.193 225.929 126.664C224.89 126.135 223.743 125.855 222.577 125.844C219.941 125.639 217.202 125.872 214.839 127.057C213.51 127.783 212.264 128.654 211.126 129.654L204.627 134.962C204.002 135.413 203.466 135.977 203.049 136.625C202.77 137.167 202.602 137.76 202.557 138.368C202.391 140.106 202.712 141.856 203.484 143.422C204.257 144.987 205.45 146.306 206.929 147.23C206.898 145.857 207.275 144.505 208.013 143.346C208.752 142.188 209.817 141.275 211.075 140.724C211.271 140.889 211.431 141.094 211.542 141.326C211.654 141.558 211.714 141.81 211.72 142.067L213.089 139.623C213.293 139.178 213.614 138.797 214.018 138.521C214.862 138.057 215.916 138.605 216.636 139.26C217.355 139.916 218.056 140.734 219.022 140.836L219.059 137.197" fill="black"/>
<path d="M218.943 139.651C218.687 137.409 219.235 135.149 220.488 133.275C220.071 136.993 222.87 140.831 226.556 141.547C226.399 141.412 226.287 141.233 226.235 141.033C226.183 140.832 226.192 140.621 226.263 140.427C227.215 141.505 227.943 142.778 229.02 143.731C230.097 144.684 231.713 145.246 232.98 144.568C234.702 143.638 234.721 141.189 234.275 139.288C233.319 135.231 231.357 131.479 228.57 128.381C227.706 127.326 226.616 126.478 225.381 125.899C224.487 125.569 223.548 125.377 222.596 125.333C219.959 125.128 217.221 125.356 214.858 126.541C213.529 127.27 212.284 128.143 211.144 129.143L204.645 134.45C204.019 134.9 203.484 135.465 203.067 136.114C202.788 136.656 202.62 137.249 202.575 137.857C202.409 139.594 202.731 141.344 203.503 142.908C204.276 144.473 205.469 145.791 206.948 146.715C206.918 145.341 207.296 143.99 208.034 142.831C208.772 141.673 209.836 140.76 211.093 140.208C211.289 140.374 211.448 140.579 211.56 140.811C211.671 141.042 211.732 141.295 211.738 141.552L213.103 139.116C213.306 138.671 213.627 138.29 214.032 138.015C214.876 137.55 215.93 138.099 216.65 138.754C217.369 139.409 218.07 140.222 219.036 140.329L219.073 136.686" fill="#3F3D56"/>
<path d="M225.414 225.918C224.221 225.314 204.492 228.395 204.492 228.395C204.492 228.395 201.243 227.466 193.389 226.174C185.534 224.882 185.033 217.195 185.033 217.195L184.174 201.808L186.825 199.485L198.179 206.92C198.179 206.92 198.356 210.68 198.179 211.358C198.068 211.823 197.771 212.376 197.798 212.753C197.807 212.855 197.849 212.951 197.918 213.026C197.987 213.102 198.079 213.153 198.179 213.171C198.95 213.366 209.45 215.067 209.45 215.067C209.45 215.067 233.788 213.399 239.855 221.606C240.335 222.208 240.699 222.895 240.927 223.632C242.431 229.241 226.495 226.453 225.414 225.918Z" fill="#FBBEBE"/>
<path opacity="0.1" d="M240.941 223.664C240.013 224.078 239.437 224.375 239.437 224.375C239.437 224.375 230.729 224.12 225.836 222.345C220.943 220.569 214.997 220.885 214.997 220.885C214.997 220.885 194.61 217.372 197.771 212.785C197.779 212.887 197.821 212.983 197.89 213.059C197.959 213.135 198.051 213.185 198.151 213.203C198.922 213.399 209.422 215.1 209.422 215.1C209.422 215.1 233.76 213.431 239.827 221.638C240.322 222.237 240.7 222.925 240.941 223.664Z" fill="black"/>
<path d="M249.408 196.589C249.408 196.589 250.606 205.052 250.689 205.74C250.773 206.428 251.204 214.714 250.689 215.657C250.174 216.601 249.408 218.134 249.408 218.134C249.408 218.134 250.262 219.928 246.846 220.616C243.429 221.304 239.419 223.348 239.419 223.348C239.419 223.348 230.706 223.093 225.841 221.299C220.976 219.505 214.997 219.844 214.997 219.844C214.997 219.844 189.118 215.397 200.222 209.969C211.325 204.541 219.18 211.893 219.18 211.893L231.56 211.126C231.56 211.126 236.174 208.301 237.455 208.561C238.36 208.676 239.278 208.528 240.101 208.133L240.189 199.155L249.408 196.589Z" fill="#FBBEBE"/>
<path opacity="0.1" d="M186.63 175.816L184.151 175.686L176.641 204.964C176.641 204.964 184.75 202.91 188.246 204.964C191.741 207.018 198.151 207.441 198.151 207.441L195.761 184.102L186.63 175.816Z" fill="black"/>
<path d="M186.63 175.3L184.151 175.17L176.641 204.448C176.641 204.448 184.75 202.394 188.246 204.448C191.741 206.502 198.151 206.925 198.151 206.925L195.761 183.586L186.63 175.3Z" fill="#118AB2"/>
<path opacity="0.1" d="M243.434 181.713L246.845 182.485C246.845 182.485 255.558 195.032 256.241 195.734C256.923 196.436 252.991 198.987 251.371 198.987C249.751 198.987 241.809 199.917 239.502 202.064C237.195 204.211 238.156 193.406 238.156 193.16C238.156 192.913 241.02 186.096 241.02 186.096L243.434 181.713Z" fill="black"/>
<path d="M243.434 181.202L246.845 181.969C246.845 181.969 255.558 194.54 256.241 195.223C256.923 195.906 252.991 198.476 251.371 198.476C249.751 198.476 241.809 199.406 239.502 201.553C237.195 203.7 238.156 192.895 238.156 192.648C238.156 192.402 241.038 185.561 241.038 185.561L243.434 181.202Z" fill="#118AB2"/>
<g opacity="0.1">
<path opacity="0.1" d="M220.465 133.317C220.445 132.96 220.453 132.603 220.489 132.248C219.782 133.309 219.296 134.503 219.059 135.756V136.835C219.059 136.835 219.059 136.811 219.059 136.797V137.053C219.059 137.806 219.059 138.563 219.036 139.316H218.971V139.665C218.971 139.544 218.971 139.428 218.947 139.307C218.019 139.158 217.355 138.377 216.664 137.755C215.972 137.132 214.89 136.537 214.045 137.016C213.641 137.291 213.32 137.672 213.117 138.117L211.738 140.552C211.732 140.296 211.672 140.044 211.56 139.813C211.449 139.582 211.29 139.378 211.093 139.214C209.836 139.765 208.77 140.677 208.032 141.836C207.294 142.994 206.917 144.346 206.948 145.72C205.68 144.925 204.619 143.838 203.853 142.551C203.087 141.264 202.638 139.812 202.543 138.317C202.462 139.987 202.828 141.648 203.602 143.129C204.376 144.61 205.531 145.857 206.948 146.743C206.918 145.369 207.296 144.018 208.034 142.859C208.772 141.701 209.836 140.788 211.093 140.236C211.289 140.402 211.448 140.607 211.56 140.839C211.671 141.07 211.732 141.323 211.738 141.579L213.103 139.144C213.306 138.699 213.627 138.318 214.032 138.043C214.876 137.578 215.93 138.126 216.65 138.782C217.369 139.437 218.07 140.25 219.036 140.357C219.036 139.167 219.048 137.981 219.073 136.797C219.3 135.556 219.774 134.372 220.465 133.317Z" fill="black"/>
<path opacity="0.1" d="M218.896 137.996C218.92 137.68 218.957 137.364 219.003 137.067L219.054 135.784C218.915 136.513 218.862 137.255 218.896 137.996Z" fill="black"/>
<path opacity="0.1" d="M232.98 143.541C231.713 144.219 230.097 143.652 229.021 142.704C227.944 141.756 227.215 140.478 226.263 139.4C226.193 139.595 226.183 139.807 226.235 140.008C226.287 140.208 226.399 140.389 226.556 140.525C226.463 140.525 226.375 140.478 226.286 140.455C227.215 141.524 227.953 142.778 229.021 143.708C230.088 144.637 231.713 145.223 232.98 144.544C234.247 143.866 234.609 142.277 234.498 140.729C234.414 141.947 233.978 143.002 232.98 143.541Z" fill="black"/>
<path opacity="0.1" d="M226.259 140.446C224.706 140.022 223.32 139.134 222.287 137.899C221.253 136.665 220.621 135.144 220.475 133.54C220.21 137.188 222.958 140.845 226.556 141.547C226.402 141.414 226.292 141.238 226.239 141.042C226.186 140.845 226.193 140.638 226.259 140.446Z" fill="black"/>
</g>
<path d="M449.184 216.401C449.184 216.401 447.355 216.145 447.355 213.482C447.355 210.819 446.046 205.833 446.046 205.833C446.046 205.833 444.913 197.156 443.349 195.781C441.785 194.405 439.775 186.328 439.775 186.328C439.775 186.328 439.431 181.946 438.73 181.002C438.029 180.059 437.082 177.749 435.685 174.454C434.288 171.159 428.476 168.901 428.476 168.901C428.476 168.901 417.944 162.785 414.959 160.791C414.686 160.626 414.431 160.433 414.198 160.215C413.678 159.537 411.412 159.523 411.412 159.523C411.176 158.022 410.948 156.302 410.874 154.745C410.874 154.578 410.874 154.411 410.874 154.243C414.202 152.274 416.709 149.168 417.934 145.497C417.99 145.321 418.037 145.139 418.088 144.958C418.291 144.895 418.479 144.79 418.639 144.649C418.799 144.508 418.928 144.334 419.016 144.14C419.281 143.541 419.29 142.844 419.624 142.281C420.014 141.621 420.757 141.268 421.342 140.775C422.818 139.516 423.198 137.402 423.129 135.482C423.082 133.921 422.832 132.35 422.929 130.802C422.929 130.672 422.929 130.542 422.957 130.412C422.985 130.184 423.017 129.947 423.059 129.724C423.287 128.572 423.783 127.484 424.062 126.341C424.34 125.198 424.368 123.911 423.718 122.925C422.767 121.48 420.785 121.192 419.044 121.066C417.071 120.899 415.33 121.113 414.044 119.472C413.455 118.616 412.79 117.813 412.058 117.074C411.798 116.833 409.273 115.285 409.273 115.188C406.802 114.037 403.999 113.821 401.381 114.579C400.068 114.96 398.837 115.583 397.505 115.894C394.646 116.572 391.35 115.838 388.918 117.479C387.562 118.408 386.75 119.891 385.988 121.327C385.369 122.51 384.741 123.695 384.104 124.882C383.073 126.829 382.033 128.809 381.602 130.965C381.511 131.436 381.454 131.913 381.43 132.392C381.43 132.564 381.43 132.736 381.43 132.908C381.43 132.982 381.43 133.056 381.43 133.131C381.43 133.289 381.43 133.447 381.458 133.595C381.486 133.744 381.458 133.786 381.49 133.884C381.523 133.981 381.532 134.2 381.56 134.348C381.588 134.497 381.644 134.762 381.699 134.962C381.699 135.05 381.755 135.134 381.783 135.222C381.811 135.31 381.885 135.533 381.945 135.687C382.006 135.84 382.01 135.849 382.047 135.928C382.117 136.091 382.201 136.249 382.284 136.393C382.321 136.454 382.349 136.514 382.386 136.574C382.514 136.792 382.656 137 382.813 137.197C383.802 138.438 385.269 139.228 386.351 140.39C386.351 140.436 386.351 140.483 386.351 140.529C386.351 140.655 386.351 140.78 386.351 140.91C386.417 143.502 387.114 146.038 388.383 148.297C389.652 150.557 391.452 152.472 393.629 153.876C393.629 154.053 393.652 154.234 393.662 154.415C393.752 155.793 393.735 157.176 393.611 158.551C393.421 158.329 393.184 158.152 392.918 158.033C392.651 157.914 392.361 157.856 392.069 157.864C391.87 157.854 391.67 157.871 391.475 157.915L391.433 157.882V157.924C390.412 158.175 389.154 159.239 387.952 162.265C387.952 162.265 384.294 166.391 381.509 166.219C378.724 166.047 371.673 170.518 371.673 170.518C371.673 170.518 364.793 174.984 363.317 179.538C362.492 182.122 361.501 184.649 360.351 187.104L351.824 204.634L350.259 218.576C350.259 218.576 351.127 224.761 350.956 225.709C350.784 226.657 354.525 235.162 354.525 235.162C354.525 235.162 366.887 256.902 371.937 258.017L372.299 257.766C372.516 257.876 372.745 257.96 372.982 258.017L374.021 257.287C374.086 258.104 374.058 258.926 373.938 259.737C373.246 261.888 374.203 275.895 375.419 278.642C376.635 281.388 376.203 317.405 376.203 317.405L376.031 320.579C376.031 320.579 376.031 320.681 376.073 320.858L376.031 321.611L376.157 321.676C376.287 322.685 376.244 323.71 376.031 324.706C375.595 326.1 375.419 330.036 375.419 330.036C375.419 330.036 371.937 352.287 373.59 356.758C375.242 361.229 376.64 366.127 376.64 366.127C376.64 366.127 378.38 371.704 376.723 372.633C375.066 373.562 370.373 375.212 371.329 377.531C372.211 379.678 375.558 385.432 376.055 386.273L376.013 386.738L375.331 394.141C375.441 395.118 375.706 396.072 376.115 396.966C376.862 398.583 378.311 400.252 381.077 400.071C381.541 400.038 382.075 399.987 382.6 399.917C387.655 399.234 393.875 396.975 393.875 396.975C393.553 396.771 393.258 396.526 392.998 396.246C392.749 396.005 392.552 395.716 392.419 395.396C392.286 395.077 392.219 394.733 392.223 394.387C392.297 393.035 389.776 386.617 389.145 385.032L389.001 384.679C389.001 384.679 394.748 378.661 393.792 373.335C393.792 373.335 387.432 369.617 389.526 367.572C391.619 365.527 395.361 359.672 395.361 359.672C395.361 359.672 395.532 337.76 395.361 334.493C395.182 332.22 395.289 329.935 395.681 327.689C395.75 327.355 395.834 327.025 395.922 326.695C398.82 327.132 401.746 327.355 404.677 327.359C405.748 327.359 406.831 327.338 407.926 327.294C407.926 327.604 407.94 327.939 407.968 328.298C408.209 333.726 408.66 343.248 409.026 346.785C409.546 351.85 412.42 365.518 412.42 365.518C412.42 365.518 406.938 369.036 413.376 377.722C413.376 377.722 413.376 380.863 412.949 381.323C412.493 382.814 412.125 384.33 411.849 385.864C411.58 387.495 411.468 389.154 411.904 390.009C412.949 392.063 419.216 391.896 419.216 391.896C419.266 391.884 419.317 391.876 419.369 391.873C420.552 391.748 421.748 391.86 422.886 392.203C424.025 392.546 425.085 393.113 426.002 393.871C428.383 395.786 437.417 394.949 442.314 394.336C444.231 394.09 445.512 393.871 445.512 393.871C445.574 393.654 445.596 393.427 445.577 393.202C445.526 391.998 444.584 389.359 438.197 387.002C438.197 387.002 432.19 382.959 432.273 379.437H432.139H431.447C431.883 379.423 432.19 379.423 432.19 379.423C432.19 379.423 429.836 370.83 430.797 370.128C431.758 369.426 428.88 359.904 428.88 359.904C428.88 359.904 427.232 343.917 427.139 342.802C427.146 341.841 427.293 340.886 427.576 339.967L427.139 331.198C427.139 331.198 427.056 328.284 427.139 327.336C427.13 326.513 427.065 325.692 426.944 324.878C426.903 324.552 426.861 324.213 426.814 323.878C429.066 323.307 430.528 322.782 430.528 322.782L430.268 292.272C432.181 288.554 432.533 280.394 432.524 274.613C432.524 270.895 432.357 268.144 432.357 268.144L434.97 263.873C434.97 263.873 435.574 258.761 434.618 257.641C434.195 257.134 434.385 256.609 434.734 256.177C434.917 256.026 435.111 255.89 435.314 255.768C435.291 255.735 435.271 255.701 435.254 255.666C435.436 255.513 435.63 255.375 435.834 255.252C435.834 255.252 434.905 253.811 435.736 253.203C436.516 253.732 437.212 254.155 437.742 254.457C437.705 254.797 437.667 254.992 437.667 254.992L437.89 254.527C438.401 254.815 438.712 254.992 438.712 254.992C438.712 254.992 442.806 246.826 442.718 245.627C442.63 244.428 445.503 239.354 445.503 239.354C445.503 239.354 445.851 236.686 447.42 235.571C448.989 234.455 448.636 226.374 448.636 226.374C448.636 226.374 449.073 222.163 450.117 220.448C451.162 218.734 449.184 216.401 449.184 216.401ZM370.846 212.818L370.925 214.765C370.461 214.017 370.127 213.482 370.127 213.482L370.846 212.818Z" fill="url(#paint1_linear)"/>
<path d="M438.953 251.46L437.95 255.735C437.95 255.735 429.92 251.622 428.476 246.417C427.033 241.213 430.895 239.228 430.895 239.228L438.382 242.398L438.953 251.46Z" fill="white"/>
<path opacity="0.1" d="M438.953 251.46L437.95 255.735C437.95 255.735 429.92 251.622 428.476 246.417C427.033 241.213 430.895 239.228 430.895 239.228L438.382 242.398L438.953 251.46Z" fill="black"/>
<path d="M393.884 396.971C393.884 396.971 386.457 399.703 381.351 400.047C378.64 400.229 377.215 398.565 376.481 396.961C376.083 396.077 375.823 395.137 375.711 394.173L376.384 386.807L376.737 382.89L387.585 380.064L389.122 384.772L389.265 385.125C389.878 386.7 392.357 393.086 392.283 394.419C392.277 394.764 392.341 395.107 392.471 395.427C392.601 395.746 392.794 396.036 393.039 396.278C393.291 396.544 393.574 396.777 393.884 396.971Z" fill="white"/>
<path d="M444.593 393.225C444.612 393.45 444.59 393.677 444.528 393.894C444.528 393.894 428.643 396.543 425.394 393.894C424.48 393.121 423.416 392.546 422.268 392.208C421.12 391.869 419.915 391.774 418.728 391.929C418.728 391.929 412.582 392.096 411.556 390.07C411.129 389.219 411.24 387.569 411.505 385.947C411.775 384.422 412.135 382.914 412.582 381.43L412.828 381.235L414.29 380.059L431.41 379.553H431.54C431.456 383.057 437.347 387.077 437.347 387.077C443.618 389.4 444.542 392.026 444.593 393.225Z" fill="white"/>
<path opacity="0.1" d="M444.598 393.225C444.614 393.451 444.591 393.677 444.528 393.894C444.528 393.894 428.643 396.543 425.399 393.894C424.485 393.12 423.419 392.545 422.271 392.207C421.122 391.868 419.915 391.773 418.728 391.929C418.728 391.929 412.578 392.096 411.552 390.07C411.129 389.219 411.236 387.569 411.501 385.943C413.868 386.18 417.605 386.77 419.072 388.183C421.29 390.321 425.05 392.458 427.353 392.63C429.173 392.742 439.993 393.086 444.598 393.225Z" fill="black"/>
<path opacity="0.1" d="M393.884 396.971C393.884 396.971 386.457 399.703 381.351 400.047C378.64 400.229 377.215 398.565 376.482 396.962C378.376 397.598 380.998 398.263 382.377 397.654C384.011 396.924 389.804 396.46 393.053 396.26C393.299 396.532 393.578 396.771 393.884 396.971Z" fill="black"/>
<path d="M404.904 176.741C398.777 174.357 390.895 166.48 392.863 162.799C393.298 161.869 393.558 160.867 393.629 159.843C393.756 158.453 393.774 157.054 393.685 155.661C393.547 153.377 393.272 151.103 392.863 148.852C392.863 148.852 411.993 149.285 410.879 152.106C410.554 152.937 410.498 154.373 410.591 155.977C410.684 157.58 410.911 159.406 411.152 160.945C411.482 163.05 411.821 164.662 411.821 164.662C411.821 164.662 410.646 166.303 409.964 166.391C409.282 166.48 413.696 180.157 404.904 176.741Z" fill="#CF6F80"/>
<path opacity="0.1" d="M389.247 385.102L389.103 385.26C383.384 378.335 376.468 386.97 376.468 386.97L376.365 386.784L376.718 382.866L387.567 380.041L389.103 384.748L389.247 385.102Z" fill="black"/>
<path opacity="0.1" d="M431.549 380.041C431.549 380.041 427.371 379.957 425.143 381.928C422.915 383.898 412.146 382.35 412.61 381.928C412.745 381.713 412.828 381.469 412.851 381.217L414.314 380.041L431.433 379.534C431.498 379.859 431.549 380.041 431.549 380.041Z" fill="black"/>
<path d="M396.363 325.663C396.053 326.433 395.816 327.232 395.658 328.047C395.271 330.28 395.163 332.553 395.337 334.814C395.509 338.067 395.337 359.867 395.337 359.867C395.337 359.867 391.666 365.681 389.614 367.73C387.562 369.78 393.792 373.46 393.792 373.46C394.72 378.763 389.094 384.749 389.094 384.749C383.375 377.824 376.459 386.454 376.459 386.454C376.459 386.454 372.699 379.948 371.761 377.624C370.823 375.301 375.433 373.697 377.053 372.749C378.673 371.801 376.969 366.243 376.969 366.243C376.969 366.243 375.604 361.368 373.98 356.921C372.355 352.473 375.772 330.338 375.772 330.338C375.772 330.338 375.948 326.402 376.37 325.031C376.581 324.041 376.623 323.023 376.496 322.02C376.468 321.68 376.435 321.401 376.412 321.206C376.389 321.011 376.37 320.927 376.37 320.927L376.435 320.816L378.756 316.485C378.756 316.485 397.477 322.935 396.363 325.663Z" fill="#118AB2"/>
<path d="M431.549 379.53C431.549 379.53 427.371 379.441 425.143 381.388C422.915 383.336 412.146 381.816 412.61 381.388C413.074 380.961 413.032 377.801 413.032 377.801C406.715 369.162 412.104 365.657 412.104 365.657C412.104 365.657 409.286 352.064 408.776 347.022C408.418 343.504 407.977 334.009 407.741 328.633C407.638 326.309 407.578 324.706 407.578 324.706L412.694 323.688L413.357 323.558L425.807 321.053C425.807 321.053 426.151 323.376 426.383 325.277C426.5 326.088 426.564 326.907 426.573 327.726C426.494 328.656 426.573 331.57 426.573 331.57L427 340.288C426.725 341.203 426.581 342.153 426.573 343.109C426.661 344.224 428.281 360.123 428.281 360.123C428.281 360.123 431.099 369.612 430.138 370.295C429.177 370.979 431.549 379.53 431.549 379.53Z" fill="#118AB2"/>
<path opacity="0.1" d="M410.878 152.119C410.554 152.951 410.498 154.387 410.591 155.991C408.028 157.535 405.083 158.325 402.092 158.269C399.102 158.213 396.188 157.314 393.685 155.675C393.546 153.391 393.272 151.117 392.863 148.866C392.863 148.866 411.993 149.299 410.878 152.119Z" fill="black"/>
<path d="M418.264 141.858C418.314 146.075 416.69 150.139 413.747 153.156C410.805 156.173 406.786 157.897 402.574 157.947C398.362 157.998 394.303 156.371 391.289 153.425C388.276 150.48 386.554 146.456 386.504 142.239C386.504 142.109 386.504 141.988 386.504 141.858C386.504 137.641 388.177 133.596 391.156 130.613C394.135 127.631 398.176 125.955 402.388 125.955C406.601 125.955 410.642 127.631 413.621 130.613C416.6 133.596 418.273 137.641 418.273 141.858H418.264Z" fill="#CF6F80"/>
<path opacity="0.1" d="M404.904 176.741C398.777 174.357 390.895 166.48 392.863 162.799C393.298 161.869 393.558 160.867 393.629 159.843L402.017 166.749L407.207 171.011L411.152 160.959C411.482 163.064 411.821 164.676 411.821 164.676C411.821 164.676 410.646 166.317 409.964 166.405C409.282 166.494 413.696 180.157 404.904 176.741Z" fill="black"/>
<path d="M426.596 207.259L419.591 325.068L410.456 325.668L386.796 257.357L390.677 176.257L391.498 159.123L402.017 167.772L407.207 172.033L411.268 161.684L418.821 168.273L426.596 207.259Z" fill="#118AB2"/>
<path opacity="0.1" d="M396.363 325.663C396.053 326.433 395.816 327.232 395.657 328.047C389.004 327.021 382.541 325.002 376.486 322.057L376.361 321.992L376.403 321.243V320.853L378.724 316.522C378.724 316.522 397.477 322.935 396.363 325.663Z" fill="black"/>
<path opacity="0.1" d="M412.847 328.065C411.148 328.356 409.434 328.553 407.713 328.656C407.611 326.332 407.55 324.729 407.55 324.729L412.694 323.688L412.847 328.065Z" fill="black"/>
<path opacity="0.1" d="M426.401 325.277C423.101 326.137 417.999 327.104 413.441 326.499L413.376 323.558L425.826 321.053C425.826 321.053 426.155 323.358 426.401 325.277Z" fill="black"/>
<path opacity="0.1" d="M413.357 327.038C394.325 330.292 376.895 320.964 376.895 320.964L377.062 317.804C377.062 317.804 377.494 281.978 376.296 279.232C375.098 276.485 374.165 262.576 374.843 260.452C375.521 258.328 372.369 226.262 372.369 226.262L371.858 213.25L353.156 205.642L361.511 188.201C362.64 185.756 363.61 183.241 364.417 180.672C365.87 176.141 372.615 171.694 372.615 171.694C372.615 171.694 379.531 167.251 382.266 167.418C385 167.586 388.583 163.487 388.583 163.487C391.229 156.734 393.624 159.769 393.624 159.769C393.624 160.094 393.624 159.769 393.494 160.768C392.566 168.18 408.507 191.603 408.734 192.021L410.27 229.041L411.807 275.89L413.357 327.038Z" fill="black"/>
<path d="M412.847 327.038C393.815 330.292 376.38 320.964 376.38 320.964L376.551 317.804C376.551 317.804 376.978 281.978 375.781 279.232C374.583 276.485 373.65 262.562 374.333 260.42C375.015 258.277 371.844 226.244 371.844 226.244L371.329 213.231L352.631 205.624L360.987 188.182C362.113 185.738 363.083 183.225 363.893 180.658C365.346 176.141 372.114 171.689 372.114 171.689C372.114 171.689 379.03 167.246 381.76 167.414C384.489 167.581 388.091 163.487 388.091 163.487C390.742 156.734 393.662 159.769 393.662 159.769C393.662 160.094 393.383 160.234 393.532 160.768C395.574 167.957 408.033 191.603 408.261 192.021L409.797 229.041L411.301 275.914L412.847 327.038Z" fill="white"/>
<path opacity="0.1" d="M407.717 193.067C405.67 192.212 394.827 179.817 394.827 179.817V176.996C394.432 176.067 392.083 176.634 390.185 177.285L391.002 160.15L391.93 160.921C393.958 168.106 407.494 192.653 407.717 193.067Z" fill="black"/>
<path d="M408.233 192.044C406.181 191.184 395.337 178.795 395.337 178.795V175.969C394.943 175.04 392.599 175.607 390.695 176.257L391.498 159.141L392.427 159.908C394.474 167.084 408.005 191.626 408.233 192.044Z" fill="white"/>
<path opacity="0.1" d="M376.895 253.853C377.15 253.853 390.129 252.487 390.129 252.487C390.129 252.487 397.988 267.962 397.473 271.722C396.957 275.482 396.024 278.818 392.863 278.228C389.702 277.638 375.85 278.693 375.85 278.693L376.895 253.853Z" fill="black"/>
<path d="M376.379 252.826C376.639 252.826 389.618 251.46 389.618 251.46C389.618 251.46 397.472 266.958 396.962 270.676C396.451 274.394 395.509 277.773 392.352 277.182C389.196 276.592 375.335 277.647 375.335 277.647L376.379 252.826Z" fill="white"/>
<path d="M386.16 245.581C386.16 245.581 398.071 251.994 398.327 253.946C398.582 255.898 392.264 253.091 390.9 252.747C390.001 252.533 389.086 252.39 388.165 252.319L379.062 252.566L386.16 245.581Z" fill="#CF6F80"/>
<path opacity="0.1" d="M404.389 193.866C405.081 193.866 405.642 193.304 405.642 192.611C405.642 191.918 405.081 191.356 404.389 191.356C403.697 191.356 403.136 191.918 403.136 192.611C403.136 193.304 403.697 193.866 404.389 193.866Z" fill="black"/>
<path d="M404.389 193.355C405.081 193.355 405.642 192.793 405.642 192.1C405.642 191.407 405.081 190.845 404.389 190.845C403.697 190.845 403.136 191.407 403.136 192.1C403.136 192.793 403.697 193.355 404.389 193.355Z" fill="#3F3D56"/>
<path opacity="0.1" d="M406.696 248.183C407.388 248.183 407.95 247.622 407.95 246.929C407.95 246.236 407.388 245.674 406.696 245.674C406.004 245.674 405.443 246.236 405.443 246.929C405.443 247.622 406.004 248.183 406.696 248.183Z" fill="black"/>
<path d="M406.696 247.668C407.388 247.668 407.95 247.106 407.95 246.413C407.95 245.72 407.388 245.158 406.696 245.158C406.004 245.158 405.443 245.72 405.443 246.413C405.443 247.106 406.004 247.668 406.696 247.668Z" fill="#3F3D56"/>
<path opacity="0.1" d="M405.643 221.025C406.335 221.025 406.896 220.463 406.896 219.77C406.896 219.077 406.335 218.515 405.643 218.515C404.95 218.515 404.389 219.077 404.389 219.77C404.389 220.463 404.95 221.025 405.643 221.025Z" fill="black"/>
<path d="M405.643 220.514C406.335 220.514 406.896 219.952 406.896 219.259C406.896 218.566 406.335 218.004 405.643 218.004C404.95 218.004 404.389 218.566 404.389 219.259C404.389 219.952 404.95 220.514 405.643 220.514Z" fill="#3F3D56"/>
<path d="M434.534 252.059C434.534 252.059 435.388 253.342 434.534 253.918C433.68 254.494 434.617 255.972 434.617 255.972C434.617 255.972 432.487 257.218 433.424 258.347C434.362 259.476 433.768 264.547 433.768 264.547L431.206 268.817C431.206 268.817 431.359 271.555 431.368 275.254C431.368 281.026 431.029 289.14 429.154 292.839L429.405 323.191C429.405 323.191 420.432 326.476 412.921 325.472L411.807 276.769C411.807 276.769 413.432 249.15 414.03 243.852C414.381 241.102 414.524 238.329 414.457 235.557C414.457 235.557 414.202 227.266 413.343 223.423C413.343 223.423 412.415 206.748 412.322 202.134C412.28 199.926 412.396 193.485 412.526 187.36C412.67 180.663 412.833 174.347 412.833 174.347L411.138 160.921C411.138 160.921 412.833 160.754 413.343 161.433C413.572 161.647 413.821 161.838 414.086 162.004C417.015 163.984 427.348 170.072 427.348 170.072C427.348 170.072 433.067 172.349 434.436 175.612C435.806 178.874 436.757 181.188 437.421 182.118C438.085 183.047 438.447 187.416 438.447 187.416C438.447 187.416 440.415 195.455 441.952 196.817C443.488 198.179 444.593 206.823 444.593 206.823L431.015 217.511C431.015 217.511 429.822 235.292 429.567 235.98C429.312 236.668 434.534 252.059 434.534 252.059Z" fill="white"/>
<path d="M435.049 252.059C435.049 252.059 435.899 253.342 435.049 253.918C434.2 254.495 435.128 255.972 435.128 255.972C435.128 255.972 432.997 257.218 433.935 258.347C434.873 259.476 434.279 264.547 434.279 264.547L431.726 268.817C431.726 268.817 431.879 271.555 431.893 275.254C431.893 281.026 431.554 289.14 429.678 292.839L429.934 323.191C429.934 323.191 420.961 326.476 413.45 325.472L412.341 276.769C412.341 276.769 413.961 249.15 414.564 243.852C414.915 241.102 415.056 238.329 414.987 235.557C414.987 235.557 414.731 227.266 413.877 223.423C413.877 223.423 412.949 206.748 412.851 202.134C412.81 199.926 412.926 193.485 413.056 187.36C413.199 180.663 413.362 174.347 413.362 174.347L411.125 160.74C411.125 160.74 413.362 160.74 413.877 161.433C414.104 161.649 414.353 161.841 414.62 162.004C417.544 163.984 427.877 170.072 427.877 170.072C427.877 170.072 433.582 172.349 434.975 175.612C436.367 178.874 437.296 181.188 437.96 182.118C438.623 183.047 438.986 187.416 438.986 187.416C438.986 187.416 440.954 195.455 442.49 196.817C444.027 198.179 445.136 206.823 445.136 206.823L431.558 217.511C431.558 217.511 430.365 235.292 430.105 235.98C429.846 236.668 435.049 252.059 435.049 252.059Z" fill="white"/>
<path opacity="0.1" d="M418.789 178.293L420.019 181.871L413.562 188.378C413.706 181.681 413.868 175.365 413.868 175.365L411.631 161.763C411.631 161.763 413.868 161.763 414.383 162.455C414.61 162.671 414.859 162.863 415.126 163.027L420.613 178.869L418.789 178.293Z" fill="black"/>
<path d="M418.264 177.266L419.494 180.84L413.042 187.346C413.181 180.649 413.348 174.334 413.348 174.334L411.106 160.726C411.106 160.726 413.348 160.726 413.859 161.419C414.086 161.634 414.335 161.825 414.601 161.99L420.121 177.847L418.264 177.266Z" fill="white"/>
<path opacity="0.1" d="M418.264 141.858C418.266 143.533 418.003 145.197 417.484 146.789C417.397 146.804 417.307 146.801 417.221 146.78C417.135 146.759 417.054 146.721 416.983 146.668C416.857 142.486 414.806 138.554 412.276 135.213C411.564 134.205 410.703 133.312 409.723 132.564C408.73 131.818 407.496 131.468 406.26 131.583C404.867 131.774 403.637 132.722 402.231 132.843C400.374 132.996 398.712 131.709 396.869 131.648C396.12 131.654 395.38 131.821 394.701 132.137C394.021 132.453 393.417 132.91 392.928 133.479C391.959 134.624 391.24 135.958 390.816 137.397C390.086 139.58 389.689 141.861 389.637 144.163C389.614 145.465 389.488 147.096 388.282 147.57C388.373 146.614 388.264 145.649 387.963 144.737C387.662 143.825 387.174 142.985 386.532 142.272L386.504 142.239C386.504 142.109 386.504 141.988 386.504 141.858C386.504 137.641 388.177 133.596 391.156 130.613C394.135 127.631 398.176 125.955 402.388 125.955C406.601 125.955 410.642 127.631 413.621 130.613C416.6 133.596 418.273 137.641 418.273 141.858H418.264Z" fill="black"/>
<path d="M408.98 116.61C406.568 115.474 403.824 115.259 401.265 116.005C399.979 116.387 398.768 117.005 397.463 117.316C394.678 117.99 391.429 117.26 389.038 118.891C387.711 119.821 386.912 121.289 386.169 122.721L384.313 126.257C383.301 128.195 382.279 130.166 381.857 132.299C381.435 134.432 381.69 136.821 383.041 138.54C384.02 139.786 385.478 140.571 386.545 141.747C387.187 142.464 387.673 143.306 387.973 144.22C388.274 145.134 388.382 146.101 388.291 147.059C389.498 146.594 389.618 144.953 389.646 143.652C389.698 141.35 390.096 139.069 390.825 136.886C391.249 135.447 391.968 134.112 392.937 132.968C393.426 132.399 394.03 131.94 394.71 131.624C395.389 131.307 396.129 131.14 396.878 131.132C398.735 131.197 400.402 132.485 402.24 132.327C403.632 132.211 404.867 131.263 406.269 131.072C407.505 130.955 408.74 131.305 409.732 132.053C410.713 132.798 411.573 133.692 412.28 134.702C414.815 138.048 416.871 141.961 416.992 146.157C417.517 146.538 418.273 146.036 418.533 145.441C418.793 144.847 418.802 144.149 419.132 143.582C419.513 142.927 420.241 142.574 420.812 142.081C422.261 140.831 422.623 138.726 422.567 136.816C422.511 134.906 422.14 132.968 422.502 131.091C422.72 129.943 423.212 128.86 423.481 127.721C423.751 126.583 423.783 125.305 423.147 124.324C422.219 122.888 420.265 122.6 418.561 122.465C416.625 122.298 414.894 122.512 413.659 120.881C413.078 120.03 412.426 119.231 411.709 118.492C411.454 118.245 408.98 116.712 408.98 116.61Z" fill="#512E4E"/>
<path opacity="0.1" d="M358.513 214.611L353.666 205.638L352.13 219.486C352.13 219.486 352.984 225.639 352.812 226.583C352.64 227.526 356.312 235.984 356.312 235.984C356.312 235.984 368.442 257.617 373.395 258.728L390.106 246.757L385.668 241.115C385.668 241.115 384.132 240.515 383.746 241.115C383.746 241.115 375.502 226.922 374.653 225.9C373.803 224.877 373.966 222.819 373.966 222.819C373.966 222.819 372.684 221.452 373.112 220.17C373.539 218.887 370.661 214.444 370.661 214.444L373.306 211.967L358.513 214.611Z" fill="black"/>
<path d="M353.922 204.611L352.64 205.638L351.104 219.487C351.104 219.487 351.958 225.64 351.786 226.583C351.615 227.526 355.291 235.984 355.291 235.984C355.291 235.984 367.416 257.617 372.369 258.728L389.108 246.757L384.665 241.115C384.665 241.115 383.129 240.515 382.744 241.115C382.744 241.115 374.504 226.922 373.65 225.9C372.796 224.877 372.968 222.819 372.968 222.819C372.968 222.819 371.686 221.452 372.114 220.17C372.541 218.887 369.635 214.444 369.635 214.444L372.281 211.967L353.922 204.611Z" fill="white"/>
<path opacity="0.1" d="M433.425 258.882C434.353 260.011 433.768 265.086 433.768 265.086L431.206 269.329C431.206 269.329 431.359 272.071 431.368 275.77L427.06 277.117C426.671 277.239 426.257 277.266 425.855 277.195C425.453 277.124 425.073 276.958 424.748 276.711C424.423 276.464 424.161 276.142 423.985 275.773C423.809 275.404 423.724 274.998 423.737 274.589L424.484 250.609L434.534 254.453C433.68 255.048 434.618 256.507 434.618 256.507C434.618 256.507 432.487 257.752 433.425 258.882Z" fill="black"/>
<path d="M433.935 258.37C434.863 259.495 434.279 264.57 434.279 264.57L431.725 268.817C431.725 268.817 431.879 271.555 431.893 275.254L427.506 276.625C427.125 276.744 426.721 276.771 426.328 276.702C425.934 276.634 425.563 276.472 425.245 276.23C424.927 275.989 424.672 275.675 424.5 275.314C424.328 274.953 424.244 274.557 424.257 274.157L425.004 250.094L435.049 253.946C434.19 254.541 435.128 256 435.128 256C435.128 256 432.997 257.241 433.935 258.37Z" fill="white"/>
<path d="M437.268 246.929C437.268 246.929 436.586 251.293 434.878 251.548C433.169 251.804 432.403 258.607 430.7 258.37C428.996 258.133 430.124 252.041 430.185 250.86C430.245 249.68 428.328 244.791 429.758 243.68C431.187 242.57 435.736 243.68 435.736 243.68L437.268 246.929Z" fill="#CF6F80"/>
<path opacity="0.1" d="M440.88 213.329L444.096 206.823C444.096 206.823 445.382 211.781 445.382 214.43C445.382 217.079 447.174 217.339 447.174 217.339C447.174 217.339 449.138 219.663 448.102 221.359C447.067 223.056 446.654 227.257 446.654 227.257C446.654 227.257 446.993 235.292 445.457 236.403C443.92 237.513 443.577 240.167 443.577 240.167C443.577 240.167 440.759 245.209 440.847 246.408C440.935 247.607 436.92 255.726 436.92 255.726C436.92 255.726 438.884 245.637 427.441 241.278C427.441 241.278 427.353 237.857 428.207 236.918C429.061 235.98 430.393 235.524 429.558 230.803C428.722 226.081 429.316 220.388 429.316 219.249C429.316 218.111 431.879 211.014 431.879 211.014L440.88 213.329Z" fill="black"/>
<path d="M442.309 205.893L445.122 206.823C445.122 206.823 446.408 211.781 446.408 214.43C446.408 217.079 448.2 217.339 448.2 217.339C448.2 217.339 450.164 219.663 449.128 221.359C448.093 223.056 447.675 227.257 447.675 227.257C447.675 227.257 448.019 235.292 446.483 236.403C444.946 237.513 444.626 240.167 444.626 240.167C444.626 240.167 441.808 245.209 441.896 246.408C441.984 247.607 437.965 255.726 437.965 255.726C437.965 255.726 439.928 245.637 428.486 241.278C428.486 241.278 428.402 237.857 429.256 236.918C430.11 235.98 431.443 235.524 430.607 230.803C429.771 226.081 430.366 220.388 430.366 219.249C430.366 218.111 432.928 211.014 432.928 211.014L442.309 205.893Z" fill="white"/>
<path opacity="0.1" d="M380.163 374.529C380.163 374.529 384.647 371.708 387.59 373.758C390.533 375.807 380.163 374.529 380.163 374.529Z" fill="black"/>
<path opacity="0.1" d="M415.015 365.806C415.015 365.806 418.984 365.295 422.316 368.887C425.649 372.48 415.015 365.806 415.015 365.806Z" fill="black"/>
<g opacity="0.1">
<path opacity="0.1" d="M420.812 141.059C420.241 141.556 419.508 141.905 419.127 142.56C418.802 143.122 418.793 143.819 418.533 144.419C418.273 145.018 417.517 145.516 416.987 145.135C416.867 140.952 414.81 137.025 412.28 133.679C411.573 132.671 410.713 131.779 409.732 131.035C408.739 130.285 407.503 129.934 406.264 130.05C404.872 130.24 403.646 131.188 402.24 131.309C400.383 131.462 398.717 130.175 396.874 130.115C396.125 130.12 395.386 130.287 394.707 130.603C394.028 130.918 393.425 131.376 392.937 131.946C391.968 133.09 391.249 134.424 390.825 135.863C390.096 138.047 389.698 140.328 389.646 142.63C389.618 143.926 389.498 145.544 388.3 146.027C388.328 146.372 388.328 146.718 388.3 147.063C389.512 146.599 389.632 144.958 389.66 143.657C389.712 141.355 390.11 139.074 390.839 136.89C391.263 135.451 391.982 134.117 392.951 132.973C393.439 132.404 394.042 131.945 394.721 131.629C395.4 131.312 396.139 131.144 396.888 131.137C398.744 131.202 400.416 132.489 402.254 132.331C403.646 132.215 404.881 131.267 406.278 131.077C407.516 130.96 408.752 131.309 409.746 132.057C410.727 132.803 411.587 133.696 412.294 134.706C414.824 138.052 416.881 141.965 417.001 146.162C417.53 146.543 418.287 146.041 418.547 145.446C418.807 144.851 418.816 144.154 419.141 143.587C419.522 142.932 420.255 142.579 420.826 142.086C422.275 140.836 422.637 138.731 422.581 136.821C422.581 136.76 422.581 136.704 422.581 136.644C422.488 138.308 422.047 139.995 420.812 141.059Z" fill="black"/>
<path opacity="0.1" d="M386.541 140.734C385.478 139.558 384.02 138.768 383.041 137.522C382.213 136.423 381.742 135.096 381.69 133.721C381.544 135.441 382.024 137.155 383.041 138.549C384.02 139.795 385.478 140.58 386.541 141.756C387.567 142.905 388.185 144.363 388.295 145.901C388.365 144.966 388.246 144.026 387.944 143.138C387.643 142.25 387.165 141.432 386.541 140.734Z" fill="black"/>
<path opacity="0.1" d="M423.481 126.699C423.208 127.837 422.72 128.92 422.497 130.068C422.364 130.844 422.315 131.633 422.353 132.42C422.369 131.975 422.417 131.532 422.497 131.095C422.72 129.947 423.208 128.864 423.481 127.726C423.639 127.097 423.691 126.447 423.635 125.802C423.605 126.104 423.554 126.404 423.481 126.699Z" fill="black"/>
</g>
<path opacity="0.1" d="M61.6129 389.851C86.5934 389.851 106.844 386.595 106.844 382.578C106.844 378.561 86.5934 375.305 61.6129 375.305C36.6323 375.305 16.3816 378.561 16.3816 382.578C16.3816 386.595 36.6323 389.851 61.6129 389.851Z" fill="#118AB2"/>
<path d="M63.0704 243.248H60.1599V308.854H63.0704V243.248Z" fill="#535461"/>
<path d="M81.3643 308.658L81.1786 311.614L80.9233 315.797L80.8166 317.535L80.5566 321.717L80.4452 323.455L80.1899 327.638L77.2515 375.073C77.1262 377.114 76.228 379.03 74.7401 380.431C73.2522 381.831 71.2865 382.611 69.2441 382.611H53.986C51.938 382.612 49.9673 381.828 48.4782 380.42C46.9892 379.012 46.0948 377.087 45.9786 375.04L43.0403 327.605L42.785 323.423L42.6782 321.685L42.4136 317.502L42.3068 315.764L42.0515 311.582L41.8658 308.626C41.8337 308.059 41.9171 307.492 42.1108 306.959C42.3046 306.426 42.6047 305.938 42.993 305.524C43.3812 305.111 43.8494 304.781 44.369 304.554C44.8887 304.328 45.449 304.209 46.0158 304.206H77.219C77.7883 304.21 78.351 304.329 78.8724 304.558C79.3938 304.787 79.863 305.12 80.2512 305.537C80.6394 305.954 80.9384 306.446 81.1298 306.983C81.3212 307.519 81.401 308.09 81.3643 308.658Z" fill="#3F3D56"/>
<path d="M81.1786 311.609L80.9187 315.783H42.3068L42.0469 311.609H81.1786Z" fill="#9D9CB5"/>
<path d="M80.8119 317.521L80.5566 321.694H42.6735L42.4136 317.521H80.8119Z" fill="#9D9CB5"/>
<path d="M80.4451 323.437L80.1898 327.605H43.0402L42.7803 323.437H80.4451Z" fill="#9D9CB5"/>
<path d="M37.6232 267.841C54.5756 280.12 61.636 299.322 61.636 299.322C61.636 299.322 41.2114 298.62 24.2543 286.342C7.29724 274.064 0.227539 254.875 0.227539 254.875C0.227539 254.875 20.6522 255.563 37.6232 267.841Z" fill="#089F4D"/>
<path d="M0.227539 254.875C0.227539 254.875 21.4274 266.656 28.2278 276.411C35.0283 286.166 61.6175 299.331 61.6175 299.331" stroke="#535461" stroke-width="2" stroke-miterlimit="10"/>
<path d="M48.5457 243.109C57.7739 249.787 61.6174 260.238 61.6174 260.238C61.6174 260.238 50.4767 259.857 41.2717 253.179C32.0667 246.501 28.2 236.045 28.2 236.045C28.2 236.045 39.3221 236.426 48.5457 243.109Z" fill="#089F4D"/>
<path d="M28.2 236.045C28.2 236.045 39.7399 242.458 43.4442 247.765C47.1484 253.072 61.6174 260.238 61.6174 260.238" stroke="#535461" stroke-width="2" stroke-miterlimit="10"/>
<path d="M75.0233 259.709C64.4257 271.369 62.1836 286.607 62.1836 286.607C62.1836 286.607 77.1261 282.936 87.7144 271.271C98.3027 259.606 100.554 244.373 100.554 244.373C100.554 244.373 85.6209 248.049 75.0233 259.709Z" fill="#089F4D"/>
<path d="M100.563 244.377C100.563 244.377 86.7581 256.33 83.2488 264.565C79.7395 272.8 62.1836 286.607 62.1836 286.607" stroke="#535461" stroke-width="2" stroke-miterlimit="10"/>
</g>
<defs>
<linearGradient id="paint0_linear" x1="216.097" y1="388.308" x2="216.097" y2="119.858" gradientUnits="userSpaceOnUse">
<stop stop-color="#808080" stop-opacity="0.25"/>
<stop offset="0.54" stop-color="#808080" stop-opacity="0.12"/>
<stop offset="1" stop-color="#808080" stop-opacity="0.1"/>
</linearGradient>
<linearGradient id="paint1_linear" x1="88326.8" y1="251581" x2="88326.8" y2="75624.9" gradientUnits="userSpaceOnUse">
<stop stop-color="#808080" stop-opacity="0.25"/>
<stop offset="0.54" stop-color="#808080" stop-opacity="0.12"/>
<stop offset="1" stop-color="#808080" stop-opacity="0.1"/>
</linearGradient>
<clipPath id="clip0">
<rect width="542" height="401" fill="white"/>
</clipPath>
</defs>
</svg>
