<svg width="24" height="24" viewBox="0 0 24 24" fill="none" xmlns="http://www.w3.org/2000/svg">
<path d="M22 2.15781V20.8375C22 21.4797 21.4797 21.9953 20.8422 21.9953H15.4891V13.8672H18.2172L18.625 10.6984H15.4844V8.67344C15.4844 7.75469 15.7375 7.13125 17.0547 7.13125H18.7328V4.29531C18.4422 4.25781 17.4484 4.16875 16.2859 4.16875C13.8672 4.16875 12.2078 5.64531 12.2078 8.35938V10.6984H9.47031V13.8672H12.2078V22H2.15781C1.52031 22 1 21.4797 1 20.8422V2.15781C1 1.52031 1.52031 1 2.15781 1H20.8375C21.4797 1 22 1.52031 22 2.15781Z" fill="white"/>
</svg>
