<svg width="1440" height="829" viewBox="0 0 1440 829" fill="none" xmlns="http://www.w3.org/2000/svg">
<path fill-rule="evenodd" clip-rule="evenodd" d="M1440 0H0V752.634C66.5755 790.782 208.218 860.941 356 812C542.179 750.344 590 738 728 762C764.452 768.339 799.927 779.423 835.604 790.571C934.996 821.625 1035.96 853.171 1164 784C1237.2 744.457 1403.85 775.209 1440 782.534V0Z" fill="#073B4C"/>
<g clip-path="url(#clip0)">
<path opacity="0.1" d="M914.525 640.784C940.969 640.784 962.406 637.347 962.406 633.106C962.406 628.866 940.969 625.429 914.525 625.429C888.081 625.429 866.644 628.866 866.644 633.106C866.644 637.347 888.081 640.784 914.525 640.784Z" fill="#118AB2"/>
<path opacity="0.1" d="M1174.8 641C1207.79 641 1234.54 637.563 1234.54 633.322C1234.54 629.082 1207.79 625.645 1174.8 625.645C1141.8 625.645 1115.05 629.082 1115.05 633.322C1115.05 637.563 1141.8 641 1174.8 641Z" fill="#118AB2"/>
<path opacity="0.1" d="M740.801 422.916H790.671V490.778H744.452C744.329 491.475 744.211 492.176 744.083 492.878H790.671V547.607C790.588 547.583 790.514 547.553 790.436 547.524C789.119 547.004 787.812 546.455 786.504 545.866L785.669 545.488C784.359 544.87 783.048 544.216 781.738 543.526C781.281 543.285 780.824 543.035 780.372 542.78C773.097 538.712 766.489 533.557 760.776 527.493C760.608 527.332 760.451 527.16 760.284 527.003C759.488 526.139 758.707 525.266 757.95 524.373L757.115 523.392C756.22 522.298 755.356 521.175 754.515 520.037C754.392 519.87 754.275 519.703 754.147 519.546C750.729 514.815 747.892 509.693 745.695 504.289C745.626 504.127 745.567 503.95 745.503 503.798C744.828 502.065 744.231 500.315 743.71 498.549C743.484 497.808 743.268 497.077 743.081 496.307C743.012 496.081 742.953 495.861 742.899 495.64C740.108 484.764 739.779 473.465 739.779 462.246C739.779 460.936 739.779 459.621 739.779 458.321C739.779 453.783 739.833 449.216 739.911 444.653C739.911 443.471 739.96 442.294 739.985 441.106C740.054 438.094 740.152 435.082 740.28 432.07C740.309 431.231 740.349 430.397 740.393 429.563C740.393 429.082 740.417 428.601 740.467 428.121C740.585 426.374 740.683 424.642 740.801 422.916Z" fill="#118AB2"/>
<path opacity="0.1" d="M790.671 347.356H763.316C767.763 340.407 772.621 333.73 777.866 327.36C781.93 322.375 786.22 317.518 790.671 312.838V347.356Z" fill="#118AB2"/>
<path opacity="0.1" d="M790.671 349.456V420.816H740.958C740.958 420.61 740.992 420.399 741.007 420.193C741.051 419.629 741.096 419.065 741.145 418.505C741.199 417.848 741.258 417.186 741.322 416.543C741.386 415.9 741.454 415.115 741.528 414.404C741.602 413.693 741.671 412.971 741.754 412.26C741.838 411.549 741.911 410.837 742 410.131C742.088 409.425 742.167 408.708 742.26 408.002C742.334 407.413 742.413 406.829 742.491 406.241C742.604 405.412 742.722 404.578 742.85 403.753C742.85 403.631 742.884 403.503 742.904 403.385C743.801 397.352 745.023 391.371 746.565 385.469C748.179 379.278 750.24 373.212 752.732 367.318C755.38 361.152 758.481 355.19 762.009 349.48L790.671 349.456Z" fill="#118AB2"/>
<path opacity="0.1" d="M802.578 422.911V490.778H909.095V422.911H802.578ZM802.578 492.873V551.154C803.187 551.282 803.791 551.404 804.391 551.508C805.207 551.665 806.017 551.807 806.848 551.929C807.005 551.954 807.167 551.979 807.339 551.993C807.663 552.047 807.998 552.091 808.322 552.135C809.143 552.248 809.958 552.342 810.779 552.415C811.167 552.454 811.56 552.489 811.953 552.518L812.902 552.592C813.418 552.631 813.929 552.66 814.435 552.675C814.749 552.675 815.064 552.705 815.388 552.714C815.634 552.714 815.879 552.714 816.135 552.714C816.39 552.714 816.754 552.714 817.064 552.714C817.486 552.714 817.909 552.714 818.327 552.714H818.892C819.314 552.714 819.737 552.714 820.154 552.675H820.184C820.474 552.675 820.769 552.675 821.064 552.636C821.145 552.641 821.227 552.641 821.309 552.636C821.555 552.636 821.801 552.636 822.036 552.602H822.208L823.855 552.474C824.395 552.425 824.941 552.361 825.491 552.302L826.611 552.17C831.169 551.532 835.677 550.575 840.1 549.305C850.036 546.538 859.755 542.667 869.686 539.832C882.526 536.177 896.712 534.381 909.12 538.85V492.873H802.578ZM909.095 347.356V257.005C897.433 256.879 885.803 258.241 874.487 261.057C847.515 267.822 823.314 282.496 802.578 301.236V347.351H807.924V349.446H802.578V420.816H909.095V349.451H829.874V347.356H909.095ZM1045.91 316.837C1039.24 316.601 1032.6 314.492 1026.6 311.234C1015.13 305.004 1005.97 295.383 995.726 287.264C974.449 270.354 948.062 260.15 920.992 257.618V347.356H1073.05L1073.43 346.958L1045.91 316.837ZM1059.76 314.384L1074.45 330.475V310.165C1069.53 310.773 1065.22 312.22 1059.78 314.364L1059.76 314.384ZM1074.45 565.627V492.873H1043.15C1043.07 492.564 1042.99 492.25 1042.89 491.936C1042.98 492.25 1043.06 492.564 1043.15 492.873H921.011V545.488C922.171 546.347 923.316 547.249 924.451 548.167C925.674 549.148 926.883 550.183 928.097 551.198L929.321 552.209C929.905 552.7 930.495 553.19 931.09 553.651C932.269 554.606 933.46 555.548 934.662 556.477C935.256 556.968 935.866 557.409 936.47 557.87C946.066 565.195 956.188 571.804 966.754 577.646C969.123 578.954 971.512 580.231 973.924 581.477C975.53 582.297 977.147 583.111 978.769 583.901C981.206 585.088 983.663 586.233 986.139 587.335C1008.97 597.568 1033.12 604.589 1057.88 608.199C1063.38 609.011 1068.9 609.648 1074.45 610.113V565.622H1074.94L1074.45 565.627ZM921.011 349.451V420.816H1074.47V349.451H921.011ZM921.011 422.911V490.778H1074.47V422.911H921.011ZM1086.38 310.076V332.731L1105.13 312.196C1098.92 311.195 1092.67 310.48 1086.38 310.052V310.076ZM1086.38 422.935V490.778H1235.64V422.911L1086.38 422.935ZM1235.09 571.013L1235.62 492.873H1086.38V610.893C1096 611.296 1105.62 611.181 1115.23 610.549H1115.39C1119.98 610.262 1124.54 609.843 1129.09 609.293H1129.19C1153.43 606.477 1177.13 600.163 1199.56 590.548L1235.09 571.013ZM1264.42 434.086C1263.86 432.767 1263.28 431.457 1262.68 430.162C1261.57 427.709 1260.4 425.324 1259.19 422.94H1247.54V490.778H1276.99C1276.97 471.567 1272.1 451.943 1264.44 434.062L1264.42 434.086ZM1247.54 492.897V560.107C1255.84 552.17 1262.84 543.089 1267.89 532.708C1273.96 520.208 1276.73 506.673 1276.96 492.888L1247.54 492.897ZM1247.54 403.16V420.821H1258.1C1254.9 414.741 1251.38 408.837 1247.56 403.135L1247.54 403.16ZM1146.32 323.391C1145.54 323.096 1144.76 322.797 1143.98 322.508C1135.74 319.47 1127.32 316.943 1118.77 314.943L1090.08 346.375L1089.53 346.958L1089.9 347.361H1192C1177.78 337.589 1162.45 329.534 1146.33 323.366L1146.32 323.391ZM1194.99 349.475H1088.48L1086.38 351.388V420.816H1104.73H1104.76H1235.66V387.186C1223.82 372.889 1210.15 360.202 1195.01 349.451L1194.99 349.475Z" fill="#118AB2"/>
<path opacity="0.1" d="M790.671 385.45V420.816H740.958C740.958 420.61 740.992 420.399 741.007 420.193C741.051 419.629 741.096 419.065 741.145 418.505C741.199 417.848 741.258 417.186 741.322 416.543C741.386 415.9 741.454 415.115 741.528 414.404C741.602 413.693 741.671 412.971 741.754 412.26C741.838 411.549 741.911 410.837 742 410.131C742.088 409.425 742.167 408.708 742.26 408.002C742.334 407.413 742.413 406.829 742.491 406.241C742.604 405.412 742.722 404.578 742.85 403.753C742.85 403.631 742.884 403.503 742.904 403.385C743.801 397.352 745.023 391.371 746.565 385.469L790.671 385.45Z" fill="#118AB2"/>
<path opacity="0.1" d="M740.801 422.916H790.671V490.778H744.452C744.329 491.475 744.211 492.176 744.083 492.878H790.671V547.607C790.588 547.583 790.514 547.553 790.436 547.524C789.119 547.004 787.812 546.455 786.504 545.866L785.669 545.488C784.359 544.87 783.048 544.216 781.738 543.526C781.281 543.285 780.824 543.035 780.372 542.78C773.097 538.712 766.489 533.557 760.776 527.493C760.608 527.332 760.451 527.16 760.284 527.003C759.488 526.139 758.707 525.266 757.95 524.373L757.115 523.392C756.22 522.298 755.356 521.175 754.515 520.037C754.392 519.87 754.275 519.703 754.147 519.546C750.729 514.815 747.892 509.693 745.695 504.289C745.626 504.127 745.567 503.95 745.503 503.798C744.828 502.065 744.231 500.315 743.71 498.549C743.484 497.808 743.268 497.077 743.081 496.307C743.012 496.081 742.953 495.861 742.899 495.64C740.108 484.764 739.779 473.465 739.779 462.246C739.779 460.936 739.779 459.621 739.779 458.321C739.779 453.783 739.833 449.216 739.911 444.653C739.911 443.471 739.96 442.294 739.985 441.106C740.054 438.094 740.152 435.082 740.28 432.07C740.309 431.231 740.349 430.397 740.393 429.563C740.393 429.082 740.417 428.601 740.467 428.121C740.585 426.374 740.683 424.642 740.801 422.916Z" fill="#118AB2"/>
<path opacity="0.1" d="M840.075 359.669V420.816H802.578V359.669H807.924V338.967H829.869V359.669H840.075Z" fill="#118AB2"/>
<path opacity="0.1" d="M840.075 422.911H802.583V490.773H840.075V422.911Z" fill="#118AB2"/>
<path opacity="0.1" d="M802.578 492.878H840.075V549.295C835.652 550.564 831.145 551.52 826.587 552.155L825.466 552.293C824.916 552.356 824.371 552.41 823.83 552.464C823.29 552.518 822.729 552.557 822.184 552.592H822.012C821.776 552.592 821.521 552.621 821.29 552.626H821.039C820.744 552.626 820.449 552.656 820.154 552.665C819.737 552.69 819.319 552.695 818.892 552.7C818.71 552.7 818.538 552.7 818.356 552.7C817.933 552.7 817.516 552.7 817.093 552.7H816.164C815.914 552.7 815.673 552.7 815.413 552.7L814.464 552.665C813.973 552.665 813.442 552.611 812.931 552.577L811.988 552.508L810.813 552.4C809.988 552.327 809.167 552.234 808.356 552.121L807.374 551.983L806.882 551.915C806.062 551.787 805.251 551.65 804.425 551.493C803.821 551.39 803.221 551.262 802.612 551.14L802.578 492.878Z" fill="#118AB2"/>
<path opacity="0.1" d="M1074.47 352.448H1043.55V420.811H1074.47V352.448Z" fill="#118AB2"/>
<path opacity="0.1" d="M1074.48 422.911V490.778H921.011V461.505H1002.75V478.774H1043.55V422.911H1074.48Z" fill="#118AB2"/>
<path opacity="0.1" d="M1074.96 565.641H1074.47V610.162C1068.93 609.694 1063.41 609.058 1057.91 608.253C1033.13 604.632 1008.98 597.595 986.139 587.345C979.545 584.382 973.085 581.147 966.759 577.641C956.193 571.797 946.069 565.187 936.47 557.866C934.059 556.021 931.679 554.134 929.33 552.204C927.704 550.865 926.087 549.491 924.451 548.157C923.316 547.24 922.171 546.337 921.011 545.473V492.878H1043.14C1043.06 492.564 1042.98 492.25 1042.89 491.941C1042.98 492.25 1043.07 492.564 1043.15 492.878H1074.47V565.612C1074.64 565.617 1074.8 565.632 1074.96 565.641Z" fill="#118AB2"/>
<path opacity="0.1" d="M1155.11 347.356H1134.96V341.106H1143.99V322.488C1144.77 322.773 1145.55 323.065 1146.33 323.366V341.106H1155.11V347.356Z" fill="#118AB2"/>
<path opacity="0.1" d="M1203.65 420.816H1104.74C1104.74 420.816 1104.74 420.816 1104.77 420.84L1104.73 420.816H1086.38V352.453H1091.58V402.983H1115.34V373.058H1134.97V349.456H1155.11V373.077H1174.74V403.003H1203.65V420.816Z" fill="#118AB2"/>
<path opacity="0.1" d="M1086.38 422.911V490.778H1203.65V422.911H1086.38ZM1235.48 570.665L1235.64 516.946H1203.65V492.907H1086.38V610.893C1096 611.296 1105.62 611.181 1115.23 610.549H1115.39C1119.98 610.262 1124.54 609.843 1129.09 609.294H1129.19C1153.43 606.477 1177.13 600.163 1199.56 590.548" fill="#118AB2"/>
<path opacity="0.1" d="M1249.62 492.878H1276.98C1276.74 506.658 1273.97 520.194 1267.9 532.694C1262.86 543.079 1255.85 552.16 1247.56 560.093V516.921H1249.62V492.878Z" fill="#118AB2"/>
<path opacity="0.1" d="M1277 490.778H1249.62V434.062H1264.44C1272.1 451.943 1276.97 471.567 1277 490.778Z" fill="#118AB2"/>
<path opacity="0.1" d="M1074.48 371.453H1057.91V392.887H1074.48V371.453Z" fill="#118AB2"/>
<path opacity="0.1" d="M1074.48 415.881H1057.91V420.816H1074.48V415.881Z" fill="#118AB2"/>
<path opacity="0.1" d="M1074.48 422.911H1057.91V437.309H1074.48V422.911Z" fill="#118AB2"/>
<path opacity="0.1" d="M1074.48 460.308H1057.91V481.742H1074.48V460.308Z" fill="#118AB2"/>
<path opacity="0.1" d="M1074.48 504.735H1057.91V526.169H1074.48V504.735Z" fill="#118AB2"/>
<path opacity="0.1" d="M1074.47 565.612C1074.64 565.612 1074.8 565.612 1074.96 565.641H1074.47V570.621H1057.91V549.163H1074.47V565.612Z" fill="#118AB2"/>
<path opacity="0.1" d="M1074.47 593.58V610.137C1068.93 609.67 1063.41 609.034 1057.91 608.229V593.58H1074.47Z" fill="#118AB2"/>
<path opacity="0.1" d="M992.002 489.203H921.011V490.778H992.002V489.203Z" fill="#118AB2"/>
<path opacity="0.1" d="M992.002 492.873H921.011V498.907H992.002V492.873Z" fill="#118AB2"/>
<path opacity="0.1" d="M992.002 518.688H921.011V528.391H992.002V518.688Z" fill="#118AB2"/>
<path opacity="0.1" d="M991.997 548.172V557.875H936.47C934.059 556.037 931.678 554.15 929.325 552.214C927.699 550.875 926.087 549.501 924.446 548.172H991.997Z" fill="#118AB2"/>
<path opacity="0.1" d="M991.997 577.651V587.345H986.134C979.547 584.378 973.088 581.142 966.759 577.636L991.997 577.651Z" fill="#118AB2"/>
<path opacity="0.1" d="M1129.21 429.489H1115.23V443.442H1129.21V429.489Z" fill="#118AB2"/>
<path opacity="0.1" d="M826.621 364.482H812.646V378.434H826.621V364.482Z" fill="#118AB2"/>
<path opacity="0.1" d="M826.621 396.89H812.646V410.842H826.621V396.89Z" fill="#118AB2"/>
<path opacity="0.1" d="M826.621 429.298H812.646V443.25H826.621V429.298Z" fill="#118AB2"/>
<path opacity="0.1" d="M826.621 461.701H812.646V475.653H826.621V461.701Z" fill="#118AB2"/>
<path opacity="0.1" d="M826.621 494.109H812.646V508.061H826.621V494.109Z" fill="#118AB2"/>
<path opacity="0.1" d="M826.621 526.517H812.646V540.469H826.621V526.517Z" fill="#118AB2"/>
<path opacity="0.1" d="M1182.56 429.489H1168.58V443.442H1182.56V429.489Z" fill="#118AB2"/>
<path opacity="0.1" d="M1129.21 463.904H1115.23V477.856H1129.21V463.904Z" fill="#118AB2"/>
<path opacity="0.1" d="M1182.56 463.904H1168.58V477.856H1182.56V463.904Z" fill="#118AB2"/>
<path opacity="0.1" d="M1129.21 498.314H1115.23V512.266H1129.21V498.314Z" fill="#118AB2"/>
<path opacity="0.1" d="M1182.56 498.314H1168.58V512.266H1182.56V498.314Z" fill="#118AB2"/>
<path opacity="0.1" d="M1129.21 532.728H1115.23V546.68H1129.21V532.728Z" fill="#118AB2"/>
<path opacity="0.1" d="M1182.56 532.728H1168.58V546.68H1182.56V532.728Z" fill="#118AB2"/>
<path opacity="0.1" d="M1129.21 567.142H1115.23V581.095H1129.21V567.142Z" fill="#118AB2"/>
<path opacity="0.1" d="M1182.56 567.142H1168.58V581.095H1182.56V567.142Z" fill="#118AB2"/>
<path opacity="0.1" d="M1115.23 610.549V601.552H1129.2V609.269L1115.23 610.549Z" fill="#118AB2"/>
<path opacity="0.1" d="M742.845 403.376V411.357H790.671V403.376H742.845ZM747.611 410.857H743.71V403.866H747.641L747.611 410.857ZM752.373 410.857H748.442V403.866H752.373V410.857ZM757.125 410.857H753.194V403.866H757.125V410.857ZM761.886 410.857H757.96V403.866H761.891L761.886 410.857ZM766.643 410.857H762.712V403.866H766.643V410.857ZM771.404 410.857H767.473V403.866H771.404V410.857ZM776.166 410.857H772.235V403.866H776.166V410.857ZM780.922 410.857H776.991V403.866H780.922V410.857ZM785.679 410.857H781.748V403.866H785.679V410.857ZM790.436 410.857H786.505V403.866H790.436V410.857Z" fill="#118AB2"/>
<path opacity="0.1" d="M742.845 426.6V434.582H790.671V426.6H742.845ZM747.611 434.076H743.71V427.105H747.641L747.611 434.076ZM752.373 434.076H748.442V427.105H752.373V434.076ZM757.125 434.076H753.194V427.105H757.125V434.076ZM761.886 434.076H757.96V427.105H761.891L761.886 434.076ZM766.643 434.076H762.712V427.105H766.643V434.076ZM771.404 434.076H767.473V427.105H771.404V434.076ZM776.166 434.076H772.235V427.105H776.166V434.076ZM780.922 434.076H776.991V427.105H780.922V434.076ZM785.679 434.076H781.748V427.105H785.679V434.076ZM790.436 434.076H786.505V427.105H790.436V434.076Z" fill="#118AB2"/>
<path opacity="0.1" d="M742.845 449.834V457.831H790.671V449.834H742.845ZM747.611 457.311H743.71V450.334H747.641L747.611 457.311ZM752.373 457.311H748.442V450.334H752.373V457.311ZM757.125 457.311H753.194V450.334H757.125V457.311ZM761.886 457.311H757.96V450.334H761.891L761.886 457.311ZM766.643 457.311H762.712V450.334H766.643V457.311ZM771.404 457.311H767.473V450.334H771.404V457.311ZM776.166 457.311H772.235V450.334H776.166V457.311ZM780.922 457.311H776.991V450.334H780.922V457.311ZM785.679 457.311H781.748V450.334H785.679V457.311ZM790.436 457.311H786.505V450.334H790.436V457.311Z" fill="#118AB2"/>
<path opacity="0.1" d="M742.845 473.068V481.04H790.671V473.068H742.845ZM747.611 480.545H743.71V473.564H747.641L747.611 480.545ZM752.373 480.545H748.442V473.564H752.373V480.545ZM757.125 480.545H753.194V473.564H757.125V480.545ZM761.886 480.545H757.96V473.564H761.891L761.886 480.545ZM766.643 480.545H762.712V473.564H766.643V480.545ZM771.404 480.545H767.473V473.564H771.404V480.545ZM776.166 480.545H772.235V473.564H776.166V480.545ZM780.922 480.545H776.991V473.564H780.922V480.545ZM785.679 480.545H781.748V473.564H785.679V480.545ZM790.436 480.545H786.505V473.564H790.436V480.545Z" fill="#118AB2"/>
<path opacity="0.1" d="M743.051 496.297C743.243 497.048 743.459 497.798 743.685 498.539V496.798H747.616V503.774H745.513C745.577 503.936 745.641 504.112 745.705 504.264H790.671V496.297H743.051ZM752.388 503.774H748.457V496.798H752.388V503.774ZM757.139 503.774H753.208V496.798H757.139V503.774ZM761.901 503.774H757.96V496.798H761.891L761.901 503.774ZM766.657 503.774H762.726V496.798H766.657V503.774ZM771.419 503.774H767.488V496.798H771.419V503.774ZM776.18 503.774H772.249V496.798H776.18V503.774ZM780.937 503.774H777.006V496.798H780.937V503.774ZM785.694 503.774H781.763V496.798H785.694V503.774ZM790.45 503.774H786.519V496.798H790.45V503.774Z" fill="#118AB2"/>
<path opacity="0.1" d="M754.157 519.531C754.279 519.688 754.397 519.865 754.525 520.022H757.125V523.373C757.405 523.706 757.68 524.04 757.965 524.354V520.002H761.896V527.003H760.304C760.461 527.165 760.613 527.337 760.795 527.493H790.686V519.531H754.157ZM766.643 527.003H762.712V520.032H766.643V527.003ZM771.404 527.003H767.473V520.032H771.404V527.003ZM776.166 527.003H772.235V520.032H776.166V527.003ZM780.922 527.003H776.991V520.032H780.922V527.003ZM785.679 527.003H781.748V520.032H785.679V527.003ZM790.436 527.003H786.504V520.032H790.436V527.003Z" fill="#118AB2"/>
<path opacity="0.1" d="M780.392 542.76C780.839 543.016 781.296 543.251 781.758 543.506V543.261H785.689V545.469L786.524 545.856V543.261H790.455V547.504C790.531 547.542 790.61 547.571 790.691 547.593V542.76H780.392Z" fill="#118AB2"/>
<path opacity="0.1" d="M1104.74 420.816H1104.77H1104.74ZM1074.47 565.607H1074.96H1074.47ZM1042.89 491.936C1042.98 492.25 1043.06 492.564 1043.15 492.873C1043.07 492.564 1042.99 492.25 1042.89 491.936ZM1104.74 420.801H1104.77H1104.74ZM807.944 347.341V349.436H829.894V347.341H807.944ZM1074.47 565.607H1074.96H1074.47ZM1042.89 491.936C1042.98 492.25 1043.06 492.564 1043.15 492.873C1043.07 492.564 1042.99 492.25 1042.89 491.936ZM1104.74 420.801H1104.77H1104.74ZM1074.47 565.592H1074.96H1074.47ZM1042.89 491.936C1042.98 492.25 1043.06 492.564 1043.15 492.873C1043.07 492.564 1042.99 492.25 1042.89 491.936Z" fill="#118AB2"/>
<path d="M960.823 443.26C960.823 443.26 958.887 442.99 958.887 440.174C958.887 437.358 957.502 432.099 957.502 432.099C957.502 432.075 956.303 422.94 954.647 421.488C952.991 420.036 950.863 411.51 950.863 411.51C950.863 411.51 950.499 406.883 949.757 405.887C949.015 404.892 948.013 402.453 946.534 398.975C945.055 395.497 938.888 393.088 938.888 393.088C938.888 393.088 927.738 386.632 924.579 384.527C924.292 384.354 924.023 384.152 923.778 383.924C923.227 383.203 920.829 383.188 920.829 383.188C920.579 381.608 920.338 379.793 920.259 378.15C920.259 377.973 920.259 377.797 920.235 377.62C923.758 375.541 926.412 372.263 927.709 368.387C927.768 368.201 927.817 368.005 927.871 367.818C928.082 367.749 928.276 367.636 928.441 367.487C928.606 367.339 928.738 367.157 928.829 366.955C929.114 366.322 929.119 365.581 929.473 364.992C929.886 364.296 930.672 363.923 931.291 363.398C932.854 362.073 933.257 359.841 933.183 357.81C933.134 356.167 932.868 354.509 932.972 352.875L933.001 352.463C933.031 352.218 933.065 351.972 933.109 351.737C933.35 350.52 933.876 349.372 934.171 348.165C934.465 346.958 934.495 345.6 933.807 344.559C932.8 343.034 930.701 342.73 928.859 342.573C926.77 342.396 924.903 342.627 923.566 340.895C922.941 339.99 922.237 339.141 921.463 338.359C921.188 338.103 918.515 336.475 918.515 336.367C915.906 335.16 912.949 334.934 910.186 335.729C908.8 336.131 907.493 336.789 906.088 337.117C903.056 337.834 899.567 337.058 896.992 338.79C895.558 339.771 894.698 341.331 893.892 342.852C893.237 344.105 892.572 345.356 891.897 346.605C890.811 348.661 889.705 350.751 889.248 353.027C889.152 353.522 889.093 354.024 889.071 354.528V354.553C889.071 354.734 889.071 354.916 889.071 355.097V355.328C889.071 355.5 889.071 355.666 889.101 355.818C889.13 355.97 889.125 356.02 889.14 356.123C889.155 356.226 889.179 356.456 889.209 356.613C889.238 356.77 889.297 357.045 889.356 357.261C889.381 357.354 889.415 357.442 889.445 357.531C889.494 357.697 889.553 357.859 889.617 358.021C889.651 358.105 889.685 358.193 889.725 358.276C889.798 358.448 889.887 358.615 889.975 358.767C890.015 358.835 890.044 358.899 890.083 358.963C890.221 359.191 890.372 359.411 890.536 359.62C891.587 360.93 893.135 361.764 894.28 362.991C894.28 363.04 894.28 363.089 894.28 363.133C894.28 363.27 894.28 363.403 894.28 363.54C894.341 366.275 895.07 368.954 896.404 371.344C897.738 373.734 899.637 375.762 901.936 377.252C901.936 377.438 901.96 377.63 901.97 377.816C902.066 379.272 902.048 380.734 901.916 382.187C901.716 381.952 901.465 381.765 901.183 381.639C900.901 381.513 900.594 381.453 900.285 381.461C900.074 381.451 899.862 381.469 899.656 381.515L899.611 381.481V381.525C898.53 381.79 897.199 382.913 895.926 386.107C895.926 386.107 892.054 390.463 889.106 390.282C886.157 390.1 878.693 394.815 878.693 394.815C878.693 394.815 871.411 399.534 869.848 404.342C868.975 407.068 867.928 409.736 866.713 412.329L857.711 430.848L856.05 445.541C856.05 445.541 856.969 452.076 856.787 453.072C856.605 454.068 860.566 463.05 860.566 463.05C860.566 463.05 873.652 486.005 878.998 487.182L879.381 486.912C879.61 487.032 879.852 487.122 880.103 487.182L881.204 486.407C881.27 487.271 881.242 488.139 881.121 488.997C880.384 491.264 881.396 506.055 882.683 508.954C883.971 511.854 883.514 549.869 883.514 549.869L883.332 553.225C883.332 553.225 883.332 553.333 883.376 553.519L883.332 554.314L883.465 554.382C883.602 555.447 883.557 556.527 883.332 557.576C882.87 559.048 882.683 563.208 882.683 563.208C882.683 563.208 879.003 586.697 880.747 591.417C882.492 596.136 883.976 601.307 883.976 601.307C883.976 601.307 885.818 607.194 884.064 608.2C882.31 609.205 877.322 610.893 878.349 613.346C879.283 615.612 882.826 621.686 883.352 622.574L883.307 623.04L882.585 630.855C882.702 631.887 882.982 632.893 883.415 633.837C884.207 635.54 885.745 637.306 888.668 637.115C889.16 637.08 889.73 637.021 890.28 636.948C895.631 636.232 902.221 633.847 902.221 633.847C901.879 633.63 901.565 633.372 901.287 633.077C901.024 632.823 900.816 632.518 900.675 632.18C900.533 631.843 900.463 631.48 900.466 631.115C900.545 629.692 897.877 622.912 897.214 621.244C897.11 621.004 897.056 620.866 897.056 620.866C897.056 620.866 903.14 614.518 902.127 608.891C902.127 608.891 895.395 604.967 897.612 602.813C899.828 600.659 903.788 594.473 903.788 594.473C903.788 594.473 903.97 571.342 903.788 567.888C903.599 565.491 903.713 563.08 904.127 560.711C904.201 560.353 904.289 560.005 904.383 559.661C907.448 560.118 910.542 560.352 913.64 560.363C914.771 560.363 915.921 560.363 917.08 560.294C917.08 560.621 917.095 560.974 917.124 561.354C917.38 567.084 917.857 577.131 918.245 580.864C918.795 586.216 921.837 600.64 921.837 600.64C921.837 600.64 916.034 604.358 922.849 613.522C922.849 613.522 922.849 616.844 922.397 617.324C921.914 618.896 921.525 620.495 921.232 622.113C920.947 623.839 920.829 625.586 921.291 626.493C922.397 628.662 929.031 628.485 929.031 628.485L929.193 628.456C930.445 628.326 931.711 628.447 932.916 628.81C934.122 629.173 935.243 629.771 936.215 630.57C938.736 632.591 948.303 631.703 953.482 631.061C955.511 630.806 956.868 630.57 956.868 630.57C956.933 630.341 956.957 630.101 956.936 629.864C956.882 628.593 955.885 625.807 949.123 623.319C949.123 623.319 942.765 619.051 942.853 615.333H942.721H941.984C942.519 615.303 942.863 615.333 942.863 615.333C942.863 615.333 940.372 606.257 941.389 605.521C942.406 604.785 939.36 594.728 939.36 594.728C939.36 594.728 937.615 577.852 937.522 576.67C937.526 575.655 937.68 574.647 937.979 573.677L937.522 564.425C937.522 564.425 937.433 561.349 937.522 560.348C937.507 559.479 937.436 558.612 937.311 557.753C937.266 557.409 937.222 557.051 937.173 556.698C939.556 556.095 941.104 555.535 941.104 555.535L940.829 523.328C942.853 519.404 943.227 510.794 943.217 504.686C943.217 500.762 943.04 497.857 943.04 497.857L945.807 493.349C945.807 493.349 946.445 487.952 945.433 486.77C944.986 486.235 945.187 485.681 945.556 485.225C945.747 485.073 945.949 484.936 946.16 484.813C946.16 484.813 946.131 484.769 946.096 484.705C946.29 484.544 946.495 484.398 946.711 484.268C946.711 484.268 945.728 482.747 946.608 482.105C947.433 482.664 948.17 483.086 948.73 483.429C948.691 483.787 948.652 483.993 948.652 483.993L948.888 483.503C949.428 483.807 949.757 483.993 949.757 483.993C949.757 483.993 954.091 475.374 953.998 474.103C953.905 472.833 956.946 467.48 956.946 467.48C956.946 467.48 957.315 464.669 958.976 463.492C960.637 462.314 960.263 453.783 960.263 453.783C960.263 453.783 960.725 449.338 961.831 447.523C962.936 445.708 960.823 443.26 960.823 443.26ZM877.897 439.478L877.981 441.533C877.489 440.743 877.136 440.174 877.136 440.174L877.897 439.478Z" fill="url(#paint0_linear)"/>
<path d="M949.993 480.27L948.932 484.783C948.932 484.783 940.431 480.451 938.898 474.947C937.365 469.443 941.463 467.353 941.463 467.353L949.384 470.703L949.993 480.27Z" fill="white"/>
<path opacity="0.1" d="M949.993 480.27L948.932 484.783C948.932 484.783 940.431 480.451 938.898 474.947C937.365 469.443 941.463 467.353 941.463 467.353L949.384 470.703L949.993 480.27Z" fill="black"/>
<path d="M902.285 633.877C902.285 633.877 894.422 636.761 889.017 637.124C886.147 637.316 884.639 635.559 883.863 633.867C883.438 632.926 883.165 631.925 883.052 630.899L883.754 623.123L884.128 618.983L895.612 616.005L897.238 620.969L897.39 621.347C898.044 623.005 900.663 629.751 900.584 631.159C900.581 631.519 900.651 631.877 900.789 632.21C900.928 632.543 901.132 632.844 901.39 633.097C901.654 633.394 901.954 633.656 902.285 633.877Z" fill="white"/>
<path d="M955.988 629.923C956.008 630.159 955.984 630.396 955.919 630.624C955.919 630.624 939.104 633.425 935.664 630.624C934.695 629.806 933.564 629.199 932.346 628.842C931.127 628.486 929.847 628.388 928.588 628.554C928.588 628.554 922.083 628.73 920.997 626.592C920.544 625.694 920.662 623.952 920.943 622.235C921.228 620.626 921.609 619.036 922.083 617.472L922.343 617.266L923.891 616.024L942.013 615.49H942.151C942.062 619.189 948.303 623.432 948.303 623.432C954.932 625.885 955.909 628.657 955.988 629.923Z" fill="white"/>
<path opacity="0.1" d="M955.988 629.923C956.005 630.159 955.98 630.396 955.914 630.624C955.914 630.624 939.104 633.425 935.664 630.624C934.695 629.806 933.566 629.2 932.348 628.843C931.13 628.487 929.851 628.388 928.593 628.554C928.593 628.554 922.082 628.73 921.001 626.592C920.549 625.689 920.662 623.952 920.942 622.235C923.449 622.485 927.404 623.108 928.957 624.595C931.306 626.856 935.286 629.113 937.728 629.29C939.64 629.412 951.074 629.775 955.988 629.923Z" fill="black"/>
<path opacity="0.1" d="M902.285 633.877C902.285 633.877 894.422 636.761 889.017 637.124C886.147 637.316 884.639 635.559 883.867 633.862C885.867 634.534 888.644 635.241 890.103 634.593C891.833 633.828 897.965 633.332 901.405 633.121C901.667 633.407 901.962 633.661 902.285 633.877Z" fill="black"/>
<path d="M913.95 401.413C907.464 398.897 899.12 390.581 901.204 386.696C901.666 385.715 901.941 384.657 902.014 383.576C902.148 382.108 902.168 380.631 902.073 379.16C901.927 376.751 901.637 374.353 901.204 371.978C901.204 371.978 921.453 372.434 920.274 375.412C919.93 376.286 919.876 377.801 919.969 379.499C920.063 381.196 920.309 383.114 920.564 384.738C920.918 386.966 921.272 388.663 921.272 388.663C921.272 388.663 920.033 390.395 919.306 390.488C918.579 390.581 923.257 404.999 913.95 401.413Z" fill="#CF6F80"/>
<path opacity="0.1" d="M897.376 621.347L897.223 621.514C891.169 614.204 883.848 623.314 883.848 623.314L883.74 623.123L884.113 618.983L895.597 616.005L897.223 620.969L897.376 621.347Z" fill="black"/>
<path opacity="0.1" d="M942.156 616.005C942.156 616.005 937.733 615.911 935.374 617.992C933.016 620.072 921.616 618.443 922.107 617.992C922.253 617.768 922.34 617.512 922.363 617.246L923.91 616.005L942.033 615.47C942.101 615.799 942.156 616.005 942.156 616.005Z" fill="black"/>
<path d="M904.909 558.601C904.579 559.414 904.329 560.257 904.162 561.118C903.752 563.476 903.638 565.875 903.823 568.261C904.004 571.695 903.823 594.708 903.823 594.708C903.823 594.708 899.936 600.846 897.769 603.009C895.602 605.173 902.191 609.058 902.191 609.058C903.174 614.651 897.218 620.969 897.218 620.969C891.165 613.66 883.843 622.775 883.843 622.775C883.843 622.775 879.863 615.907 878.87 613.454C877.877 611.001 882.757 609.303 884.472 608.307C886.187 607.312 884.388 601.439 884.388 601.439C884.388 601.439 882.939 596.293 881.219 591.598C879.499 586.903 883.116 563.532 883.116 563.532C883.116 563.532 883.302 559.381 883.75 557.934C883.975 556.89 884.02 555.815 883.882 554.755C883.853 554.397 883.818 554.098 883.794 553.897C883.769 553.696 883.75 553.602 883.75 553.602L883.818 553.485L886.275 548.912C886.275 548.912 906.088 555.722 904.909 558.601Z" fill="#118AB2"/>
<path d="M942.156 615.465C942.156 615.465 937.733 615.372 935.374 617.427C933.016 619.483 921.616 617.879 922.107 617.427C922.599 616.976 922.559 613.635 922.559 613.635C915.871 604.52 921.576 600.821 921.576 600.821C921.576 600.821 918.589 586.472 918.048 581.149C917.67 577.43 917.203 567.437 916.953 561.731C916.844 559.278 916.781 557.591 916.781 557.591L922.245 556.492L922.947 556.35L936.126 553.71C936.126 553.71 936.49 556.163 936.736 558.17C936.858 559.026 936.927 559.89 936.942 560.755C936.854 561.736 936.942 564.807 936.942 564.807L937.389 574.016C937.097 574.982 936.946 575.985 936.942 576.993C937.03 578.166 938.745 594.954 938.745 594.954C938.745 594.954 941.728 604.971 940.711 605.693C939.694 606.414 942.156 615.465 942.156 615.465Z" fill="#118AB2"/>
<path opacity="0.1" d="M920.274 375.412C919.93 376.286 919.876 377.801 919.97 379.499C917.257 381.13 914.139 381.963 910.973 381.904C907.808 381.845 904.723 380.896 902.073 379.165C901.927 376.754 901.637 374.354 901.204 371.978C901.204 371.978 921.454 372.425 920.274 375.412Z" fill="black"/>
<path d="M928.102 364.57C928.106 366.338 927.827 368.095 927.276 369.776C926.045 373.54 923.521 376.749 920.149 378.835C916.777 380.921 912.776 381.75 908.851 381.175C904.926 380.6 901.332 378.659 898.702 375.694C896.073 372.729 894.578 368.932 894.481 364.973C894.481 364.835 894.481 364.708 894.481 364.57C894.443 362.342 894.85 360.128 895.678 358.058C896.505 355.989 897.738 354.104 899.303 352.515C900.868 350.925 902.734 349.663 904.793 348.801C906.852 347.939 909.062 347.496 911.294 347.496C913.526 347.496 915.737 347.939 917.795 348.801C919.854 349.663 921.72 350.925 923.285 352.515C924.85 354.104 926.083 355.989 926.911 358.058C927.738 360.128 928.145 362.342 928.107 364.57H928.102Z" fill="#CF6F80"/>
<path opacity="0.1" d="M913.95 401.413C907.464 398.897 899.12 390.581 901.204 386.696C901.666 385.715 901.941 384.657 902.014 383.576L910.894 390.861L916.387 395.36L920.564 384.743C920.918 386.971 921.272 388.668 921.272 388.668C921.272 388.668 920.033 390.4 919.306 390.493C918.579 390.586 923.257 405 913.95 401.413Z" fill="black"/>
<path d="M936.912 433.61L929.497 557.973L919.827 558.606L894.786 486.495L898.894 400.883L899.759 382.796L910.894 391.925L916.392 396.424L920.692 385.499L928.687 392.455L936.912 433.61Z" fill="#118AB2"/>
<path opacity="0.1" d="M904.909 558.601C904.579 559.414 904.329 560.257 904.162 561.118C897.125 560.033 890.291 557.902 883.887 554.795L883.755 554.726L883.799 553.936L883.823 553.524L886.28 548.952C886.28 548.952 906.088 555.722 904.909 558.601Z" fill="black"/>
<path opacity="0.1" d="M922.358 561.138C920.559 561.443 918.745 561.65 916.923 561.756C916.815 559.303 916.751 557.615 916.751 557.615L922.215 556.516L922.358 561.138Z" fill="black"/>
<path opacity="0.1" d="M936.706 558.194C933.212 559.102 927.817 560.122 922.987 559.484L922.918 556.374L936.097 553.735C936.097 553.735 936.46 556.163 936.706 558.194Z" fill="black"/>
<path opacity="0.1" d="M922.898 560.054C902.751 563.488 884.3 553.642 884.3 553.642L884.477 550.306C884.477 550.306 884.934 512.487 883.666 509.587C882.398 506.688 881.411 491.985 882.128 489.728C882.845 487.472 879.509 453.631 879.509 453.631L878.968 439.895L859.185 431.893L868.03 413.487C869.225 410.906 870.252 408.251 871.106 405.539C872.644 400.761 879.784 396.066 879.784 396.066C879.784 396.066 887.106 391.376 890 391.553C892.894 391.729 896.688 387.402 896.688 387.402C899.489 380.274 902.024 383.502 902.024 383.502C902.024 383.841 902.024 383.502 901.887 384.557C900.904 392.382 917.778 417.107 918.019 417.544L919.626 456.624L921.252 506.079L922.898 560.054Z" fill="black"/>
<path d="M922.358 560.054C902.211 563.488 883.754 553.642 883.754 553.642L883.936 550.306C883.936 550.306 884.393 512.487 883.121 509.587C881.848 506.688 880.865 491.985 881.587 489.728C882.31 487.472 878.968 453.631 878.968 453.631L878.423 439.895L858.63 431.864L867.475 413.457C868.667 410.875 869.694 408.221 870.551 405.51C872.084 400.731 879.229 396.037 879.229 396.037C879.229 396.037 886.55 391.347 889.44 391.523C892.329 391.7 896.127 387.373 896.127 387.373C898.933 380.245 902.024 383.473 902.024 383.473C902.024 383.811 901.729 383.963 901.887 384.527C904.049 392.117 917.237 417.078 917.478 417.514L919.105 456.594L920.731 506.05L922.358 560.054Z" fill="white"/>
<path opacity="0.1" d="M916.928 418.628C914.761 417.725 903.282 404.641 903.282 404.641V401.664C902.864 400.682 900.383 401.281 898.368 401.968L899.233 383.88L900.216 384.694C902.368 392.279 916.677 418.191 916.928 418.628Z" fill="black"/>
<path d="M917.473 417.544C915.301 416.641 903.823 403.557 903.823 403.557V400.579C903.405 399.598 900.923 400.197 898.909 400.883L899.779 382.796L900.761 383.61C902.919 391.194 917.233 417.112 917.473 417.544Z" fill="white"/>
<path opacity="0.1" d="M884.3 482.796C884.57 482.796 898.309 481.354 898.309 481.354C898.309 481.354 906.629 497.686 906.083 501.659C905.538 505.633 904.55 509.151 901.204 508.528C897.857 507.904 883.194 509.018 883.194 509.018L884.3 482.796Z" fill="black"/>
<path d="M883.754 481.712C884.025 481.712 897.764 480.27 897.764 480.27C897.764 480.27 906.078 496.606 905.538 500.575C904.997 504.544 903.999 508.066 900.658 507.443C897.317 506.82 882.649 507.934 882.649 507.934L883.754 481.712Z" fill="white"/>
<path d="M894.108 474.044C894.108 474.044 906.717 480.81 906.987 482.875C907.257 484.94 900.57 481.972 899.125 481.614C898.174 481.385 897.206 481.234 896.231 481.163L886.595 481.423L894.108 474.044Z" fill="#CF6F80"/>
<path opacity="0.1" d="M913.41 419.472C914.142 419.472 914.736 418.879 914.736 418.147C914.736 417.416 914.142 416.823 913.41 416.823C912.677 416.823 912.083 417.416 912.083 418.147C912.083 418.879 912.677 419.472 913.41 419.472Z" fill="black"/>
<path d="M913.41 418.932C914.142 418.932 914.736 418.339 914.736 417.608C914.736 416.876 914.142 416.283 913.41 416.283C912.677 416.283 912.083 416.876 912.083 417.608C912.083 418.339 912.677 418.932 913.41 418.932Z" fill="#3F3D56"/>
<path opacity="0.1" d="M915.852 476.811C916.584 476.811 917.178 476.218 917.178 475.487C917.178 474.755 916.584 474.162 915.852 474.162C915.119 474.162 914.525 474.755 914.525 475.487C914.525 476.218 915.119 476.811 915.852 476.811Z" fill="black"/>
<path d="M915.852 476.267C916.584 476.267 917.178 475.674 917.178 474.942C917.178 474.211 916.584 473.618 915.852 473.618C915.119 473.618 914.525 474.211 914.525 474.942C914.525 475.674 915.119 476.267 915.852 476.267Z" fill="#3F3D56"/>
<path opacity="0.1" d="M914.731 448.141C915.464 448.141 916.058 447.548 916.058 446.817C916.058 446.085 915.464 445.492 914.731 445.492C913.999 445.492 913.405 446.085 913.405 446.817C913.405 447.548 913.999 448.141 914.731 448.141Z" fill="black"/>
<path d="M914.731 447.602C915.464 447.602 916.058 447.009 916.058 446.277C916.058 445.546 915.464 444.953 914.731 444.953C913.999 444.953 913.405 445.546 913.405 446.277C913.405 447.009 913.999 447.602 914.731 447.602Z" fill="#3F3D56"/>
<path d="M945.315 480.888C945.315 480.888 946.219 482.242 945.315 482.875C944.411 483.508 945.404 485.038 945.404 485.038C945.404 485.038 943.148 486.358 944.141 487.545C945.133 488.732 944.504 494.094 944.504 494.094L941.792 498.578C941.792 498.578 941.954 501.468 941.964 505.373C941.964 511.466 941.605 520.032 939.62 523.937L939.895 555.977C939.895 555.977 930.397 559.44 922.446 558.386L921.267 506.972C921.267 506.972 922.987 477.817 923.621 472.224C923.991 469.321 924.143 466.393 924.073 463.467C924.073 463.467 923.802 454.715 922.893 450.653C922.893 450.653 921.911 433.056 921.812 428.184C921.768 425.854 921.891 419.055 922.028 412.589C922.181 405.519 922.353 398.852 922.353 398.852L920.559 384.684C920.559 384.684 922.353 384.503 922.893 385.224C923.135 385.45 923.399 385.652 923.679 385.827C926.775 387.917 937.713 394.344 937.713 394.344C937.713 394.344 943.767 396.748 945.217 400.192C946.666 403.636 947.674 406.079 948.376 407.06C949.079 408.041 949.462 412.653 949.462 412.653C949.462 412.653 951.546 421.14 953.172 422.577C954.799 424.015 955.988 433.159 955.988 433.159L941.615 444.442C941.615 444.442 940.352 463.212 940.082 463.938C939.812 464.664 945.315 480.888 945.315 480.888Z" fill="white"/>
<path d="M945.861 480.888C945.861 480.888 946.76 482.242 945.861 482.875C944.961 483.508 945.944 485.038 945.944 485.038C945.944 485.038 943.703 486.373 944.686 487.56C945.669 488.747 945.05 494.109 945.05 494.109L942.337 498.593C942.337 498.593 942.5 501.483 942.514 505.388C942.514 511.481 942.156 520.046 940.17 523.951L940.441 555.991C940.441 555.991 930.927 559.455 922.987 558.4L921.812 506.987C921.812 506.987 923.532 477.832 924.166 472.239C924.537 469.336 924.687 466.408 924.613 463.482C924.613 463.482 924.343 454.73 923.439 450.668C923.439 450.668 922.456 433.071 922.353 428.199C922.309 425.869 922.436 419.069 922.569 412.604C922.721 405.534 922.893 398.867 922.893 398.867L920.525 384.508C920.525 384.508 922.893 384.508 923.439 385.239C923.679 385.467 923.942 385.669 924.225 385.842C927.321 387.932 938.264 394.359 938.264 394.359C938.264 394.359 944.313 396.763 945.762 400.206C947.212 403.65 948.219 406.093 948.927 407.075C949.634 408.056 950.008 412.667 950.008 412.667C950.008 412.667 952.091 421.154 953.718 422.592C955.344 424.029 956.519 433.154 956.519 433.154L942.146 444.438C942.146 444.438 940.883 463.207 940.608 463.933C940.333 464.659 945.861 480.888 945.861 480.888Z" fill="white"/>
<path opacity="0.1" d="M928.647 403.032L929.945 406.81L923.114 413.678C923.267 406.614 923.439 399.942 923.439 399.942L921.07 385.582C921.07 385.582 923.439 385.582 923.984 386.313C924.223 386.541 924.487 386.742 924.77 386.912L930.579 403.641L928.647 403.032Z" fill="black"/>
<path d="M928.102 401.948L929.404 405.726L922.574 412.594C922.726 405.524 922.898 398.857 922.898 398.857L920.525 384.498C920.525 384.498 922.898 384.498 923.439 385.229C923.68 385.456 923.943 385.658 924.225 385.832L930.038 402.556L928.102 401.948Z" fill="white"/>
<path opacity="0.1" d="M928.102 364.57C928.106 366.338 927.827 368.095 927.276 369.776C927.184 369.79 927.089 369.786 926.998 369.763C926.906 369.74 926.821 369.699 926.746 369.643C926.618 365.228 924.441 361.082 921.763 357.555C921.011 356.49 920.1 355.547 919.06 354.759C918.01 353.971 916.703 353.602 915.395 353.724C913.921 353.925 912.618 354.926 911.129 355.053C909.164 355.215 907.405 353.856 905.454 353.787C904.661 353.795 903.879 353.971 903.159 354.305C902.44 354.638 901.8 355.12 901.282 355.72C900.257 356.931 899.496 358.341 899.046 359.861C898.274 362.166 897.853 364.574 897.798 367.004C897.774 368.377 897.641 370.099 896.363 370.6C896.46 369.589 896.345 368.57 896.026 367.607C895.707 366.643 895.191 365.756 894.511 365.002L894.481 364.973C894.481 364.835 894.481 364.708 894.481 364.57C894.443 362.342 894.85 360.128 895.678 358.058C896.505 355.989 897.738 354.104 899.303 352.515C900.868 350.925 902.734 349.663 904.793 348.801C906.852 347.939 909.062 347.496 911.294 347.496C913.526 347.496 915.737 347.939 917.795 348.801C919.854 349.663 921.72 350.925 923.285 352.515C924.85 354.104 926.083 355.989 926.911 358.058C927.738 360.128 928.145 362.342 928.107 364.57H928.102Z" fill="black"/>
<path d="M918.255 337.917C915.701 336.718 912.797 336.491 910.088 337.279C908.727 337.681 907.444 338.334 906.063 338.663C903.115 339.374 899.675 338.604 897.145 340.326C895.739 341.307 894.894 342.857 894.108 344.363L892.142 348.101C891.071 350.147 889.99 352.227 889.543 354.479C889.096 356.731 889.366 359.252 890.796 361.063C891.838 362.382 893.376 363.211 894.506 364.453C895.183 365.208 895.697 366.094 896.015 367.056C896.332 368.019 896.448 369.036 896.354 370.045C897.636 369.555 897.759 367.828 897.788 366.454C897.843 364.024 898.264 361.616 899.037 359.311C899.485 357.791 900.247 356.381 901.272 355.171C901.79 354.571 902.43 354.089 903.15 353.756C903.869 353.423 904.651 353.246 905.444 353.238C907.41 353.307 909.174 354.661 911.12 354.499C912.594 354.376 913.901 353.37 915.385 353.174C916.693 353.051 918.001 353.42 919.051 354.209C920.09 354.996 921 355.94 921.748 357.006C924.431 360.533 926.608 364.669 926.736 369.094C927.291 369.501 928.092 368.971 928.367 368.343C928.642 367.715 928.652 366.979 929.001 366.381C929.404 365.689 930.176 365.321 930.78 364.801C932.313 363.481 932.696 361.259 932.637 359.243C932.578 357.226 932.185 355.181 932.569 353.199C932.8 351.982 933.32 350.844 933.605 349.642C933.89 348.44 933.925 347.091 933.252 346.056C932.269 344.535 930.2 344.236 928.397 344.093C926.348 343.917 924.515 344.142 923.208 342.421C922.594 341.522 921.904 340.678 921.144 339.899C920.884 339.644 918.255 338.025 918.255 337.917Z" fill="#512E4E"/>
<path opacity="0.1" d="M864.846 441.371L859.711 431.893L858.084 446.518C858.084 446.518 858.989 453.013 858.807 454.009C858.625 455.005 862.512 463.933 862.512 463.933C862.512 463.933 875.352 486.765 880.595 487.943L898.309 475.305L893.612 469.349C893.612 469.349 891.985 468.717 891.577 469.349C891.577 469.349 882.855 454.367 881.951 453.283C881.047 452.199 881.224 450.035 881.224 450.035C881.224 450.035 879.868 448.593 880.32 447.239C880.772 445.885 877.701 441.19 877.701 441.19L880.501 438.575L864.846 441.371Z" fill="black"/>
<path d="M859.981 430.814L858.625 431.893L856.999 446.518C856.999 446.518 857.903 453.013 857.721 454.009C857.539 455.005 861.431 463.933 861.431 463.933C861.431 463.933 874.266 486.765 879.509 487.943L897.228 475.305L892.526 469.349C892.526 469.349 890.899 468.717 890.491 469.349C890.491 469.349 881.769 454.367 880.865 453.283C879.961 452.199 880.143 450.035 880.143 450.035C880.143 450.035 878.787 448.593 879.239 447.239C879.691 445.885 876.615 441.19 876.615 441.19L879.416 438.575L859.981 430.814Z" fill="white"/>
<path opacity="0.1" d="M944.141 488.104C945.124 489.297 944.504 494.649 944.504 494.649L941.792 499.133C941.792 499.133 941.954 502.027 941.964 505.927L937.404 507.35C936.992 507.479 936.555 507.507 936.13 507.432C935.704 507.358 935.303 507.183 934.959 506.923C934.615 506.662 934.339 506.323 934.153 505.934C933.967 505.545 933.877 505.117 933.89 504.686L934.677 479.367L945.315 483.429C944.411 484.057 945.404 485.598 945.404 485.598C945.404 485.598 943.148 486.912 944.141 488.104Z" fill="black"/>
<path d="M944.686 487.56C945.669 488.752 945.05 494.109 945.05 494.109L942.337 498.593C942.337 498.593 942.5 501.483 942.514 505.388L937.871 506.835C937.467 506.96 937.039 506.987 936.623 506.914C936.207 506.841 935.814 506.67 935.478 506.414C935.141 506.159 934.871 505.827 934.689 505.446C934.507 505.066 934.418 504.647 934.431 504.225L935.222 478.828L945.866 482.89C944.956 483.518 945.949 485.053 945.949 485.053C945.949 485.053 943.703 486.373 944.686 487.56Z" fill="white"/>
<path d="M948.209 475.492C948.209 475.492 947.487 480.098 945.679 480.368C943.87 480.638 943.06 487.82 941.256 487.565C939.453 487.31 940.647 480.888 940.711 479.642C940.775 478.396 938.745 473.235 940.264 472.062C941.782 470.89 946.588 472.062 946.588 472.062L948.209 475.492Z" fill="#CF6F80"/>
<path opacity="0.1" d="M952.057 440.017L955.467 433.149C955.467 433.149 956.823 438.384 956.823 441.18C956.823 443.976 958.72 444.251 958.72 444.251C958.72 444.251 960.799 446.704 959.703 448.49C958.607 450.276 958.165 454.72 958.165 454.72C958.165 454.72 958.524 463.202 956.897 464.375C955.271 465.547 954.932 468.349 954.932 468.349C954.932 468.349 951.944 473.671 952.037 474.937C952.131 476.203 947.88 484.773 947.88 484.773C947.88 484.773 949.959 474.123 937.846 469.521C937.846 469.521 937.753 465.906 938.657 464.915C939.561 463.924 940.971 463.472 940.087 458.463C939.202 453.455 939.831 447.469 939.831 446.267C939.831 445.066 942.544 437.569 942.544 437.569L952.057 440.017Z" fill="black"/>
<path d="M953.531 432.168L956.509 433.149C956.509 433.149 957.87 438.384 957.87 441.18C957.87 443.976 959.767 444.251 959.767 444.251C959.767 444.251 961.845 446.704 960.75 448.49C959.654 450.276 959.216 454.72 959.216 454.72C959.216 454.72 959.575 463.202 957.949 464.375C956.322 465.547 955.959 468.349 955.959 468.349C955.959 468.349 952.976 473.671 953.069 474.937C953.163 476.203 948.907 484.773 948.907 484.773C948.907 484.773 950.991 474.123 938.873 469.521C938.873 469.521 938.785 465.906 939.689 464.915C940.593 463.924 942.003 463.472 941.119 458.463C940.234 453.455 940.863 447.469 940.863 446.267C940.863 445.066 943.576 437.569 943.576 437.569L953.531 432.168Z" fill="white"/>
<path opacity="0.1" d="M887.759 610.186C887.759 610.186 892.506 607.209 895.621 609.372C898.737 611.536 887.759 610.186 887.759 610.186Z" fill="black"/>
<path opacity="0.1" d="M924.643 600.978C924.643 600.978 928.844 600.438 932.372 604.231C935.9 608.023 924.643 600.978 924.643 600.978Z" fill="black"/>
<g opacity="0.1">
<path opacity="0.1" d="M930.79 363.727C930.185 364.247 929.409 364.62 929.006 365.311C928.662 365.905 928.652 366.636 928.377 367.274C928.102 367.911 927.301 368.431 926.746 368.029C926.618 363.614 924.436 359.468 921.758 355.936C921.009 354.87 920.099 353.927 919.06 353.14C918.009 352.35 916.7 351.981 915.39 352.105C913.916 352.306 912.618 353.307 911.129 353.429C909.164 353.596 907.4 352.237 905.449 352.168C904.656 352.176 903.874 352.353 903.156 352.688C902.437 353.022 901.798 353.505 901.282 354.106C900.256 355.314 899.495 356.723 899.046 358.242C898.274 360.547 897.853 362.955 897.798 365.385C897.769 366.754 897.641 368.461 896.373 368.971C896.403 369.333 896.403 369.698 896.373 370.06C897.651 369.57 897.779 367.843 897.808 366.469C897.863 364.039 898.284 361.631 899.056 359.326C899.505 357.806 900.266 356.395 901.292 355.186C901.809 354.586 902.448 354.104 903.167 353.771C903.885 353.438 904.667 353.261 905.459 353.253C907.424 353.321 909.193 354.675 911.139 354.513C912.613 354.391 913.921 353.385 915.4 353.189C916.71 353.065 918.019 353.435 919.07 354.224C920.109 355.011 921.019 355.954 921.768 357.02C924.446 360.548 926.628 364.683 926.755 369.108C927.311 369.516 928.112 368.986 928.387 368.358C928.662 367.73 928.672 366.994 929.016 366.395C929.419 365.704 930.195 365.336 930.8 364.816C932.333 363.496 932.716 361.274 932.657 359.257C932.657 359.194 932.657 359.13 932.657 359.071C932.564 360.817 932.097 362.598 930.79 363.727Z" fill="black"/>
<path opacity="0.1" d="M894.516 363.378C893.386 362.137 891.843 361.308 890.806 359.993C889.933 358.829 889.434 357.428 889.376 355.975C889.221 357.791 889.729 359.601 890.806 361.073C891.843 362.392 893.386 363.221 894.516 364.463C895.601 365.677 896.252 367.216 896.368 368.839C896.444 367.851 896.318 366.858 896 365.92C895.682 364.982 895.177 364.117 894.516 363.378Z" fill="black"/>
<path opacity="0.1" d="M933.615 348.568C933.325 349.77 932.809 350.913 932.574 352.124C932.434 352.934 932.383 353.756 932.421 354.577C932.438 354.11 932.489 353.644 932.574 353.184C932.809 351.967 933.325 350.829 933.615 349.627C933.784 348.964 933.839 348.278 933.777 347.596C933.747 347.924 933.693 348.248 933.615 348.568Z" fill="black"/>
</g>
<path opacity="0.1" d="M799.221 630.134C825.665 630.134 847.102 626.696 847.102 622.456C847.102 618.216 825.665 614.778 799.221 614.778C772.778 614.778 751.341 618.216 751.341 622.456C751.341 626.696 772.778 630.134 799.221 630.134Z" fill="#118AB2"/>
<path d="M800.764 475.379H797.683V544.635H800.764V475.379Z" fill="#535461"/>
<path d="M820.125 544.424L819.933 547.544L819.658 551.959L819.545 553.794L819.275 558.209L819.157 560.044L818.882 564.459L815.776 614.533C815.641 616.687 814.689 618.71 813.113 620.188C811.538 621.666 809.457 622.489 807.295 622.49H791.148C788.986 622.489 786.906 621.666 785.331 620.188C783.757 618.709 782.805 616.687 782.672 614.533L779.581 564.425L779.306 560.009L779.193 558.175L778.918 553.759L778.805 551.925L778.529 547.509L778.333 544.389C778.299 543.789 778.388 543.188 778.595 542.623C778.802 542.058 779.122 541.541 779.536 541.104C779.95 540.667 780.449 540.319 781.003 540.082C781.556 539.845 782.153 539.723 782.755 539.724H815.781C816.381 539.729 816.974 539.857 817.523 540.1C818.072 540.342 818.565 540.695 818.972 541.135C819.379 541.576 819.691 542.095 819.89 542.66C820.088 543.226 820.168 543.826 820.125 544.424Z" fill="#3F3D56"/>
<path d="M819.933 547.544L819.658 551.944H778.785L778.51 547.544H819.933Z" fill="#9D9CB5"/>
<path d="M819.545 553.779L819.275 558.184H779.173L778.898 553.779H819.545Z" fill="#9D9CB5"/>
<path d="M819.157 560.024L818.887 564.425H779.561L779.286 560.024H819.157Z" fill="#9D9CB5"/>
<path d="M773.807 501.336C791.748 514.297 799.236 534.568 799.236 534.568C799.236 534.568 777.615 533.827 759.67 520.866C741.725 507.904 734.251 487.638 734.251 487.638C734.251 487.638 755.862 488.374 773.807 501.336Z" fill="#089F4D"/>
<path d="M734.236 487.638C734.236 487.638 756.682 500.075 763.881 510.372C771.08 520.669 799.236 534.568 799.236 534.568" stroke="#535461" stroke-width="2" stroke-miterlimit="10"/>
<path d="M785.389 475.227C795.153 482.276 799.236 493.31 799.236 493.31C799.236 493.31 787.468 492.907 777.699 485.858C767.93 478.808 763.857 467.77 763.857 467.77C763.857 467.77 775.62 468.172 785.389 475.227Z" fill="#089F4D"/>
<path d="M763.857 467.77C763.857 467.77 776.072 474.54 779.989 480.142C783.905 485.745 799.236 493.31 799.236 493.31" stroke="#535461" stroke-width="2" stroke-miterlimit="10"/>
<path d="M813.413 492.75C802.194 505.059 799.821 521.145 799.821 521.145C799.821 521.145 815.639 517.27 826.847 504.956C838.056 492.642 840.439 476.561 840.439 476.561C840.439 476.561 824.631 480.442 813.413 492.75Z" fill="#089F4D"/>
<path d="M840.449 476.566C840.449 476.566 825.835 489.184 822.12 497.877C818.405 506.57 799.821 521.145 799.821 521.145" stroke="#535461" stroke-width="2" stroke-miterlimit="10"/>
<path d="M1225.22 488.418C1225.22 488.418 1217.11 448.122 1220.22 443.108C1220.22 443.108 1220.33 438.448 1220.14 432.507C1220.14 432.281 1220.14 432.055 1220.14 431.825C1220.69 432.188 1221.26 432.516 1221.85 432.806C1224.71 434.273 1227.99 434.697 1231.13 434.003L1228.68 431.27C1228.09 430.618 1227.47 429.911 1227.35 429.048C1227.22 428.185 1227.57 427.414 1227.88 426.644C1230.21 420.757 1230.33 413.354 1225.84 408.86C1222.04 405.083 1221.11 400.207 1216.99 396.758C1213.98 394.231 1212.32 390.527 1210.76 386.946C1209.44 383.919 1208.11 380.868 1207.35 377.659C1206.76 375.152 1206.53 372.557 1205.71 370.109C1204.9 367.661 1203.39 365.282 1201.01 364.188C1200.17 363.8 1199.23 363.579 1198.46 363.064C1197.44 362.382 1196.84 361.274 1196.1 360.302C1192.38 355.397 1179.93 358.286 1174.03 360.278C1172.43 360.779 1170.94 361.601 1169.67 362.692L1169.72 362.603C1169.77 362.53 1169.82 362.456 1169.87 362.382C1169.22 362.903 1168.67 363.525 1168.22 364.222C1167.36 365.581 1167 367.166 1166.28 368.637C1165.42 370.379 1160.61 375.241 1162.67 377.198C1162.82 377.33 1162.99 377.436 1163.17 377.512C1163.94 377.835 1164.8 377.92 1165.62 377.757L1165.53 377.968C1164.83 379.695 1164.47 381.543 1164.47 383.409C1164.47 391.469 1171.13 398.004 1179.35 398.004C1180.89 398.005 1182.43 397.769 1183.9 397.302C1183.94 397.489 1183.97 397.675 1184 397.862C1184 397.935 1184.03 398.009 1184.03 398.082L1183.77 398.445C1183.76 398.423 1183.75 398.402 1183.73 398.382L1176.02 409.145C1174.84 409.974 1168.05 414.88 1167.66 418.559C1167.26 422.587 1166.86 427.301 1166.86 427.301L1166.8 428.312C1166.46 428.593 1166.07 428.798 1165.65 428.913C1165.22 429.027 1164.78 429.048 1164.35 428.974C1161.94 428.582 1161.94 437.805 1161.94 437.805C1161.94 437.805 1160.34 439.277 1159.23 438.001C1158.13 436.726 1155.22 441.048 1155.22 441.048L1136.99 441.833L1136.58 441.857L1135.59 438.82C1135.49 438.5 1135.26 438.234 1134.96 438.081C1134.66 437.928 1134.31 437.899 1133.99 438.001C1133.91 438.026 1133.84 438.057 1133.77 438.094L1133.7 438.134L1133.57 438.222L1133.51 438.281C1133.47 438.313 1133.44 438.347 1133.41 438.384L1133.35 438.452L1133.32 438.482C1133.21 438.639 1133.13 438.82 1133.1 439.01C1133.07 439.201 1133.08 439.397 1133.14 439.581L1133.99 442.186C1130.47 442.892 1126.87 444.884 1129.81 450.369L1114.94 447.626L1119.75 451.659L1144.58 456.776C1144.25 457.364 1144.47 458.218 1145.5 459.42C1149.92 464.606 1157.98 466.014 1161.22 466.377C1162.08 468.289 1163.15 470.1 1164.41 471.773L1164.13 476.939C1164.13 476.939 1155.92 516.313 1154.41 518.31C1155.17 517.451 1155.87 516.538 1156.49 515.577C1154.11 523.667 1150.78 534.739 1149.9 536.398C1148.5 539.047 1147.2 549.766 1148.8 550.453C1149.29 550.664 1150.69 550.561 1152.7 550.409V551.297L1152.61 584.946C1152.61 584.946 1153.01 605.585 1151.91 607.552C1150.8 609.519 1150.51 613.645 1150.51 613.645C1150.51 613.645 1146.09 621.784 1142.58 625.056C1142.56 625.082 1142.53 625.105 1142.5 625.125L1142.39 624.359C1142.39 624.359 1138.18 629.668 1128.87 629.368C1128.87 629.368 1123.26 633.008 1131.57 633.205C1139.89 633.401 1150.51 632.91 1150.51 632.91C1150.51 632.91 1157.92 621.627 1164.13 623.099V631.65H1166.04V622.961C1166.92 622.382 1167.67 621.629 1168.25 620.75C1168.84 619.87 1169.23 618.882 1169.42 617.844C1169.58 616.775 1169.46 615.682 1169.08 614.673C1168.69 613.664 1168.04 612.774 1167.2 612.09C1166.82 611.75 1166.52 611.335 1166.31 610.872C1166.1 610.41 1165.99 609.909 1165.99 609.402L1165.92 609.46C1165.92 609.289 1165.87 609.112 1165.85 608.931C1165.31 604.515 1164.63 595.405 1167.04 588.665C1170.34 579.422 1171.35 566.549 1168.94 558.886C1168.16 556.437 1167.52 553.945 1167.03 551.424C1166.97 551.105 1166.92 550.801 1166.87 550.517C1168.51 550.739 1170.14 551.067 1171.75 551.498C1177.32 553.033 1189.52 553.318 1199.94 553.234C1199.97 553.519 1200 553.818 1200.03 554.118C1200.22 556.198 1200.6 558.255 1201.19 560.26C1202.5 564.184 1203.1 581.487 1203.1 581.487C1203.1 581.487 1204.78 595.714 1203.86 601.503C1203.37 604.721 1202.88 607.954 1202.6 611.202V611.266C1202.6 611.266 1199.84 619.115 1197.82 623.378C1197.77 623.486 1197.72 623.594 1197.67 623.697C1197.13 623.746 1196.6 623.863 1196.09 624.045C1196.09 624.045 1193.38 629.442 1190.68 630.335C1187.99 631.228 1188.88 634.166 1194.99 633.087C1201.1 632.008 1210.32 631.125 1210.32 631.125L1210.72 625.62L1212.59 623.275L1212.1 628.765L1214.1 628.372L1213.84 621.696L1216.91 617.859C1216.91 617.859 1220.62 614.562 1215.11 608.077V608.219C1215.05 608.126 1214.99 608.028 1214.93 607.935V607.905C1214.01 606.492 1213.29 603.858 1214.62 599.183C1217.03 590.735 1218.43 583.067 1218.43 583.067C1218.43 583.067 1223.8 562.526 1217.34 552.808H1217.63C1216.96 551.44 1216.5 549.987 1216.24 548.491C1216.2 548.314 1216.17 548.132 1216.15 547.946C1220.93 547.671 1225.62 546.808 1229.45 544.944C1229.43 544.924 1227.13 496.18 1225.22 488.418ZM1164.52 454.421V454.519L1163.54 454.568L1164.52 454.421ZM1161.15 454.887C1160.99 454.923 1160.84 454.995 1160.71 455.098C1160.29 455.695 1160.02 456.388 1159.94 457.114L1158.4 456.771C1158.4 456.771 1157.33 456.54 1155.78 456.28L1155.05 455.544C1157.06 455.378 1159.16 455.132 1161.15 454.887Z" fill="url(#paint1_linear)"/>
<path d="M1211.88 621.764L1211.29 628.716L1213.25 628.323L1212.96 620.783L1211.88 621.764Z" fill="#1D2366"/>
<path d="M1167.15 588.758C1164.78 595.479 1165.45 604.55 1165.98 608.955C1166.18 610.584 1166.36 611.575 1166.36 611.575C1166.36 611.575 1162.83 619.611 1162.53 619.915C1162.24 620.219 1152.13 626.376 1152.13 626.376L1145.07 630.492C1145.07 630.492 1137.91 627.357 1141.34 626.278C1142.05 625.996 1142.68 625.566 1143.2 625.017C1146.64 621.754 1150.95 613.645 1150.95 613.645C1150.95 613.645 1151.25 609.529 1152.33 607.572C1153.41 605.614 1153.02 585.044 1153.02 585.044L1153.1 551.513V547.141L1166.54 547.24C1166.63 548.723 1166.82 550.199 1167.12 551.655C1167.6 554.167 1168.23 556.65 1168.99 559.092C1171.36 566.74 1170.38 579.549 1167.15 588.758Z" fill="#FFB0B1"/>
<path opacity="0.1" d="M1166.36 611.575C1166.36 611.575 1162.83 619.611 1162.53 619.915C1162.24 620.219 1152.13 626.376 1152.13 626.376L1145.07 630.492C1145.07 630.492 1137.91 627.357 1141.34 626.278C1142.05 625.996 1142.68 625.566 1143.2 625.017L1143.5 627.161L1145.85 627.063L1166 608.965C1166.18 610.584 1166.36 611.575 1166.36 611.575Z" fill="black"/>
<path d="M1166.11 609.421L1145.85 627.641L1143.5 627.739L1143.01 624.305C1143.01 624.305 1138.89 629.594 1129.74 629.3C1129.74 629.3 1124.25 632.925 1132.39 633.121C1140.53 633.317 1150.93 632.827 1150.93 632.827C1150.93 632.827 1158.19 621.543 1164.27 623.015V631.537H1166.14V622.937C1167.01 622.353 1167.75 621.6 1168.32 620.724C1168.89 619.847 1169.27 618.864 1169.45 617.835C1169.61 616.774 1169.5 615.69 1169.12 614.686C1168.74 613.683 1168.11 612.794 1167.28 612.105C1166.92 611.76 1166.62 611.345 1166.42 610.883C1166.22 610.422 1166.12 609.924 1166.11 609.421Z" fill="#1D2366"/>
<path d="M1213.74 599.237C1212.44 603.897 1213.15 606.522 1214.04 607.93V607.959C1215.19 609.698 1215.99 611.642 1216.39 613.684L1216.47 614.126L1207.25 627.543L1202.25 629.506C1202.25 629.506 1194.21 626.763 1195.68 625.978C1196.04 625.787 1196.62 624.767 1197.28 623.359C1199.24 619.115 1201.96 611.285 1201.96 611.285V611.222C1202.24 607.989 1202.69 604.765 1203.19 601.557C1204.09 595.783 1202.44 581.61 1202.44 581.61C1202.44 581.61 1201.85 564.376 1200.57 560.456C1200 558.463 1199.61 556.419 1199.43 554.353C1199.16 551.9 1199.11 549.879 1199.11 549.879C1199.11 549.879 1204.4 542.52 1214.11 550.468C1214.89 551.101 1215.57 551.841 1216.14 552.665C1222.85 562.193 1217.45 583.18 1217.45 583.18C1217.45 583.18 1216.1 590.813 1213.74 599.237Z" fill="#FFB0B1"/>
<path opacity="0.1" d="M1216.49 614.126L1207.27 627.543L1202.27 629.506C1202.27 629.506 1194.22 626.763 1195.69 625.978C1196.06 625.787 1196.63 624.767 1197.29 623.359C1200.7 623.329 1202.46 626.567 1202.46 626.567L1206.78 625.88C1206.78 625.88 1212.47 614.715 1213.74 614.033C1215.02 613.351 1213.94 608.935 1213.94 608.935V607.812C1213.97 607.851 1214 607.895 1214.04 607.935V607.964C1215.19 609.702 1215.99 611.647 1216.39 613.689L1216.49 614.126Z" fill="black"/>
<path d="M1202.76 626.856C1202.76 626.856 1200.3 622.353 1195.59 624.016C1195.59 624.016 1192.94 629.412 1190.3 630.286C1187.65 631.159 1188.53 634.102 1194.52 633.028C1200.5 631.954 1209.52 631.066 1209.52 631.066L1209.92 625.576L1216 617.839C1216 617.839 1219.63 614.557 1214.23 608.096V609.22C1214.23 609.22 1215.31 613.635 1214.03 614.317C1212.76 614.999 1207.09 626.17 1207.09 626.17L1202.76 626.856Z" fill="#1D2366"/>
<path opacity="0.1" d="M1166.56 547.23C1166.64 548.714 1166.83 550.189 1167.14 551.645C1161.6 550.835 1156.47 551.238 1153.1 551.503V547.132L1166.56 547.23Z" fill="black"/>
<path opacity="0.1" d="M1216.69 553.887C1216.69 553.887 1208.83 554.27 1199.45 554.348C1199.18 551.895 1199.13 549.874 1199.13 549.874C1199.13 549.874 1204.42 542.515 1214.13 550.463C1214.91 551.097 1215.59 551.836 1216.16 552.66C1216.31 553.079 1216.49 553.488 1216.69 553.887Z" fill="black"/>
<path d="M1216.69 553.004C1216.69 553.004 1182.25 554.667 1171.76 551.728C1161.26 548.79 1150.86 551.336 1149.29 550.654C1147.72 549.972 1148.99 539.292 1150.37 536.648C1151.75 534.004 1159.29 507.262 1159.29 507.262L1166.56 469.457L1174.21 467.353L1174.75 467.201L1188.08 463.531L1197.85 460.838C1197.85 460.838 1217.27 536.55 1215.61 542.133C1215 544.27 1214.9 546.519 1215.32 548.701C1215.58 550.192 1216.04 551.639 1216.69 553.004Z" fill="#1D2366"/>
<path d="M1141.24 443.604C1141.24 443.604 1134.36 450.962 1139.57 455.064C1144.78 459.165 1148.2 455.456 1148.2 455.456L1141.24 443.604Z" fill="#C7DAF5"/>
<path opacity="0.1" d="M1141.24 443.604C1141.24 443.604 1134.36 450.962 1139.57 455.064C1144.78 459.165 1148.2 455.456 1148.2 455.456L1141.24 443.604Z" fill="black"/>
<path d="M1196.82 395.222C1196.82 395.222 1196.01 395.987 1194.8 397.116C1193.07 398.73 1190.51 401.09 1188.24 403.067C1185.1 405.799 1182.5 407.806 1183.43 406.093C1184.36 404.381 1184.18 401.399 1183.72 398.607C1183.69 398.421 1183.66 398.234 1183.62 398.053C1183.24 396.003 1182.73 393.978 1182.1 391.989C1182.1 391.989 1187.18 385.435 1190 382.85C1191.04 381.868 1191.77 381.466 1191.82 382.148C1191.87 383.065 1192.56 385.092 1193.41 387.24C1193.44 387.309 1193.46 387.373 1193.49 387.441C1194.06 388.913 1194.7 390.424 1195.27 391.729C1196.13 393.731 1196.82 395.222 1196.82 395.222Z" fill="#FFB0B1"/>
<path opacity="0.1" d="M1193.49 387.441C1193.01 390.005 1191.85 392.394 1190.13 394.359C1188.42 396.323 1186.2 397.79 1183.72 398.607C1183.33 396.368 1182.79 394.157 1182.1 391.989C1182.1 391.989 1191.67 379.651 1191.82 382.148C1191.85 383.095 1192.6 385.195 1193.49 387.441Z" fill="black"/>
<path opacity="0.1" d="M1182.77 401.904L1184.01 400.162C1184.01 400.162 1184.83 405.156 1187.84 402.954C1190.86 400.751 1191.01 419.531 1191.01 419.531L1187.77 467.868L1164.37 466.47L1165.03 443.113L1167.68 431.339L1174.23 414.222L1178.13 408.566L1182.77 401.904Z" fill="black"/>
<path d="M1191.01 419.83L1188.06 463.536L1187.75 468.167L1174.7 467.387L1174.21 467.358L1164.38 466.769L1165.05 443.407L1167.7 431.633L1174.25 414.517L1178.14 408.86L1182.78 402.174L1184.02 400.437C1184.02 400.437 1184.84 405.431 1187.86 403.228L1187.92 403.184C1190.87 401.32 1191.01 419.83 1191.01 419.83Z" fill="#1D2366"/>
<path d="M1168.03 427.542C1168.03 427.542 1166.85 429.995 1164.49 429.597C1162.13 429.2 1162.14 438.428 1162.14 438.428C1162.14 438.428 1160.57 439.9 1159.49 438.624C1158.41 437.349 1155.56 441.661 1155.56 441.661L1137.7 442.446C1137.7 442.446 1145.65 446.071 1144.09 457.041C1144.09 457.041 1171.07 455.373 1171.95 452.827C1172.84 450.28 1168.03 427.542 1168.03 427.542Z" fill="white"/>
<path opacity="0.03" d="M1168.03 427.542C1168.03 427.542 1166.85 429.995 1164.49 429.597C1162.13 429.2 1162.14 438.428 1162.14 438.428C1162.14 438.428 1160.57 439.9 1159.49 438.624C1158.41 437.349 1155.56 441.661 1155.56 441.661L1137.7 442.446C1137.7 442.446 1145.65 446.071 1144.09 457.041C1144.09 457.041 1171.07 455.373 1171.95 452.827C1172.84 450.28 1168.03 427.542 1168.03 427.542Z" fill="black"/>
<path d="M1116.13 448.21L1120.84 452.223L1159.59 460.352L1154.78 455.456L1116.13 448.21Z" fill="white"/>
<path d="M1182.84 403.449C1182.2 404.43 1180.35 409.454 1178.82 413.84C1177.53 417.495 1176.46 420.708 1176.46 420.708C1176.46 420.708 1173.96 436.966 1172.68 439.905C1171.41 442.843 1172.1 454.303 1172.1 454.303L1167.34 482.605C1167.34 482.605 1165.18 497.2 1161.85 505.918C1158.56 514.498 1154.9 518.521 1154.79 518.648C1156.26 516.656 1164.3 477.439 1164.3 477.439L1166.95 427.978C1166.95 427.978 1167.34 423.279 1167.73 419.261C1168.12 415.243 1176.08 409.758 1176.08 409.758L1183.76 398.862C1184.53 399.893 1184.02 401.688 1182.84 403.449Z" fill="white"/>
<path d="M1162.83 467.014C1162.83 467.014 1151.52 466.524 1146.05 459.96C1140.58 453.396 1158.7 457.34 1158.7 457.34L1163.42 458.419L1162.83 467.014Z" fill="#FFB0B1"/>
<path opacity="0.1" d="M1215.61 542.137C1215 544.275 1214.9 546.524 1215.32 548.706C1202.99 549.58 1189.8 546.253 1189.8 546.253C1187.35 548.51 1180.88 551.836 1180.88 551.836L1177.35 508.174C1175.09 502.287 1174.21 471.444 1174.21 471.444C1174.21 471.444 1174.41 469.83 1174.7 467.412C1174.7 467.353 1174.7 467.289 1174.72 467.23C1175.6 460.475 1177.35 447.793 1178.2 446.081C1179.38 443.726 1174.58 437.461 1174.58 437.461L1176.76 418.844L1177.03 416.597C1181.64 414.541 1185.17 407.977 1185.17 407.977L1187.88 403.233C1190.83 401.345 1190.98 419.854 1190.98 419.854L1188.03 463.561L1197.8 460.867C1197.8 460.867 1217.27 536.555 1215.61 542.137Z" fill="black"/>
<path d="M1228.26 545.154C1214.82 551.817 1190.39 545.645 1190.39 545.645C1187.94 547.902 1181.46 551.228 1181.46 551.228L1177.93 507.566C1175.68 501.679 1174.8 470.836 1174.8 470.836C1174.8 470.836 1177.64 447.823 1178.82 445.473C1179.16 444.786 1178.99 443.765 1178.59 442.667C1176.58 437.436 1175.84 431.806 1176.43 426.237L1177.38 418.235L1177.64 415.993C1182.25 413.933 1185.78 407.369 1185.78 407.369L1188.24 403.071L1192.76 395.153L1194.9 391.405L1195.27 391.734L1198.04 394.246C1198.04 394.246 1199.22 395.227 1200.99 396.699C1204.84 399.937 1211.49 405.637 1214.92 409.125C1217.94 412.196 1218.89 424.142 1219.16 433.134C1219.35 439.056 1219.24 443.697 1219.24 443.697C1216.2 448.696 1224.15 488.831 1224.15 488.831C1226 496.587 1228.26 545.154 1228.26 545.154Z" fill="white"/>
<path opacity="0.03" d="M1202.46 407.271C1202.46 407.271 1193.24 424.799 1194.31 431.462C1195.38 438.124 1198.43 445.664 1196.96 447.425C1196.45 448.092 1195.8 448.634 1195.05 449.008C1194.3 449.381 1193.48 449.577 1192.64 449.579C1191.16 449.677 1187.23 452.419 1187.23 452.714C1187.23 453.008 1183.6 453.008 1180.35 454.382C1177.11 455.755 1172.31 456.535 1172.31 456.535C1172.31 456.535 1162.97 456.241 1162.1 457.124C1161.23 458.007 1160.34 463.291 1162.2 467.505C1164.06 471.719 1166.13 474.864 1167.7 475.438C1169.26 476.012 1179.18 472.695 1187.22 471.91C1195.26 471.125 1203.99 464.762 1203.99 464.762C1203.99 464.762 1213.61 461.328 1215.3 455.554C1216.98 449.78 1213.24 418.044 1213.24 418.044C1213.24 418.044 1210.41 403.253 1202.46 407.271Z" fill="black"/>
<path opacity="0.03" d="M1201.28 405.799C1201.28 405.799 1192.06 423.333 1193.14 429.99C1194.22 436.647 1197.26 444.192 1195.78 445.958C1195.28 446.626 1194.63 447.169 1193.88 447.542C1193.13 447.916 1192.31 448.111 1191.47 448.112C1190 448.21 1186.06 450.953 1186.06 451.247C1186.06 451.541 1182.43 451.541 1179.18 452.91C1175.94 454.279 1171.14 455.064 1171.14 455.064C1171.14 455.064 1161.8 454.769 1160.94 455.652C1160.07 456.535 1159.17 461.824 1161.04 466.033C1162.91 470.242 1164.97 473.392 1166.53 473.966C1168.09 474.54 1178.01 471.223 1186.05 470.443C1194.1 469.663 1202.83 463.291 1202.83 463.291C1202.83 463.291 1212.44 459.857 1214.11 454.087C1215.77 448.318 1212.05 416.572 1212.05 416.572C1212.05 416.572 1209.23 401.786 1201.28 405.799Z" fill="black"/>
<path d="M1202.17 406.388C1202.17 406.388 1192.95 423.921 1194.03 430.579C1195.11 437.236 1198.15 444.781 1196.68 446.542C1196.18 447.212 1195.52 447.755 1194.77 448.13C1194.02 448.505 1193.2 448.7 1192.36 448.701C1190.88 448.799 1186.95 451.541 1186.95 451.831C1186.95 452.12 1183.33 452.125 1180.07 453.499C1176.82 454.872 1172.03 455.652 1172.03 455.652C1172.03 455.652 1162.69 455.358 1161.82 456.241C1160.95 457.124 1160.06 462.413 1161.92 466.622C1163.78 470.831 1165.85 473.981 1167.42 474.555C1168.98 475.129 1178.9 471.812 1186.94 471.027C1194.98 470.242 1203.71 463.879 1203.71 463.879C1203.71 463.879 1213.33 460.445 1215.02 454.671C1216.7 448.897 1212.98 417.161 1212.98 417.161C1212.98 417.161 1210.11 402.394 1202.17 406.388Z" fill="white"/>
<path opacity="0.1" d="M1201.97 453.415C1201.97 453.415 1194.6 451.944 1197.16 454.396C1199.73 456.849 1199.71 458.998 1202.85 458.9C1205.99 458.802 1201.97 453.415 1201.97 453.415Z" fill="black"/>
<path opacity="0.1" d="M1214.43 506.192C1214.43 506.192 1211.1 508.444 1217.47 513.634C1223.84 518.825 1214.43 506.192 1214.43 506.192Z" fill="black"/>
<path opacity="0.1" d="M1208.07 524.702C1208.07 524.996 1206.89 535.495 1211.3 538.12C1215.71 540.744 1208.07 524.702 1208.07 524.702Z" fill="black"/>
<path d="M1138.01 442.421C1134.45 442.544 1126.76 443.628 1130.75 451.051C1134.27 457.62 1140.19 453.229 1143.53 449.898C1142.71 446.792 1140.74 444.116 1138.01 442.421Z" fill="#FFB0B1"/>
<path d="M1143.57 449.839L1143.72 449.687L1143.57 449.839Z" fill="#FFB0B1"/>
<path opacity="0.1" d="M1200.99 396.998C1197.22 399.574 1194.05 401.747 1193.44 402.198C1191.74 403.449 1188.52 410.793 1186.44 414.541C1184.79 417.558 1179.41 418.334 1177.38 418.525L1177.64 416.283C1182.25 414.222 1185.78 407.658 1185.78 407.658L1194.9 391.695L1198.04 394.545C1198.04 394.545 1199.22 395.526 1200.99 396.998Z" fill="black"/>
<path d="M1200.99 396.704C1197.22 399.279 1194.05 401.453 1193.44 401.909C1191.74 403.155 1188.52 410.499 1186.44 414.247C1184.79 417.264 1179.41 418.039 1177.38 418.231L1177.64 415.989C1182.25 413.928 1185.78 407.364 1185.78 407.364L1194.9 391.401L1198.04 394.241C1198.04 394.241 1199.22 395.212 1200.99 396.704Z" fill="#DCE7FF"/>
<path d="M1193.73 384.204C1193.73 387.149 1192.84 390.025 1191.16 392.45C1189.19 395.318 1186.25 397.385 1182.88 398.274C1179.51 399.163 1175.93 398.817 1172.79 397.297C1169.66 395.778 1167.17 393.186 1165.78 389.993C1164.4 386.799 1164.2 383.215 1165.24 379.891C1166.27 376.567 1168.46 373.723 1171.42 371.875C1174.37 370.027 1177.89 369.298 1181.34 369.82C1184.79 370.342 1187.93 372.08 1190.21 374.719C1192.48 377.358 1193.73 380.723 1193.73 384.204Z" fill="#FFB0B1"/>
<path opacity="0.1" d="M1219.16 433.139C1217.17 431.914 1215.54 430.171 1214.46 428.096C1213.64 426.477 1213.1 424.608 1211.69 423.46C1210.43 422.43 1208.75 422.18 1207.17 421.719C1202 420.193 1197.67 415.483 1197.51 410.106C1197.43 407.575 1198.22 405.049 1197.86 402.542C1197.66 401.123 1197.09 399.78 1196.22 398.642C1195.79 398.097 1195.31 397.587 1194.8 397.116C1194.11 396.468 1193.39 395.84 1192.76 395.153C1192.37 394.728 1192.02 394.259 1191.73 393.755C1191.5 393.343 1191.31 392.907 1191.16 392.455C1190.18 389.453 1191.08 385.891 1190 382.855L1189.94 382.688C1189.53 381.608 1188.7 380.529 1187.54 380.446C1186.39 380.362 1185.4 381.319 1184.3 381.746C1182 382.639 1179.51 381.118 1177.59 379.568C1175.67 378.017 1173.5 376.246 1171.06 376.59C1169.44 376.82 1168.16 377.919 1166.67 378.488C1166.34 378.618 1165.99 378.718 1165.64 378.788C1166.9 375.65 1169.21 373.049 1172.18 371.431C1175.16 369.813 1178.6 369.278 1181.93 369.92C1185.25 370.561 1188.25 372.338 1190.4 374.946C1192.55 377.553 1193.73 380.828 1193.73 384.209C1193.73 385.229 1193.62 386.247 1193.41 387.245C1193.44 387.314 1193.46 387.378 1193.49 387.446C1194.06 388.918 1194.7 390.429 1195.27 391.734L1198.04 394.246C1198.04 394.246 1199.22 395.227 1200.99 396.699C1204.84 399.937 1211.49 405.637 1214.92 409.125C1217.94 412.206 1218.88 424.147 1219.16 433.139Z" fill="black"/>
<path d="M1166.5 369.525C1167.2 368.098 1167.55 366.498 1168.39 365.144C1169.63 363.182 1171.78 361.926 1173.99 361.166C1179.76 359.179 1191.97 356.294 1195.61 361.166C1196.33 362.147 1196.92 363.236 1197.92 363.913C1198.67 364.428 1199.59 364.649 1200.42 365.036C1202.74 366.126 1204.23 368.5 1205.02 370.924C1205.81 373.347 1206.04 375.947 1206.62 378.444C1207.37 381.648 1208.67 384.684 1209.97 387.701C1211.49 391.263 1213.12 394.957 1216.06 397.474C1220.09 400.908 1220.98 405.77 1224.71 409.537C1229.13 414.012 1228.99 421.395 1226.71 427.257C1226.41 428.028 1226.07 428.832 1226.19 429.651C1226.31 430.471 1226.92 431.216 1227.49 431.869L1229.91 434.592C1224.19 435.97 1217.72 432.987 1215.06 427.753C1214.24 426.134 1213.69 424.27 1212.28 423.117C1211.03 422.087 1209.34 421.841 1207.77 421.38C1202.6 419.849 1198.27 415.135 1198.1 409.758C1198.02 407.232 1198.82 404.705 1198.46 402.203C1198.26 400.775 1197.69 399.423 1196.81 398.278C1195.46 396.517 1193.42 395.335 1192.32 393.373C1190.46 390.091 1191.87 385.827 1190.53 382.305C1190.12 381.226 1189.29 380.146 1188.14 380.063C1186.98 379.98 1186 380.936 1184.89 381.363C1182.59 382.256 1180.1 380.74 1178.18 379.185C1176.26 377.63 1174.09 375.864 1171.65 376.212C1170.03 376.438 1168.76 377.537 1167.27 378.111C1166.17 378.532 1163.94 378.91 1162.97 377.983C1160.94 376.114 1165.65 371.272 1166.5 369.525Z" fill="#591D4B"/>
<path opacity="0.1" d="M1216.42 426.134C1215.6 424.515 1215.06 422.651 1213.65 421.503C1212.39 420.473 1210.7 420.222 1209.13 419.761C1203.97 418.235 1199.63 413.521 1199.46 408.144C1199.39 405.618 1200.18 403.086 1199.82 400.584C1199.62 399.165 1199.05 397.822 1198.18 396.684C1196.82 394.923 1194.78 393.741 1193.69 391.778C1191.82 388.501 1193.24 384.238 1191.89 380.711C1191.48 379.636 1190.65 378.557 1189.5 378.469C1188.35 378.38 1187.36 379.347 1186.26 379.774C1183.96 380.666 1181.46 379.146 1179.55 377.595C1177.63 376.045 1175.46 374.274 1173.01 374.618C1171.4 374.848 1170.12 375.947 1168.63 376.516C1167.53 376.938 1165.3 377.321 1164.34 376.393C1162.31 374.431 1167.02 369.599 1167.87 367.862C1168.57 366.43 1168.92 364.835 1169.77 363.481C1169.81 363.408 1169.86 363.334 1169.91 363.261C1169.28 363.783 1168.73 364.403 1168.29 365.095C1167.45 366.449 1167.1 368.039 1166.4 369.476C1165.55 371.213 1160.84 376.06 1162.87 378.008C1163.85 378.94 1166.06 378.557 1167.16 378.135C1168.63 377.561 1169.92 376.462 1171.54 376.237C1174 375.888 1176.16 377.659 1178.07 379.209C1179.99 380.76 1182.5 382.281 1184.79 381.388C1185.89 380.961 1186.85 379.999 1188.03 380.088C1189.21 380.176 1190 381.25 1190.42 382.33C1191.76 385.852 1190.35 390.115 1192.21 393.397C1193.31 395.325 1195.35 396.532 1196.7 398.303C1197.58 399.447 1198.15 400.799 1198.35 402.228C1198.71 404.73 1197.92 407.256 1198 409.783C1198.16 415.179 1202.49 419.874 1207.66 421.405C1209.22 421.866 1210.92 422.111 1212.18 423.141C1213.59 424.294 1214.14 426.158 1214.95 427.777C1217.61 433.012 1224.08 435.995 1229.8 434.616L1228.66 433.331C1223.7 433.404 1218.69 430.588 1216.42 426.134Z" fill="black"/>
<path opacity="0.1" d="M1182.55 403.744C1181.9 404.725 1180.06 409.748 1178.52 414.134C1177.08 413.575 1175.77 410.008 1175.77 410.008L1183.45 399.108C1184.24 400.187 1183.72 401.977 1182.55 403.744Z" fill="black"/>
<path d="M1182.84 403.449C1182.2 404.43 1180.35 409.454 1178.82 413.84C1177.38 413.285 1176.07 409.714 1176.07 409.714L1183.74 398.818C1184.53 399.892 1184.02 401.688 1182.84 403.449Z" fill="#DCE7FF"/>
<path d="M1138.21 453.567L1133.96 440.169C1133.91 440.013 1133.89 439.847 1133.9 439.683C1133.92 439.519 1133.96 439.359 1134.04 439.213C1134.11 439.067 1134.22 438.937 1134.34 438.831C1134.47 438.724 1134.62 438.644 1134.77 438.595C1135.09 438.496 1135.43 438.526 1135.73 438.679C1136.02 438.831 1136.24 439.094 1136.35 439.409L1140.6 452.792L1140.18 455.593L1138.21 453.567Z" fill="#BE8B87"/>
<path opacity="0.1" d="M1134.36 438.992C1134.68 438.892 1135.02 438.921 1135.32 439.074C1135.61 439.227 1135.84 439.49 1135.94 439.806L1140.19 453.19L1139.87 455.289L1140.18 455.613L1140.61 452.812L1136.33 439.429C1136.22 439.113 1136 438.851 1135.71 438.698C1135.41 438.546 1135.07 438.516 1134.75 438.614C1134.49 438.701 1134.26 438.873 1134.1 439.105C1134.18 439.06 1134.27 439.022 1134.36 438.992Z" fill="white"/>
<path d="M1138.21 453.567L1140.6 452.812L1140.25 455.108L1140.18 455.613L1139.48 454.887L1138.21 453.567Z" fill="#EFC8C4"/>
<path d="M1139.48 454.887C1139.52 454.835 1139.57 454.791 1139.63 454.759C1139.67 454.738 1139.71 454.726 1139.75 454.726C1139.79 454.726 1139.83 454.738 1139.86 454.759C1139.9 454.8 1139.93 454.844 1139.95 454.892C1139.98 454.946 1140.02 454.992 1140.08 455.027C1140.13 455.062 1140.19 455.084 1140.25 455.093L1140.18 455.584L1139.48 454.887Z" fill="#727A9C"/>
<path d="M1133.93 444.928C1133.93 444.928 1142.47 444.879 1140.46 448.504C1138.45 452.13 1135.31 452.567 1135.31 452.567L1133.93 444.928Z" fill="#FFB0B1"/>
<path d="M1080.85 282.226H1080.48C1065.82 282.226 1052.85 289.972 1045.39 301.403C1037.93 289.972 1024.96 282.226 1010.3 282.226H1009.93C998.928 282.331 988.41 286.767 980.664 294.57C972.917 302.374 968.569 312.914 968.563 323.901C968.563 337.544 974.548 356.903 986.218 372.832C1008.45 403.184 1045.39 429.74 1045.39 429.74C1045.39 429.74 1082.33 403.189 1104.56 372.832C1116.23 356.903 1122.21 337.544 1122.21 323.901C1122.21 312.915 1117.86 302.375 1110.11 294.572C1102.37 286.769 1091.85 282.332 1080.85 282.226ZM1075.58 375.167C1073.91 375.161 1072.28 374.65 1070.9 373.703C1069.53 372.756 1068.47 371.416 1067.88 369.859H1059.11C1058.53 369.855 1057.97 369.672 1057.5 369.334C1057.04 368.996 1056.69 368.521 1056.5 367.975L1053.81 359.876L1045.29 389.6C1045.12 390.172 1044.77 390.675 1044.3 391.034C1043.82 391.392 1043.24 391.586 1042.64 391.587H1042.47C1041.85 391.557 1041.26 391.314 1040.79 390.9C1040.33 390.486 1040.02 389.925 1039.92 389.311L1031.14 336.583L1024.72 367.784C1024.57 368.376 1024.23 368.903 1023.75 369.279C1023.27 369.655 1022.67 369.859 1022.06 369.859H1009.71C1009.34 369.875 1008.97 369.815 1008.62 369.685C1008.28 369.554 1007.96 369.355 1007.69 369.099C1007.43 368.843 1007.21 368.535 1007.07 368.195C1006.92 367.855 1006.85 367.489 1006.85 367.119C1006.85 366.749 1006.92 366.383 1007.07 366.043C1007.21 365.703 1007.43 365.395 1007.69 365.139C1007.96 364.883 1008.28 364.684 1008.62 364.553C1008.97 364.423 1009.34 364.363 1009.71 364.379H1019.9L1028.99 322.429C1029.14 321.809 1029.5 321.26 1030.01 320.875C1030.52 320.491 1031.15 320.296 1031.78 320.322C1032.42 320.349 1033.03 320.596 1033.51 321.022C1033.98 321.447 1034.3 322.024 1034.39 322.655L1043.36 376.443L1051 349.848C1051.16 349.288 1051.49 348.794 1051.96 348.44C1052.42 348.087 1052.98 347.892 1053.57 347.886H1053.62C1054.2 347.886 1054.76 348.068 1055.23 348.406C1055.7 348.745 1056.05 349.222 1056.23 349.769L1061.1 364.394H1067.77C1068.24 362.955 1069.11 361.675 1070.26 360.694C1071.42 359.714 1072.83 359.073 1074.33 358.84C1075.83 358.607 1077.36 358.793 1078.76 359.376C1080.16 359.959 1081.37 360.917 1082.26 362.144C1083.15 363.372 1083.69 364.821 1083.8 366.331C1083.92 367.842 1083.62 369.355 1082.93 370.704C1082.24 372.053 1081.19 373.186 1079.89 373.977C1078.6 374.768 1077.11 375.187 1075.59 375.187L1075.58 375.167Z" fill="#EF476F"/>
</g>
<defs>
<linearGradient id="paint0_linear" x1="909.095" y1="637.139" x2="909.095" y2="335.263" gradientUnits="userSpaceOnUse">
<stop stop-color="#808080" stop-opacity="0.25"/>
<stop offset="0.54" stop-color="#808080" stop-opacity="0.12"/>
<stop offset="1" stop-color="#808080" stop-opacity="0.1"/>
</linearGradient>
<linearGradient id="paint1_linear" x1="110419" y1="228027" x2="110419" y2="73071" gradientUnits="userSpaceOnUse">
<stop stop-color="#808080" stop-opacity="0.25"/>
<stop offset="0.54" stop-color="#808080" stop-opacity="0.12"/>
<stop offset="1" stop-color="#808080" stop-opacity="0.1"/>
</linearGradient>
<clipPath id="clip0">
<rect width="543" height="384" fill="white" transform="translate(734 257)"/>
</clipPath>
</defs>
</svg>
