<svg width="21" height="24" viewBox="0 0 21 24" fill="none" xmlns="http://www.w3.org/2000/svg">
<path d="M10.5 5.75625C7.09219 5.75625 4.32188 8.52656 4.31719 11.9344C4.31719 13.1016 4.64531 14.2406 5.26406 15.2203L5.40938 15.4547L4.78594 17.7328L7.125 17.1188L7.35 17.2547C8.29688 17.8172 9.38437 18.1172 10.4953 18.1172H10.5C13.9031 18.1172 16.7484 15.3469 16.7484 11.9391C16.7484 10.2891 16.0359 8.7375 14.8688 7.57031C13.6969 6.39844 12.15 5.75625 10.5 5.75625ZM14.1328 14.5875C13.9781 15.0234 13.2375 15.4172 12.8812 15.4688C12.2906 15.5578 11.8313 15.5109 10.6547 15.0047C8.79375 14.1984 7.575 12.3234 7.48125 12.2016C7.3875 12.0797 6.72187 11.1938 6.72187 10.2797C6.72187 9.36563 7.2 8.91562 7.37344 8.72812C7.54219 8.54062 7.74375 8.49375 7.87031 8.49375C7.99219 8.49375 8.11875 8.49375 8.22656 8.49844C8.33906 8.50313 8.49375 8.45625 8.64375 8.81719C8.79844 9.1875 9.16875 10.1016 9.21563 10.1953C9.2625 10.2891 9.29531 10.3969 9.22969 10.5187C8.87344 11.2312 8.49375 11.2031 8.68594 11.5312C9.40312 12.7641 10.1203 13.1906 11.2125 13.7391C11.4 13.8328 11.5078 13.8188 11.6156 13.6922C11.7234 13.5703 12.0797 13.1484 12.2016 12.9656C12.3234 12.7781 12.45 12.8109 12.6188 12.8719C12.7875 12.9328 13.7016 13.3828 13.8891 13.4766C14.0766 13.5703 14.1984 13.6172 14.2453 13.6922C14.2875 13.7812 14.2875 14.1563 14.1328 14.5875ZM18.75 1.5H2.25C1.00781 1.5 0 2.50781 0 3.75V20.25C0 21.4922 1.00781 22.5 2.25 22.5H18.75C19.9922 22.5 21 21.4922 21 20.25V3.75C21 2.50781 19.9922 1.5 18.75 1.5ZM10.4953 19.3688C9.24844 19.3688 8.025 19.0547 6.94219 18.4641L3 19.5L4.05469 15.6469C3.40313 14.5219 3.06094 13.2422 3.06094 11.9297C3.06563 7.83281 6.39844 4.5 10.4953 4.5C12.4828 4.5 14.3484 5.27344 15.7547 6.67969C17.1562 8.08594 18 9.95156 18 11.9391C18 16.0359 14.5922 19.3688 10.4953 19.3688Z" fill="white"/>
</svg>
