<svg width="1440" height="472" viewBox="0 0 1440 772" fill="none" xmlns="http://www.w3.org/2000/svg">
<path fill-rule="evenodd" clip-rule="evenodd" d="M0 75.5417C66.9861 37.2706 207.954 -31.9491 355 16.7479C541.179 78.4044 589 90.7479 727 66.7479C763.452 60.4085 798.927 49.3246 834.604 38.1774C933.996 7.12311 1034.96 -24.4227 1163 44.7479C1236.9 84.669 1406.05 52.9453 1440 46.0103V725.282C1403.85 717.957 1237.2 687.205 1164 726.748C1035.96 795.919 934.996 764.373 835.604 733.318L835.604 733.318C799.926 722.171 764.451 711.087 728 704.748C590 680.748 542.179 693.091 356 754.748C208.218 803.689 66.5755 733.53 0 695.382L0 75.5417Z" fill="#F0F1F3"/>
</svg>
