<svg width="443" height="384" viewBox="0 0 543 384" fill="none" xmlns="http://www.w3.org/2000/svg">
<g clip-path="url(#clip0)">
<path opacity="0.1" d="M180.525 383.784C206.969 383.784 228.406 380.347 228.406 376.106C228.406 371.866 206.969 368.429 180.525 368.429C154.081 368.429 132.645 371.866 132.645 376.106C132.645 380.347 154.081 383.784 180.525 383.784Z" fill="#118AB2"/>
<path opacity="0.1" d="M440.797 384C473.794 384 500.544 380.563 500.544 376.322C500.544 372.082 473.794 368.645 440.797 368.645C407.799 368.645 381.049 372.082 381.049 376.322C381.049 380.563 407.799 384 440.797 384Z" fill="#118AB2"/>
<path opacity="0.1" d="M6.80089 165.916H56.6716V233.778H10.4519C10.329 234.475 10.2111 235.176 10.0833 235.878H56.6716V290.607C56.588 290.583 56.5143 290.553 56.4357 290.524C55.1188 290.004 53.8117 289.455 52.5046 288.866L51.6693 288.488C50.3589 287.87 49.0485 287.216 47.7382 286.526C47.2812 286.285 46.8242 286.035 46.3721 285.78C39.0976 281.712 32.489 276.557 26.7757 270.493C26.6086 270.332 26.4514 270.16 26.2843 270.003C25.4883 269.139 24.707 268.266 23.9502 267.373L23.1149 266.392C22.2205 265.298 21.3557 264.175 20.5154 263.037C20.3926 262.87 20.2747 262.703 20.1469 262.546C16.7296 257.815 13.8921 252.693 11.6951 247.289C11.6263 247.127 11.5673 246.95 11.5034 246.798C10.8286 245.065 10.2308 243.315 9.70989 241.549C9.48385 240.808 9.26764 240.077 9.08092 239.307C9.01212 239.081 8.95315 238.861 8.8991 238.64C6.10804 227.764 5.77881 216.465 5.77881 205.246C5.77881 203.936 5.77881 202.621 5.77881 201.321C5.77881 196.783 5.83286 192.216 5.91148 187.653C5.91148 186.471 5.96062 185.294 5.98519 184.106C6.05398 181.094 6.15226 178.082 6.28002 175.07C6.3095 174.231 6.34882 173.397 6.39304 172.563C6.39304 172.082 6.41761 171.601 6.46675 171.121C6.58468 169.374 6.68296 167.642 6.80089 165.916Z" fill="#118AB2"/>
<path opacity="0.1" d="M56.6713 90.3558H29.3159C33.7627 83.4071 38.6213 76.7298 43.8658 70.3596C47.9296 65.3753 52.2194 60.5185 56.6713 55.8383V90.3558Z" fill="#118AB2"/>
<path opacity="0.1" d="M56.6714 92.4555V163.816H6.95801C6.95801 163.61 6.9924 163.399 7.00715 163.193C7.05137 162.629 7.09559 162.065 7.14473 161.505C7.19879 160.848 7.25775 160.186 7.32163 159.543C7.38551 158.9 7.45431 158.115 7.52801 157.404C7.60172 156.693 7.67052 155.971 7.75405 155.26C7.83759 154.549 7.91129 153.837 7.99974 153.131C8.08819 152.425 8.16682 151.708 8.26018 151.002C8.33389 150.413 8.4125 149.829 8.49113 149.241C8.60415 148.412 8.72208 147.578 8.84984 146.753C8.84984 146.631 8.88424 146.503 8.90389 146.385C9.80076 140.352 11.0228 134.371 12.5647 128.469C14.1787 122.278 16.2397 116.212 18.7316 110.318C21.38 104.152 24.4809 98.1898 28.0089 92.4801L56.6714 92.4555Z" fill="#118AB2"/>
<path opacity="0.1" d="M68.5776 165.911V233.778H175.095V165.911H68.5776ZM68.5776 235.873V294.154C69.187 294.282 69.7914 294.404 70.3908 294.508C71.2065 294.665 72.0173 294.807 72.8478 294.929C73.005 294.954 73.1672 294.979 73.3392 294.993C73.6635 295.047 73.9976 295.091 74.3219 295.135C75.1425 295.248 75.9582 295.342 76.7789 295.415C77.167 295.454 77.5602 295.489 77.9533 295.518L78.9016 295.592C79.4176 295.631 79.9286 295.66 80.4347 295.675C80.7492 295.675 81.0637 295.705 81.388 295.714C81.6337 295.714 81.8794 295.714 82.1349 295.714C82.3905 295.714 82.7541 295.714 83.0637 295.714C83.4863 295.714 83.9088 295.714 84.3265 295.714H84.8916C85.3142 295.714 85.7368 295.714 86.1545 295.675H86.184C86.4739 295.675 86.7687 295.675 87.0635 295.636C87.1454 295.641 87.2274 295.641 87.3092 295.636C87.5549 295.636 87.8006 295.636 88.0365 295.602H88.2085L89.8546 295.474C90.3951 295.425 90.9406 295.361 91.4909 295.302L92.6113 295.17C97.1693 294.532 101.677 293.575 106.1 292.305C116.036 289.538 125.755 285.667 135.686 282.832C148.526 279.177 162.712 277.381 175.12 281.85V235.873H68.5776ZM175.095 90.3558V0.00489488C163.433 -0.121246 151.803 1.24052 140.487 4.05712C113.515 10.8223 89.3141 25.4957 68.5776 44.236V90.3509H73.9239V92.4457H68.5776V163.816H175.095V92.4506H95.8741V90.3558H175.095ZM311.911 59.8366C305.238 59.6011 298.605 57.4916 292.605 54.2341C281.131 48.0037 271.967 38.3833 261.726 30.2641C240.449 13.3537 214.062 3.14954 186.992 0.618125V90.3558H339.051L339.429 89.9584L311.911 59.8366ZM325.764 57.3836L340.451 73.4748V53.1646C335.532 53.7729 331.223 55.2202 325.783 57.364L325.764 57.3836ZM340.451 308.627V235.873H309.155C309.071 235.564 308.988 235.25 308.889 234.936C308.983 235.25 309.061 235.564 309.15 235.873H187.011V288.488C188.171 289.347 189.316 290.249 190.451 291.167C191.674 292.148 192.883 293.183 194.097 294.198L195.321 295.209C195.905 295.7 196.495 296.19 197.09 296.651C198.269 297.606 199.46 298.548 200.662 299.477C201.256 299.968 201.866 300.409 202.47 300.87C212.066 308.195 222.188 314.804 232.754 320.646C235.123 321.954 237.512 323.231 239.924 324.477C241.53 325.297 243.147 326.111 244.769 326.901C247.206 328.088 249.663 329.233 252.139 330.335C274.972 340.568 299.116 347.589 323.882 351.199C329.382 352.011 334.903 352.648 340.446 353.113V308.622H340.938L340.451 308.627ZM187.011 92.4506V163.816H340.471V92.4506H187.011ZM187.011 165.911V233.778H340.471V165.911H187.011ZM352.382 53.0763V75.7315L371.128 55.1956C364.917 54.1948 358.668 53.4802 352.382 53.0518V53.0763ZM352.382 165.935V233.778H501.64V165.911L352.382 165.935ZM501.095 314.013L501.62 235.873H352.382V353.893C361.996 354.296 371.625 354.181 381.226 353.549H381.393C385.98 353.262 390.544 352.843 395.088 352.293H395.191C419.432 349.477 443.134 343.163 465.558 333.548L501.095 314.013ZM530.421 177.086C529.86 175.767 529.276 174.457 528.681 173.162C527.57 170.709 526.396 168.324 525.187 165.94H513.541V233.778H542.985C542.97 214.567 538.101 194.943 530.435 177.062L530.421 177.086ZM513.541 235.897V303.107C521.836 295.17 528.843 286.089 533.89 275.708C539.958 263.208 542.735 249.673 542.961 235.888L513.541 235.897ZM513.541 146.16V163.821H524.096C520.903 157.741 517.385 151.837 513.556 146.135L513.541 146.16ZM412.316 66.3908C411.54 66.0964 410.763 65.7971 409.982 65.5077C401.742 62.4697 393.322 59.9432 384.769 57.9429L356.082 89.3746L355.532 89.9584L355.9 90.3607H458C443.781 80.5885 428.45 72.5341 412.331 66.3662L412.316 66.3908ZM460.993 92.4751H354.475L352.382 94.3884V163.816H370.73H370.76H501.66V130.186C489.818 115.889 476.151 103.202 461.007 92.4506L460.993 92.4751Z" fill="#118AB2"/>
<path opacity="0.1" d="M56.6714 128.45V163.816H6.95801C6.95801 163.61 6.9924 163.399 7.00715 163.193C7.05137 162.629 7.09559 162.065 7.14473 161.505C7.19879 160.848 7.25775 160.186 7.32163 159.543C7.38551 158.9 7.45431 158.115 7.52801 157.404C7.60172 156.693 7.67052 155.971 7.75405 155.26C7.83759 154.549 7.91129 153.837 7.99974 153.131C8.08819 152.425 8.16682 151.708 8.26018 151.002C8.33389 150.413 8.4125 149.829 8.49113 149.241C8.60415 148.412 8.72208 147.578 8.84984 146.753C8.84984 146.631 8.88424 146.503 8.90389 146.385C9.80076 140.352 11.0228 134.371 12.5647 128.469L56.6714 128.45Z" fill="#118AB2"/>
<path opacity="0.1" d="M6.80089 165.916H56.6716V233.778H10.4519C10.329 234.475 10.2111 235.176 10.0833 235.878H56.6716V290.607C56.588 290.583 56.5143 290.553 56.4357 290.524C55.1188 290.004 53.8117 289.455 52.5046 288.866L51.6693 288.488C50.3589 287.87 49.0485 287.216 47.7382 286.526C47.2812 286.285 46.8242 286.035 46.3721 285.78C39.0976 281.712 32.489 276.557 26.7757 270.493C26.6086 270.332 26.4514 270.16 26.2843 270.003C25.4883 269.139 24.707 268.266 23.9502 267.373L23.1149 266.392C22.2205 265.298 21.3557 264.175 20.5154 263.037C20.3926 262.87 20.2747 262.703 20.1469 262.546C16.7296 257.815 13.8921 252.693 11.6951 247.289C11.6263 247.127 11.5673 246.95 11.5034 246.798C10.8286 245.065 10.2308 243.315 9.70989 241.549C9.48385 240.808 9.26764 240.077 9.08092 239.307C9.01212 239.081 8.95315 238.861 8.8991 238.64C6.10804 227.764 5.77881 216.465 5.77881 205.246C5.77881 203.936 5.77881 202.621 5.77881 201.321C5.77881 196.783 5.83286 192.216 5.91148 187.653C5.91148 186.471 5.96062 185.294 5.98519 184.106C6.05398 181.094 6.15226 178.082 6.28002 175.07C6.3095 174.231 6.34882 173.397 6.39304 172.563C6.39304 172.082 6.41761 171.601 6.46675 171.121C6.58468 169.374 6.68296 167.642 6.80089 165.916Z" fill="#118AB2"/>
<path opacity="0.1" d="M106.075 102.669V163.816H68.5776V102.669H73.9239V81.9668H95.8692V102.669H106.075Z" fill="#118AB2"/>
<path opacity="0.1" d="M106.075 165.911H68.5825V233.773H106.075V165.911Z" fill="#118AB2"/>
<path opacity="0.1" d="M68.5776 235.878H106.075V292.295C101.652 293.564 97.1447 294.52 92.5867 295.155L91.4663 295.293C90.916 295.356 90.3706 295.41 89.83 295.464C89.2895 295.518 88.7293 295.557 88.1839 295.592H88.0119C87.776 295.592 87.5205 295.621 87.2896 295.626H87.039C86.7441 295.626 86.4493 295.656 86.1545 295.665C85.7368 295.69 85.3191 295.695 84.8916 295.7C84.7098 295.7 84.5378 295.7 84.356 295.7C83.9334 295.7 83.5157 295.7 83.0931 295.7H82.1644C81.9138 295.7 81.673 295.7 81.4126 295.7L80.4642 295.665C79.9729 295.665 79.4422 295.611 78.9311 295.577L77.9877 295.508L76.8132 295.4C75.9877 295.327 75.1671 295.234 74.3563 295.121L73.3736 294.983L72.8822 294.915C72.0616 294.787 71.2508 294.65 70.4252 294.493C69.8208 294.39 69.2213 294.262 68.612 294.14L68.5776 235.878Z" fill="#118AB2"/>
<path opacity="0.1" d="M340.471 95.4481H309.553V163.811H340.471V95.4481Z" fill="#118AB2"/>
<path opacity="0.1" d="M340.476 165.911V233.778H187.011V204.505H268.753V221.774H309.553V165.911H340.476Z" fill="#118AB2"/>
<path opacity="0.1" d="M340.962 308.641H340.471V353.162C334.934 352.694 329.415 352.058 323.911 351.253C299.134 347.632 274.979 340.595 252.139 330.345C245.545 327.382 239.085 324.147 232.759 320.641C222.193 314.797 212.069 308.187 202.47 300.866C200.059 299.021 197.679 297.134 195.33 295.204C193.704 293.865 192.087 292.491 190.451 291.157C189.316 290.24 188.171 289.337 187.011 288.473V235.878H309.145C309.061 235.564 308.978 235.25 308.889 234.941C308.983 235.25 309.071 235.564 309.155 235.878H340.471V308.612C340.638 308.617 340.8 308.632 340.962 308.641Z" fill="#118AB2"/>
<path opacity="0.1" d="M421.107 90.3558H400.96V84.1058H409.992V65.4881C410.775 65.7726 411.555 66.0654 412.331 66.3662V84.1058H421.107V90.3558Z" fill="#118AB2"/>
<path opacity="0.1" d="M469.646 163.816H370.74C370.74 163.816 370.74 163.816 370.774 163.84L370.73 163.816H352.382V95.453H357.581V145.983H381.339V116.058H400.965V92.4555H421.112V116.077H440.738V146.003H469.646V163.816Z" fill="#118AB2"/>
<path opacity="0.1" d="M352.382 165.911V233.778H469.646V165.911H352.382ZM501.478 313.665L501.64 259.946H469.646V235.907H352.382V353.893C361.996 354.296 371.625 354.181 381.226 353.549H381.393C385.979 353.262 390.544 352.843 395.088 352.294H395.191C419.432 349.477 443.134 343.163 465.558 333.548" fill="#118AB2"/>
<path opacity="0.1" d="M515.625 235.878H542.98C542.74 249.658 539.968 263.194 533.904 275.694C528.858 286.079 521.846 295.16 513.561 303.093V259.921H515.625V235.878Z" fill="#118AB2"/>
<path opacity="0.1" d="M542.995 233.778H515.625V177.062H530.435C538.101 194.943 542.971 214.567 542.995 233.778Z" fill="#118AB2"/>
<path opacity="0.1" d="M340.476 114.453H323.911V135.887H340.476V114.453Z" fill="#118AB2"/>
<path opacity="0.1" d="M340.476 158.881H323.911V163.816H340.476V158.881Z" fill="#118AB2"/>
<path opacity="0.1" d="M340.476 165.911H323.911V180.309H340.476V165.911Z" fill="#118AB2"/>
<path opacity="0.1" d="M340.476 203.308H323.911V224.742H340.476V203.308Z" fill="#118AB2"/>
<path opacity="0.1" d="M340.476 247.735H323.911V269.169H340.476V247.735Z" fill="#118AB2"/>
<path opacity="0.1" d="M340.471 308.612C340.638 308.612 340.8 308.612 340.962 308.641H340.471V313.621H323.911V292.163H340.471V308.612Z" fill="#118AB2"/>
<path opacity="0.1" d="M340.471 336.58V353.137C334.935 352.67 329.415 352.034 323.911 351.229V336.58H340.471Z" fill="#118AB2"/>
<path opacity="0.1" d="M258.002 232.203H187.011V233.778H258.002V232.203Z" fill="#118AB2"/>
<path opacity="0.1" d="M258.002 235.873H187.011V241.907H258.002V235.873Z" fill="#118AB2"/>
<path opacity="0.1" d="M258.002 261.688H187.011V271.391H258.002V261.688Z" fill="#118AB2"/>
<path opacity="0.1" d="M257.997 291.172V300.875H202.47C200.059 299.037 197.678 297.15 195.325 295.214C193.699 293.875 192.087 292.501 190.446 291.172H257.997Z" fill="#118AB2"/>
<path opacity="0.1" d="M257.997 320.651V330.345H252.135C245.547 327.378 239.088 324.142 232.759 320.636L257.997 320.651Z" fill="#118AB2"/>
<path opacity="0.1" d="M395.206 172.489H381.231V186.442H395.206V172.489Z" fill="#118AB2"/>
<path opacity="0.1" d="M92.6212 107.482H78.6462V121.434H92.6212V107.482Z" fill="#118AB2"/>
<path opacity="0.1" d="M92.6212 139.89H78.6462V153.842H92.6212V139.89Z" fill="#118AB2"/>
<path opacity="0.1" d="M92.6212 172.298H78.6462V186.25H92.6212V172.298Z" fill="#118AB2"/>
<path opacity="0.1" d="M92.6212 204.701H78.6462V218.653H92.6212V204.701Z" fill="#118AB2"/>
<path opacity="0.1" d="M92.6212 237.109H78.6462V251.061H92.6212V237.109Z" fill="#118AB2"/>
<path opacity="0.1" d="M92.6212 269.517H78.6462V283.469H92.6212V269.517Z" fill="#118AB2"/>
<path opacity="0.1" d="M448.556 172.489H434.581V186.442H448.556V172.489Z" fill="#118AB2"/>
<path opacity="0.1" d="M395.206 206.904H381.231V220.856H395.206V206.904Z" fill="#118AB2"/>
<path opacity="0.1" d="M448.556 206.904H434.581V220.856H448.556V206.904Z" fill="#118AB2"/>
<path opacity="0.1" d="M395.206 241.314H381.231V255.266H395.206V241.314Z" fill="#118AB2"/>
<path opacity="0.1" d="M448.556 241.314H434.581V255.266H448.556V241.314Z" fill="#118AB2"/>
<path opacity="0.1" d="M395.206 275.728H381.231V289.68H395.206V275.728Z" fill="#118AB2"/>
<path opacity="0.1" d="M448.556 275.728H434.581V289.68H448.556V275.728Z" fill="#118AB2"/>
<path opacity="0.1" d="M395.206 310.142H381.231V324.095H395.206V310.142Z" fill="#118AB2"/>
<path opacity="0.1" d="M448.556 310.142H434.581V324.095H448.556V310.142Z" fill="#118AB2"/>
<path opacity="0.1" d="M381.231 353.549V344.552H395.201V352.269L381.231 353.549Z" fill="#118AB2"/>
<path opacity="0.1" d="M8.84497 146.376V154.357H56.6715V146.376H8.84497ZM13.6114 153.857H9.70981V146.866H13.6409L13.6114 153.857ZM18.3729 153.857H14.4418V146.866H18.3729V153.857ZM23.1246 153.857H19.1935V146.866H23.1246V153.857ZM27.8861 153.857H23.96V146.866H27.891L27.8861 153.857ZM32.6427 153.857H28.7117V146.866H32.6427V153.857ZM37.4043 153.857H33.4732V146.866H37.4043V153.857ZM42.1658 153.857H38.2347V146.866H42.1658V153.857ZM46.9224 153.857H42.9913V146.866H46.9224V153.857ZM51.679 153.857H47.7479V146.866H51.679V153.857ZM56.4356 153.857H52.5045V146.866H56.4356V153.857Z" fill="#118AB2"/>
<path opacity="0.1" d="M8.84497 169.6V177.582H56.6715V169.6H8.84497ZM13.6114 177.076H9.70981V170.105H13.6409L13.6114 177.076ZM18.3729 177.076H14.4418V170.105H18.3729V177.076ZM23.1246 177.076H19.1935V170.105H23.1246V177.076ZM27.8861 177.076H23.96V170.105H27.891L27.8861 177.076ZM32.6427 177.076H28.7117V170.105H32.6427V177.076ZM37.4043 177.076H33.4732V170.105H37.4043V177.076ZM42.1658 177.076H38.2347V170.105H42.1658V177.076ZM46.9224 177.076H42.9913V170.105H46.9224V177.076ZM51.679 177.076H47.7479V170.105H51.679V177.076ZM56.4356 177.076H52.5045V170.105H56.4356V177.076Z" fill="#118AB2"/>
<path opacity="0.1" d="M8.84497 192.834V200.831H56.6715V192.834H8.84497ZM13.6114 200.311H9.70981V193.334H13.6409L13.6114 200.311ZM18.3729 200.311H14.4418V193.334H18.3729V200.311ZM23.1246 200.311H19.1935V193.334H23.1246V200.311ZM27.8861 200.311H23.96V193.334H27.891L27.8861 200.311ZM32.6427 200.311H28.7117V193.334H32.6427V200.311ZM37.4043 200.311H33.4732V193.334H37.4043V200.311ZM42.1658 200.311H38.2347V193.334H42.1658V200.311ZM46.9224 200.311H42.9913V193.334H46.9224V200.311ZM51.679 200.311H47.7479V193.334H51.679V200.311ZM56.4356 200.311H52.5045V193.334H56.4356V200.311Z" fill="#118AB2"/>
<path opacity="0.1" d="M8.84497 216.068V224.04H56.6715V216.068H8.84497ZM13.6114 223.545H9.70981V216.564H13.6409L13.6114 223.545ZM18.3729 223.545H14.4418V216.564H18.3729V223.545ZM23.1246 223.545H19.1935V216.564H23.1246V223.545ZM27.8861 223.545H23.96V216.564H27.891L27.8861 223.545ZM32.6427 223.545H28.7117V216.564H32.6427V223.545ZM37.4043 223.545H33.4732V216.564H37.4043V223.545ZM42.1658 223.545H38.2347V216.564H42.1658V223.545ZM46.9224 223.545H42.9913V216.564H46.9224V223.545ZM51.679 223.545H47.7479V216.564H51.679V223.545ZM56.4356 223.545H52.5045V216.564H56.4356V223.545Z" fill="#118AB2"/>
<path opacity="0.1" d="M9.05127 239.297C9.24291 240.048 9.45912 240.798 9.68515 241.539V239.798H13.6162V246.774H11.5131C11.577 246.936 11.6409 247.112 11.7047 247.264H56.6714V239.297H9.05127ZM18.3876 246.774H14.4565V239.798H18.3876V246.774ZM23.1393 246.774H19.2082V239.798H23.1393V246.774ZM27.9008 246.774H23.9599V239.798H27.891L27.9008 246.774ZM32.6574 246.774H28.7263V239.798H32.6574V246.774ZM37.4189 246.774H33.4878V239.798H37.4189V246.774ZM42.1804 246.774H38.2494V239.798H42.1804V246.774ZM46.937 246.774H43.006V239.798H46.937V246.774ZM51.6937 246.774H47.7626V239.798H51.6937V246.774ZM56.4503 246.774H52.5192V239.798H56.4503V246.774Z" fill="#118AB2"/>
<path opacity="0.1" d="M20.1565 262.531C20.2793 262.688 20.3973 262.865 20.525 263.022H23.1245V266.373C23.4045 266.706 23.6797 267.04 23.9647 267.354V263.002H27.8958V270.003H26.3037C26.461 270.165 26.6133 270.337 26.7951 270.493H56.6861V262.531H20.1565ZM32.6426 270.003H28.7115V263.032H32.6426V270.003ZM37.4041 270.003H33.473V263.032H37.4041V270.003ZM42.1656 270.003H38.2345V263.032H42.1656V270.003ZM46.9222 270.003H42.9911V263.032H46.9222V270.003ZM51.6788 270.003H47.7478V263.032H51.6788V270.003ZM56.4354 270.003H52.5044V263.032H56.4354V270.003Z" fill="#118AB2"/>
<path opacity="0.1" d="M46.3916 285.76C46.8388 286.016 47.2957 286.251 47.7577 286.506V286.261H51.6887V288.469L52.5241 288.856V286.261H56.4552V290.504C56.5306 290.542 56.6096 290.571 56.691 290.593V285.76H46.3916Z" fill="#118AB2"/>
<path opacity="0.1" d="M370.74 163.816H370.77H370.74ZM340.471 308.607H340.962H340.471ZM308.889 234.936C308.983 235.25 309.061 235.564 309.15 235.873C309.071 235.564 308.988 235.25 308.889 234.936ZM370.74 163.801H370.77H370.74ZM73.9436 90.3411V92.4359H95.8938V90.3411H73.9436ZM340.471 308.607H340.962H340.471ZM308.889 234.936C308.983 235.25 309.061 235.564 309.15 235.873C309.071 235.564 308.988 235.25 308.889 234.936ZM370.74 163.801H370.77H370.74ZM340.471 308.592H340.962H340.471ZM308.889 234.936C308.983 235.25 309.061 235.564 309.15 235.873C309.071 235.564 308.988 235.25 308.889 234.936Z" fill="#118AB2"/>
<path d="M226.823 186.26C226.823 186.26 224.887 185.99 224.887 183.174C224.887 180.358 223.502 175.099 223.502 175.099C223.502 175.075 222.303 165.94 220.647 164.488C218.991 163.036 216.863 154.51 216.863 154.51C216.863 154.51 216.499 149.883 215.757 148.887C215.015 147.892 214.013 145.453 212.534 141.975C211.055 138.497 204.888 136.088 204.888 136.088C204.888 136.088 193.738 129.632 190.579 127.527C190.292 127.354 190.023 127.152 189.778 126.924C189.228 126.203 186.83 126.188 186.83 126.188C186.579 124.608 186.338 122.793 186.26 121.15C186.26 120.973 186.26 120.797 186.235 120.62C189.758 118.541 192.412 115.263 193.709 111.387C193.768 111.201 193.817 111.005 193.871 110.818C194.082 110.749 194.276 110.636 194.441 110.487C194.606 110.339 194.739 110.157 194.829 109.955C195.114 109.322 195.119 108.581 195.473 107.992C195.886 107.296 196.672 106.923 197.291 106.398C198.854 105.073 199.257 102.841 199.183 100.81C199.134 99.1667 198.869 97.5085 198.972 95.8749L199.001 95.4628C199.031 95.2175 199.065 94.9722 199.109 94.7367C199.35 93.5201 199.876 92.3721 200.171 91.1653C200.466 89.9585 200.495 88.5995 199.807 87.5595C198.8 86.0338 196.702 85.7296 194.859 85.5726C192.77 85.396 190.903 85.6266 189.567 83.8948C188.941 82.9897 188.237 82.141 187.463 81.3585C187.188 81.1034 184.515 79.4747 184.515 79.3667C181.906 78.1603 178.949 77.9339 176.186 78.729C174.8 79.1313 173.493 79.7886 172.088 80.1173C169.056 80.8336 165.567 80.0585 162.992 81.7902C161.558 82.7714 160.698 84.3314 159.892 85.8523C159.237 87.1049 158.572 88.3559 157.897 89.6052C156.811 91.6608 155.705 93.7507 155.248 96.027C155.152 96.5223 155.093 97.0241 155.071 97.5282V97.5527C155.071 97.7342 155.071 97.9157 155.071 98.0972V98.3278C155.071 98.4995 155.071 98.6663 155.101 98.8184C155.13 98.9705 155.125 99.0195 155.14 99.1226C155.155 99.2256 155.179 99.4562 155.209 99.6131C155.238 99.7701 155.297 100.045 155.356 100.261C155.381 100.354 155.415 100.442 155.445 100.531C155.494 100.697 155.553 100.859 155.617 101.021C155.651 101.105 155.686 101.193 155.725 101.276C155.799 101.448 155.887 101.615 155.976 101.767C156.015 101.835 156.044 101.899 156.084 101.963C156.221 102.191 156.372 102.411 156.536 102.62C157.587 103.93 159.135 104.764 160.28 105.991C160.28 106.04 160.28 106.089 160.28 106.133C160.28 106.27 160.28 106.403 160.28 106.54C160.341 109.275 161.07 111.954 162.404 114.344C163.739 116.734 165.637 118.762 167.936 120.252C167.936 120.438 167.96 120.63 167.97 120.816C168.066 122.272 168.048 123.734 167.916 125.187C167.716 124.952 167.466 124.765 167.183 124.639C166.901 124.513 166.594 124.453 166.285 124.461C166.074 124.451 165.862 124.469 165.656 124.515L165.612 124.481V124.525C164.531 124.79 163.199 125.913 161.926 129.107C161.926 129.107 158.054 133.463 155.106 133.282C152.157 133.1 144.693 137.815 144.693 137.815C144.693 137.815 137.411 142.534 135.848 147.342C134.975 150.068 133.928 152.736 132.713 155.329L123.711 173.848L122.05 188.541C122.05 188.541 122.969 195.076 122.787 196.072C122.606 197.068 126.566 206.05 126.566 206.05C126.566 206.05 139.652 229.005 144.998 230.182L145.381 229.912C145.61 230.032 145.853 230.122 146.104 230.182L147.204 229.407C147.27 230.271 147.242 231.139 147.121 231.997C146.384 234.264 147.396 249.055 148.683 251.954C149.971 254.854 149.514 292.869 149.514 292.869L149.332 296.225C149.332 296.225 149.332 296.333 149.376 296.519L149.332 297.314L149.465 297.382C149.602 298.447 149.558 299.527 149.332 300.576C148.87 302.048 148.683 306.208 148.683 306.208C148.683 306.208 145.003 329.697 146.747 334.417C148.492 339.136 149.976 344.307 149.976 344.307C149.976 344.307 151.818 350.194 150.064 351.2C148.31 352.205 143.322 353.893 144.349 356.346C145.283 358.612 148.826 364.686 149.352 365.574L149.307 366.04L148.585 373.855C148.702 374.887 148.982 375.893 149.416 376.837C150.207 378.54 151.745 380.306 154.668 380.115C155.16 380.08 155.73 380.021 156.28 379.948C161.631 379.232 168.221 376.847 168.221 376.847C167.879 376.63 167.565 376.372 167.287 376.077C167.024 375.823 166.816 375.518 166.675 375.18C166.534 374.843 166.463 374.48 166.467 374.115C166.545 372.692 163.877 365.912 163.214 364.244C163.11 364.004 163.056 363.866 163.056 363.866C163.056 363.866 169.14 357.518 168.127 351.891C168.127 351.891 161.395 347.967 163.612 345.813C165.828 343.659 169.788 337.473 169.788 337.473C169.788 337.473 169.97 314.342 169.788 310.888C169.599 308.491 169.713 306.08 170.127 303.711C170.201 303.353 170.29 303.005 170.383 302.661C173.448 303.118 176.542 303.352 179.641 303.363C180.771 303.363 181.921 303.363 183.08 303.294C183.08 303.621 183.095 303.974 183.125 304.354C183.38 310.084 183.857 320.131 184.245 323.864C184.795 329.216 187.837 343.64 187.837 343.64C187.837 343.64 182.034 347.358 188.849 356.522C188.849 356.522 188.849 359.844 188.397 360.324C187.914 361.896 187.526 363.495 187.233 365.113C186.948 366.839 186.83 368.586 187.291 369.493C188.397 371.662 195.031 371.485 195.031 371.485L195.193 371.456C196.445 371.326 197.711 371.447 198.916 371.81C200.122 372.173 201.243 372.771 202.215 373.57C204.736 375.591 214.303 374.703 219.482 374.061C221.512 373.806 222.868 373.57 222.868 373.57C222.934 373.341 222.957 373.101 222.937 372.864C222.882 371.593 221.885 368.807 215.124 366.319C215.124 366.319 208.765 362.051 208.853 358.333H208.721H207.984C208.519 358.303 208.863 358.333 208.863 358.333C208.863 358.333 206.372 349.257 207.389 348.521C208.406 347.785 205.36 337.728 205.36 337.728C205.36 337.728 203.615 320.852 203.522 319.67C203.526 318.655 203.68 317.647 203.979 316.677L203.522 307.425C203.522 307.425 203.433 304.349 203.522 303.348C203.507 302.479 203.436 301.612 203.311 300.753C203.266 300.409 203.222 300.051 203.173 299.698C205.556 299.095 207.104 298.535 207.104 298.535L206.829 266.328C208.853 262.404 209.227 253.794 209.217 247.686C209.217 243.762 209.04 240.857 209.04 240.857L211.807 236.349C211.807 236.349 212.445 230.952 211.433 229.77C210.986 229.235 211.188 228.681 211.556 228.225C211.747 228.073 211.949 227.936 212.16 227.813C212.16 227.813 212.131 227.769 212.097 227.705C212.29 227.544 212.495 227.398 212.711 227.268C212.711 227.268 211.728 225.747 212.608 225.105C213.433 225.664 214.17 226.086 214.73 226.429C214.691 226.787 214.652 226.993 214.652 226.993L214.888 226.503C215.428 226.807 215.757 226.993 215.757 226.993C215.757 226.993 220.091 218.374 219.998 217.103C219.905 215.833 222.946 210.48 222.946 210.48C222.946 210.48 223.315 207.669 224.976 206.492C226.637 205.314 226.263 196.783 226.263 196.783C226.263 196.783 226.725 192.338 227.831 190.523C228.936 188.708 226.823 186.26 226.823 186.26ZM143.897 182.478L143.981 184.533C143.489 183.743 143.136 183.174 143.136 183.174L143.897 182.478Z" fill="url(#paint0_linear)"/>
<path d="M215.993 223.27L214.932 227.783C214.932 227.783 206.431 223.451 204.898 217.947C203.365 212.443 207.463 210.353 207.463 210.353L215.384 213.703L215.993 223.27Z" fill="white"/>
<path opacity="0.1" d="M215.993 223.27L214.932 227.783C214.932 227.783 206.431 223.451 204.898 217.947C203.365 212.443 207.463 210.353 207.463 210.353L215.384 213.703L215.993 223.27Z" fill="black"/>
<path d="M168.285 376.877C168.285 376.877 160.422 379.761 155.017 380.124C152.147 380.316 150.639 378.559 149.863 376.867C149.438 375.926 149.165 374.925 149.052 373.899L149.754 366.123L150.128 361.983L161.612 359.005L163.238 363.969L163.39 364.347C164.044 366.005 166.663 372.751 166.584 374.159C166.581 374.519 166.651 374.877 166.789 375.21C166.928 375.543 167.132 375.844 167.39 376.097C167.654 376.394 167.954 376.656 168.285 376.877Z" fill="white"/>
<path d="M221.988 372.923C222.008 373.159 221.984 373.396 221.919 373.624C221.919 373.624 205.104 376.425 201.664 373.624C200.694 372.806 199.564 372.199 198.345 371.842C197.127 371.486 195.847 371.388 194.588 371.554C194.588 371.554 188.082 371.73 186.996 369.592C186.544 368.694 186.662 366.952 186.942 365.235C187.228 363.626 187.609 362.036 188.082 360.472L188.343 360.266L189.891 359.024L208.013 358.49H208.151C208.062 362.189 214.303 366.432 214.303 366.432C220.931 368.885 221.909 371.657 221.988 372.923Z" fill="white"/>
<path opacity="0.1" d="M221.988 372.923C222.005 373.159 221.98 373.396 221.914 373.624C221.914 373.624 205.104 376.425 201.664 373.624C200.695 372.806 199.566 372.2 198.348 371.843C197.13 371.487 195.851 371.388 194.593 371.554C194.593 371.554 188.082 371.73 187.001 369.592C186.549 368.689 186.662 366.952 186.942 365.235C189.449 365.485 193.404 366.108 194.957 367.595C197.306 369.856 201.286 372.113 203.728 372.29C205.64 372.412 217.074 372.775 221.988 372.923Z" fill="black"/>
<path opacity="0.1" d="M168.285 376.877C168.285 376.877 160.422 379.761 155.017 380.124C152.147 380.316 150.639 378.559 149.867 376.862C151.867 377.534 154.644 378.241 156.103 377.593C157.833 376.828 163.965 376.332 167.405 376.121C167.667 376.407 167.962 376.661 168.285 376.877Z" fill="black"/>
<path d="M179.95 144.413C173.464 141.897 165.12 133.581 167.204 129.696C167.666 128.715 167.941 127.657 168.014 126.576C168.148 125.108 168.168 123.631 168.073 122.16C167.927 119.751 167.637 117.353 167.204 114.978C167.204 114.978 187.454 115.434 186.274 118.412C185.93 119.286 185.876 120.801 185.97 122.499C186.063 124.196 186.309 126.114 186.564 127.738C186.918 129.966 187.272 131.663 187.272 131.663C187.272 131.663 186.033 133.395 185.306 133.488C184.579 133.581 189.257 147.999 179.95 144.413Z" fill="#CF6F80"/>
<path opacity="0.1" d="M163.376 364.347L163.223 364.514C157.169 357.204 149.848 366.314 149.848 366.314L149.74 366.123L150.113 361.983L161.597 359.005L163.223 363.969L163.376 364.347Z" fill="black"/>
<path opacity="0.1" d="M208.156 359.005C208.156 359.005 203.733 358.911 201.374 360.992C199.016 363.072 187.616 361.443 188.107 360.992C188.253 360.768 188.34 360.512 188.363 360.246L189.91 359.005L208.033 358.47C208.101 358.799 208.156 359.005 208.156 359.005Z" fill="black"/>
<path d="M170.909 301.601C170.579 302.414 170.329 303.257 170.162 304.118C169.752 306.476 169.638 308.875 169.823 311.261C170.005 314.695 169.823 337.708 169.823 337.708C169.823 337.708 165.936 343.846 163.769 346.009C161.602 348.173 168.191 352.058 168.191 352.058C169.174 357.651 163.219 363.969 163.219 363.969C157.165 356.66 149.843 365.775 149.843 365.775C149.843 365.775 145.863 358.907 144.87 356.454C143.878 354.001 148.757 352.303 150.472 351.307C152.187 350.312 150.388 344.439 150.388 344.439C150.388 344.439 148.939 339.293 147.219 334.598C145.499 329.903 149.116 306.532 149.116 306.532C149.116 306.532 149.302 302.381 149.75 300.934C149.975 299.89 150.02 298.815 149.882 297.755C149.853 297.397 149.818 297.098 149.794 296.897C149.769 296.696 149.75 296.602 149.75 296.602L149.818 296.485L152.275 291.912C152.275 291.912 172.088 298.722 170.909 301.601Z" fill="#118AB2"/>
<path d="M208.156 358.465C208.156 358.465 203.733 358.372 201.374 360.427C199.016 362.483 187.616 360.879 188.107 360.427C188.599 359.976 188.559 356.635 188.559 356.635C181.871 347.52 187.576 343.821 187.576 343.821C187.576 343.821 184.589 329.472 184.048 324.149C183.67 320.43 183.203 310.437 182.953 304.731C182.844 302.278 182.781 300.591 182.781 300.591L188.245 299.492L188.947 299.35L202.126 296.71C202.126 296.71 202.49 299.163 202.736 301.17C202.858 302.026 202.927 302.89 202.942 303.755C202.854 304.736 202.942 307.807 202.942 307.807L203.389 317.016C203.097 317.982 202.946 318.985 202.942 319.993C203.03 321.166 204.745 337.954 204.745 337.954C204.745 337.954 207.728 347.971 206.711 348.693C205.694 349.414 208.156 358.465 208.156 358.465Z" fill="#118AB2"/>
<path opacity="0.1" d="M186.274 118.412C185.93 119.286 185.876 120.801 185.97 122.499C183.257 124.13 180.139 124.963 176.973 124.904C173.808 124.845 170.723 123.896 168.073 122.165C167.927 119.754 167.637 117.354 167.204 114.978C167.204 114.978 187.454 115.425 186.274 118.412Z" fill="black"/>
<path d="M194.102 107.57C194.106 109.338 193.827 111.095 193.277 112.776C192.045 116.54 189.521 119.749 186.149 121.835C182.778 123.921 178.776 124.75 174.851 124.175C170.927 123.6 167.332 121.659 164.702 118.694C162.073 115.729 160.578 111.932 160.481 107.973C160.481 107.835 160.481 107.708 160.481 107.57C160.443 105.342 160.85 103.128 161.678 101.058C162.506 98.9886 163.738 97.104 165.303 95.5146C166.868 93.9252 168.734 92.6628 170.793 91.8011C172.852 90.9394 175.062 90.4957 177.294 90.4957C179.527 90.4957 181.737 90.9394 183.795 91.8011C185.854 92.6628 187.721 93.9252 189.286 95.5146C190.851 97.104 192.083 98.9886 192.911 101.058C193.738 103.128 194.145 105.342 194.107 107.57H194.102Z" fill="#CF6F80"/>
<path opacity="0.1" d="M179.95 144.413C173.464 141.897 165.12 133.581 167.204 129.696C167.666 128.715 167.941 127.657 168.014 126.576L176.894 133.861L182.387 138.36L186.564 127.743C186.918 129.971 187.272 131.668 187.272 131.668C187.272 131.668 186.033 133.4 185.306 133.493C184.579 133.586 189.257 148 179.95 144.413Z" fill="black"/>
<path d="M202.913 176.61L195.498 300.973L185.827 301.606L160.786 229.495L164.894 143.883L165.759 125.796L176.894 134.925L182.392 139.424L186.692 128.499L194.687 135.455L202.913 176.61Z" fill="#118AB2"/>
<path opacity="0.1" d="M170.909 301.601C170.579 302.414 170.329 303.257 170.162 304.118C163.125 303.033 156.291 300.902 149.887 297.795L149.754 297.726L149.799 296.936L149.823 296.524L152.28 291.952C152.28 291.952 172.088 298.722 170.909 301.601Z" fill="black"/>
<path opacity="0.1" d="M188.358 304.138C186.559 304.443 184.745 304.65 182.923 304.756C182.815 302.303 182.751 300.615 182.751 300.615L188.215 299.516L188.358 304.138Z" fill="black"/>
<path opacity="0.1" d="M202.706 301.194C199.212 302.102 193.817 303.122 188.987 302.484L188.918 299.374L202.097 296.735C202.097 296.735 202.461 299.163 202.706 301.194Z" fill="black"/>
<path opacity="0.1" d="M188.898 303.054C168.752 306.488 150.3 296.642 150.3 296.642L150.477 293.306C150.477 293.306 150.934 255.487 149.666 252.587C148.398 249.688 147.411 234.985 148.128 232.728C148.846 230.472 145.509 196.631 145.509 196.631L144.968 182.895L125.185 174.893L134.03 156.487C135.225 153.906 136.252 151.251 137.106 148.539C138.644 143.761 145.784 139.066 145.784 139.066C145.784 139.066 153.106 134.376 156 134.553C158.894 134.729 162.688 130.402 162.688 130.402C165.489 123.274 168.024 126.502 168.024 126.502C168.024 126.841 168.024 126.502 167.887 127.557C166.904 135.382 183.778 160.107 184.019 160.544L185.626 199.624L187.252 249.079L188.898 303.054Z" fill="black"/>
<path d="M188.358 303.054C168.211 306.488 149.754 296.642 149.754 296.642L149.936 293.306C149.936 293.306 150.393 255.487 149.121 252.587C147.848 249.688 146.865 234.985 147.587 232.728C148.31 230.472 144.968 196.631 144.968 196.631L144.423 182.895L124.63 174.864L133.475 156.457C134.667 153.875 135.694 151.221 136.551 148.51C138.084 143.731 145.229 139.037 145.229 139.037C145.229 139.037 152.55 134.347 155.44 134.523C158.329 134.7 162.127 130.373 162.127 130.373C164.933 123.245 168.024 126.473 168.024 126.473C168.024 126.811 167.729 126.963 167.887 127.527C170.049 135.117 183.237 160.078 183.478 160.514L185.105 199.594L186.731 249.05L188.358 303.054Z" fill="white"/>
<path opacity="0.1" d="M182.928 161.628C180.761 160.725 169.282 147.641 169.282 147.641V144.664C168.864 143.682 166.383 144.281 164.368 144.968L165.233 126.88L166.216 127.694C168.368 135.279 182.677 161.191 182.928 161.628Z" fill="black"/>
<path d="M183.473 160.544C181.301 159.641 169.823 146.557 169.823 146.557V143.579C169.405 142.598 166.923 143.197 164.909 143.883L165.778 125.796L166.761 126.61C168.918 134.194 183.232 160.112 183.473 160.544Z" fill="white"/>
<path opacity="0.1" d="M150.3 225.796C150.57 225.796 164.309 224.354 164.309 224.354C164.309 224.354 172.629 240.686 172.083 244.659C171.538 248.633 170.55 252.151 167.204 251.528C163.857 250.904 149.194 252.018 149.194 252.018L150.3 225.796Z" fill="black"/>
<path d="M149.755 224.712C150.025 224.712 163.764 223.27 163.764 223.27C163.764 223.27 172.078 239.606 171.538 243.575C170.997 247.544 170 251.066 166.658 250.443C163.317 249.82 148.649 250.934 148.649 250.934L149.755 224.712Z" fill="white"/>
<path d="M160.108 217.044C160.108 217.044 172.717 223.81 172.987 225.875C173.257 227.94 166.57 224.972 165.125 224.614C164.174 224.385 163.206 224.234 162.231 224.163L152.595 224.423L160.108 217.044Z" fill="#CF6F80"/>
<path opacity="0.1" d="M179.41 162.472C180.142 162.472 180.736 161.879 180.736 161.147C180.736 160.416 180.142 159.823 179.41 159.823C178.677 159.823 178.083 160.416 178.083 161.147C178.083 161.879 178.677 162.472 179.41 162.472Z" fill="black"/>
<path d="M179.41 161.932C180.142 161.932 180.736 161.339 180.736 160.608C180.736 159.876 180.142 159.283 179.41 159.283C178.677 159.283 178.083 159.876 178.083 160.608C178.083 161.339 178.677 161.932 179.41 161.932Z" fill="#3F3D56"/>
<path opacity="0.1" d="M181.852 219.811C182.584 219.811 183.178 219.218 183.178 218.487C183.178 217.755 182.584 217.162 181.852 217.162C181.119 217.162 180.525 217.755 180.525 218.487C180.525 219.218 181.119 219.811 181.852 219.811Z" fill="black"/>
<path d="M181.852 219.267C182.584 219.267 183.178 218.674 183.178 217.942C183.178 217.211 182.584 216.618 181.852 216.618C181.119 216.618 180.525 217.211 180.525 217.942C180.525 218.674 181.119 219.267 181.852 219.267Z" fill="#3F3D56"/>
<path opacity="0.1" d="M180.731 191.141C181.464 191.141 182.058 190.548 182.058 189.817C182.058 189.085 181.464 188.492 180.731 188.492C179.999 188.492 179.405 189.085 179.405 189.817C179.405 190.548 179.999 191.141 180.731 191.141Z" fill="black"/>
<path d="M180.731 190.602C181.464 190.602 182.058 190.009 182.058 189.277C182.058 188.546 181.464 187.953 180.731 187.953C179.999 187.953 179.405 188.546 179.405 189.277C179.405 190.009 179.999 190.602 180.731 190.602Z" fill="#3F3D56"/>
<path d="M211.315 223.888C211.315 223.888 212.219 225.242 211.315 225.875C210.411 226.508 211.404 228.038 211.404 228.038C211.404 228.038 209.148 229.358 210.141 230.545C211.133 231.732 210.505 237.094 210.505 237.094L207.792 241.578C207.792 241.578 207.954 244.468 207.964 248.373C207.964 254.466 207.605 263.032 205.62 266.937L205.895 298.977C205.895 298.977 196.397 302.44 188.446 301.386L187.267 249.972C187.267 249.972 188.987 220.817 189.621 215.224C189.992 212.321 190.143 209.393 190.073 206.467C190.073 206.467 189.802 197.715 188.893 193.653C188.893 193.653 187.911 176.056 187.812 171.184C187.768 168.854 187.891 162.055 188.029 155.589C188.181 148.519 188.353 141.852 188.353 141.852L186.559 127.684C186.559 127.684 188.353 127.503 188.893 128.224C189.136 128.45 189.399 128.652 189.68 128.827C192.775 130.917 203.714 137.344 203.714 137.344C203.714 137.344 209.767 139.748 211.217 143.192C212.667 146.636 213.674 149.079 214.377 150.06C215.079 151.041 215.463 155.653 215.463 155.653C215.463 155.653 217.546 164.14 219.173 165.577C220.799 167.015 221.988 176.159 221.988 176.159L207.615 187.442C207.615 187.442 206.352 206.212 206.082 206.938C205.812 207.664 211.315 223.888 211.315 223.888Z" fill="white"/>
<path d="M211.861 223.888C211.861 223.888 212.76 225.242 211.861 225.875C210.962 226.508 211.944 228.038 211.944 228.038C211.944 228.038 209.704 229.373 210.686 230.56C211.669 231.747 211.05 237.109 211.05 237.109L208.338 241.593C208.338 241.593 208.5 244.483 208.514 248.388C208.514 254.481 208.156 263.046 206.17 266.951L206.441 298.991C206.441 298.991 196.928 302.455 188.987 301.4L187.812 249.987C187.812 249.987 189.532 220.832 190.166 215.239C190.537 212.336 190.687 209.408 190.613 206.482C190.613 206.482 190.343 197.73 189.439 193.668C189.439 193.668 188.456 176.071 188.353 171.199C188.309 168.869 188.436 162.069 188.569 155.604C188.721 148.534 188.893 141.867 188.893 141.867L186.525 127.508C186.525 127.508 188.893 127.508 189.439 128.239C189.679 128.467 189.942 128.669 190.225 128.842C193.321 130.932 204.264 137.359 204.264 137.359C204.264 137.359 210.313 139.763 211.762 143.206C213.212 146.65 214.219 149.093 214.927 150.075C215.635 151.056 216.008 155.667 216.008 155.667C216.008 155.667 218.092 164.154 219.718 165.592C221.344 167.029 222.519 176.154 222.519 176.154L208.146 187.438C208.146 187.438 206.883 206.207 206.608 206.933C206.333 207.659 211.861 223.888 211.861 223.888Z" fill="white"/>
<path opacity="0.1" d="M194.647 146.032L195.945 149.81L189.114 156.678C189.267 149.614 189.439 142.942 189.439 142.942L187.07 128.582C187.07 128.582 189.439 128.582 189.984 129.313C190.223 129.541 190.487 129.742 190.77 129.912L196.579 146.641L194.647 146.032Z" fill="black"/>
<path d="M194.102 144.948L195.404 148.726L188.574 155.594C188.726 148.524 188.898 141.857 188.898 141.857L186.525 127.498C186.525 127.498 188.898 127.498 189.439 128.229C189.68 128.456 189.943 128.658 190.225 128.832L196.038 145.556L194.102 144.948Z" fill="white"/>
<path opacity="0.1" d="M194.102 107.57C194.106 109.338 193.827 111.095 193.277 112.776C193.184 112.79 193.089 112.786 192.998 112.763C192.907 112.74 192.821 112.699 192.746 112.643C192.618 108.228 190.441 104.082 187.763 100.555C187.011 99.4901 186.1 98.5469 185.061 97.7587C184.01 96.9709 182.703 96.6019 181.395 96.7236C179.921 96.9247 178.618 97.9255 177.13 98.0531C175.164 98.215 173.405 96.8561 171.454 96.7874C170.661 96.7949 169.879 96.9712 169.159 97.3045C168.44 97.6378 167.8 98.1205 167.282 98.7203C166.257 99.9307 165.496 101.341 165.046 102.861C164.274 105.166 163.853 107.574 163.798 110.004C163.774 111.377 163.641 113.099 162.363 113.6C162.46 112.589 162.345 111.57 162.026 110.607C161.707 109.643 161.191 108.756 160.511 108.002L160.481 107.973C160.481 107.835 160.481 107.708 160.481 107.57C160.443 105.342 160.85 103.128 161.678 101.058C162.506 98.9886 163.738 97.104 165.303 95.5146C166.868 93.9252 168.734 92.6628 170.793 91.8011C172.852 90.9394 175.062 90.4957 177.294 90.4957C179.527 90.4957 181.737 90.9394 183.795 91.8011C185.854 92.6628 187.721 93.9252 189.286 95.5146C190.851 97.104 192.083 98.9886 192.911 101.058C193.738 103.128 194.145 105.342 194.107 107.57H194.102Z" fill="black"/>
<path d="M184.255 80.917C181.701 79.7178 178.797 79.491 176.088 80.2792C174.727 80.6815 173.444 81.3339 172.063 81.6626C169.115 82.374 165.675 81.6038 163.145 83.3257C161.739 84.3069 160.894 85.8571 160.108 87.3632L158.142 91.1015C157.071 93.1472 155.99 95.2273 155.543 97.4791C155.096 99.7309 155.366 102.252 156.796 104.063C157.838 105.382 159.376 106.211 160.506 107.453C161.183 108.208 161.697 109.094 162.015 110.056C162.332 111.019 162.448 112.036 162.354 113.045C163.636 112.555 163.759 110.828 163.788 109.454C163.843 107.024 164.264 104.616 165.037 102.311C165.485 100.791 166.247 99.3806 167.272 98.1708C167.79 97.5715 168.43 97.0892 169.15 96.7559C169.869 96.4226 170.651 96.246 171.444 96.2379C173.41 96.3066 175.174 97.6606 177.12 97.4987C178.594 97.3761 179.901 96.3704 181.385 96.1741C182.693 96.0505 184.001 96.4197 185.051 97.2093C186.09 97.9962 187 98.9396 187.748 100.006C190.431 103.533 192.608 107.669 192.736 112.094C193.291 112.501 194.092 111.971 194.367 111.343C194.642 110.715 194.652 109.979 195.001 109.381C195.404 108.689 196.176 108.321 196.78 107.801C198.313 106.481 198.696 104.259 198.637 102.243C198.578 100.226 198.185 98.1806 198.569 96.1987C198.8 94.982 199.32 93.8438 199.605 92.6419C199.89 91.44 199.925 90.0909 199.252 89.0557C198.269 87.5349 196.2 87.2357 194.397 87.0934C192.348 86.9168 190.515 87.1425 189.208 85.4205C188.594 84.5219 187.904 83.6782 187.144 82.8989C186.884 82.6438 184.255 81.0249 184.255 80.917Z" fill="#512E4E"/>
<path opacity="0.1" d="M130.846 184.371L125.711 174.893L124.084 189.518C124.084 189.518 124.989 196.013 124.807 197.009C124.625 198.005 128.512 206.933 128.512 206.933C128.512 206.933 141.352 229.765 146.595 230.943L164.309 218.305L159.612 212.349C159.612 212.349 157.985 211.717 157.577 212.349C157.577 212.349 148.855 197.367 147.951 196.283C147.047 195.199 147.224 193.035 147.224 193.035C147.224 193.035 145.868 191.593 146.32 190.239C146.772 188.885 143.701 184.19 143.701 184.19L146.501 181.575L130.846 184.371Z" fill="black"/>
<path d="M125.981 173.814L124.625 174.893L122.999 189.518C122.999 189.518 123.903 196.013 123.721 197.009C123.539 198.005 127.431 206.933 127.431 206.933C127.431 206.933 140.266 229.765 145.509 230.943L163.228 218.305L158.526 212.349C158.526 212.349 156.899 211.717 156.491 212.349C156.491 212.349 147.769 197.367 146.865 196.283C145.961 195.199 146.143 193.035 146.143 193.035C146.143 193.035 144.787 191.593 145.239 190.239C145.691 188.885 142.615 184.19 142.615 184.19L145.416 181.575L125.981 173.814Z" fill="white"/>
<path opacity="0.1" d="M210.141 231.104C211.124 232.297 210.504 237.649 210.504 237.649L207.792 242.133C207.792 242.133 207.954 245.027 207.964 248.927L203.404 250.35C202.992 250.479 202.555 250.507 202.13 250.432C201.704 250.358 201.303 250.183 200.959 249.923C200.615 249.662 200.339 249.323 200.153 248.934C199.967 248.545 199.877 248.117 199.89 247.686L200.677 222.367L211.315 226.429C210.411 227.057 211.404 228.598 211.404 228.598C211.404 228.598 209.148 229.912 210.141 231.104Z" fill="black"/>
<path d="M210.686 230.56C211.669 231.752 211.05 237.109 211.05 237.109L208.337 241.593C208.337 241.593 208.499 244.483 208.514 248.388L203.871 249.835C203.467 249.96 203.039 249.987 202.623 249.914C202.207 249.841 201.814 249.67 201.478 249.414C201.141 249.159 200.871 248.827 200.688 248.446C200.506 248.066 200.418 247.647 200.431 247.225L201.222 221.828L211.865 225.89C210.956 226.518 211.949 228.053 211.949 228.053C211.949 228.053 209.703 229.373 210.686 230.56Z" fill="white"/>
<path d="M214.21 218.492C214.21 218.492 213.487 223.098 211.679 223.368C209.871 223.638 209.06 230.82 207.256 230.565C205.453 230.31 206.647 223.888 206.711 222.642C206.775 221.396 204.745 216.235 206.264 215.062C207.782 213.89 212.588 215.062 212.588 215.062L214.21 218.492Z" fill="#CF6F80"/>
<path opacity="0.1" d="M218.057 183.017L221.467 176.149C221.467 176.149 222.823 181.384 222.823 184.18C222.823 186.976 224.72 187.251 224.72 187.251C224.72 187.251 226.799 189.704 225.703 191.49C224.607 193.276 224.165 197.72 224.165 197.72C224.165 197.72 224.523 206.202 222.897 207.375C221.271 208.547 220.931 211.349 220.931 211.349C220.931 211.349 217.944 216.671 218.037 217.937C218.131 219.203 213.88 227.773 213.88 227.773C213.88 227.773 215.959 217.123 203.846 212.521C203.846 212.521 203.753 208.906 204.657 207.915C205.561 206.924 206.971 206.472 206.087 201.463C205.202 196.455 205.831 190.469 205.831 189.267C205.831 188.066 208.544 180.569 208.544 180.569L218.057 183.017Z" fill="black"/>
<path d="M219.531 175.168L222.509 176.149C222.509 176.149 223.87 181.384 223.87 184.18C223.87 186.976 225.767 187.251 225.767 187.251C225.767 187.251 227.845 189.704 226.75 191.49C225.654 193.276 225.217 197.72 225.217 197.72C225.217 197.72 225.575 206.202 223.949 207.375C222.322 208.547 221.959 211.349 221.959 211.349C221.959 211.349 218.976 216.671 219.069 217.937C219.163 219.203 214.907 227.773 214.907 227.773C214.907 227.773 216.991 217.123 204.873 212.521C204.873 212.521 204.785 208.906 205.689 207.915C206.593 206.924 208.003 206.472 207.119 201.463C206.234 196.455 206.863 190.469 206.863 189.267C206.863 188.066 209.576 180.569 209.576 180.569L219.531 175.168Z" fill="white"/>
<path opacity="0.1" d="M153.759 353.186C153.759 353.186 158.506 350.209 161.621 352.372C164.737 354.536 153.759 353.186 153.759 353.186Z" fill="black"/>
<path opacity="0.1" d="M190.643 343.978C190.643 343.978 194.844 343.438 198.372 347.231C201.9 351.023 190.643 343.978 190.643 343.978Z" fill="black"/>
<g opacity="0.1">
<path opacity="0.1" d="M196.79 106.727C196.185 107.247 195.409 107.62 195.006 108.311C194.662 108.905 194.652 109.636 194.377 110.274C194.102 110.911 193.301 111.431 192.746 111.029C192.618 106.614 190.436 102.468 187.758 98.9362C187.009 97.8702 186.099 96.9268 185.061 96.1398C184.009 95.3504 182.7 94.9813 181.39 95.1047C179.916 95.3059 178.618 96.3066 177.13 96.4293C175.164 96.5961 173.4 95.2372 171.449 95.1685C170.656 95.1764 169.874 95.3533 169.156 95.6876C168.437 96.0218 167.798 96.5055 167.282 97.1063C166.256 98.3142 165.495 99.7229 165.046 101.242C164.274 103.547 163.854 105.955 163.798 108.385C163.769 109.754 163.641 111.461 162.373 111.971C162.403 112.333 162.403 112.698 162.373 113.06C163.651 112.57 163.779 110.843 163.808 109.469C163.863 107.039 164.284 104.631 165.056 102.326C165.505 100.806 166.266 99.3953 167.292 98.1856C167.809 97.5864 168.448 97.1041 169.167 96.7708C169.885 96.4375 170.667 96.2609 171.459 96.2527C173.425 96.3214 175.194 97.6754 177.139 97.5135C178.614 97.3908 179.921 96.3851 181.4 96.1889C182.71 96.0655 184.019 96.4346 185.07 97.224C186.109 98.011 187.019 98.9544 187.768 100.02C190.446 103.548 192.628 107.683 192.756 112.108C193.311 112.516 194.112 111.986 194.387 111.358C194.662 110.73 194.672 109.994 195.016 109.395C195.419 108.704 196.195 108.336 196.8 107.816C198.333 106.496 198.716 104.274 198.657 102.257C198.657 102.194 198.657 102.13 198.657 102.071C198.564 103.817 198.097 105.598 196.79 106.727Z" fill="black"/>
<path opacity="0.1" d="M160.516 106.378C159.386 105.137 157.843 104.308 156.806 102.993C155.933 101.829 155.434 100.428 155.376 98.9754C155.221 100.791 155.729 102.601 156.806 104.073C157.843 105.392 159.386 106.221 160.516 107.463C161.601 108.677 162.252 110.216 162.368 111.839C162.444 110.851 162.318 109.858 162 108.92C161.682 107.982 161.177 107.117 160.516 106.378Z" fill="black"/>
<path opacity="0.1" d="M199.615 91.5676C199.325 92.7695 198.809 93.9126 198.573 95.1243C198.434 95.934 198.383 96.7565 198.421 97.5772C198.438 97.1097 198.488 96.644 198.573 96.184C198.809 94.9673 199.325 93.8292 199.615 92.6273C199.784 91.9643 199.839 91.2775 199.777 90.5962C199.747 90.9235 199.693 91.2481 199.615 91.5676Z" fill="black"/>
</g>
<path opacity="0.1" d="M65.2216 373.134C91.6653 373.134 113.102 369.696 113.102 365.456C113.102 361.216 91.6653 357.778 65.2216 357.778C38.7779 357.778 17.3411 361.216 17.3411 365.456C17.3411 369.696 38.7779 373.134 65.2216 373.134Z" fill="#118AB2"/>
<path d="M66.7645 218.379H63.6836V287.635H66.7645V218.379Z" fill="#535461"/>
<path d="M86.1251 287.424L85.9334 290.544L85.6583 294.959L85.5452 296.794L85.275 301.209L85.157 303.044L84.8819 307.459L81.7763 357.533C81.6413 359.687 80.6891 361.71 79.1135 363.188C77.5379 364.666 75.4572 365.489 73.295 365.49H57.1481C54.9864 365.489 52.9063 364.666 51.3315 363.188C49.7567 361.709 48.8055 359.687 48.6717 357.533L45.5809 307.425L45.3057 303.009L45.1927 301.175L44.9175 296.759L44.8045 294.925L44.5293 290.509L44.3328 287.389C44.2986 286.789 44.3878 286.188 44.5947 285.623C44.8016 285.058 45.1219 284.541 45.536 284.104C45.9502 283.667 46.4493 283.319 47.0029 283.082C47.5565 282.845 48.1528 282.723 48.7553 282.724H81.7812C82.3814 282.729 82.9742 282.857 83.523 283.1C84.0717 283.342 84.5648 283.695 84.9719 284.135C85.3789 284.576 85.6912 285.095 85.8896 285.66C86.0879 286.226 86.1681 286.826 86.1251 287.424Z" fill="#3F3D56"/>
<path d="M85.9333 290.544L85.6581 294.944H44.7847L44.5095 290.544H85.9333Z" fill="#9D9CB5"/>
<path d="M85.5453 296.779L85.275 301.184H45.1731L44.8979 296.779H85.5453Z" fill="#9D9CB5"/>
<path d="M85.1571 303.024L84.8868 307.425H45.5613L45.2861 303.024H85.1571Z" fill="#9D9CB5"/>
<path d="M39.807 244.336C57.7474 257.297 65.2361 277.568 65.2361 277.568C65.2361 277.568 43.6152 276.827 25.6698 263.866C7.72445 250.904 0.250488 230.638 0.250488 230.638C0.250488 230.638 21.8616 231.374 39.807 244.336Z" fill="#089F4D"/>
<path d="M0.23584 230.638C0.23584 230.638 22.6823 243.075 29.8811 253.372C37.0799 263.669 65.2362 277.568 65.2362 277.568" stroke="#535461" stroke-width="2" stroke-miterlimit="10"/>
<path d="M51.3889 218.227C61.1528 225.276 65.2362 236.31 65.2362 236.31C65.2362 236.31 53.4675 235.907 43.6988 228.858C33.93 221.808 29.8564 210.77 29.8564 210.77C29.8564 210.77 41.6202 211.172 51.3889 218.227Z" fill="#089F4D"/>
<path d="M29.8564 210.77C29.8564 210.77 42.0723 217.54 45.9886 223.142C49.905 228.745 65.2362 236.31 65.2362 236.31" stroke="#535461" stroke-width="2" stroke-miterlimit="10"/>
<path d="M79.4128 235.75C68.1944 248.059 65.821 264.145 65.821 264.145C65.821 264.145 81.6387 260.27 92.8472 247.956C104.056 235.642 106.439 219.561 106.439 219.561C106.439 219.561 90.6311 223.442 79.4128 235.75Z" fill="#089F4D"/>
<path d="M106.449 219.566C106.449 219.566 91.835 232.184 88.1201 240.877C84.4052 249.57 65.821 264.145 65.821 264.145" stroke="#535461" stroke-width="2" stroke-miterlimit="10"/>
<path d="M491.223 231.418C491.223 231.418 483.11 191.122 486.216 186.108C486.216 186.108 486.329 181.448 486.142 175.507C486.142 175.281 486.142 175.055 486.142 174.825C486.688 175.188 487.258 175.516 487.847 175.806C490.708 177.273 493.993 177.697 497.134 177.003L494.677 174.27C494.087 173.618 493.473 172.911 493.346 172.048C493.218 171.185 493.572 170.414 493.876 169.644C496.21 163.757 496.333 156.354 491.837 151.86C488.039 148.083 487.115 143.207 482.992 139.758C479.98 137.231 478.324 133.527 476.761 129.946C475.439 126.919 474.108 123.868 473.351 120.659C472.761 118.152 472.526 115.557 471.715 113.109C470.904 110.661 469.386 108.282 467.012 107.188C466.167 106.8 465.228 106.579 464.457 106.064C463.445 105.382 462.835 104.274 462.103 103.302C458.383 98.3965 445.927 101.286 440.03 103.278C438.427 103.779 436.943 104.601 435.667 105.692L435.721 105.603C435.765 105.53 435.819 105.456 435.868 105.382C435.223 105.903 434.665 106.525 434.217 107.222C433.357 108.581 432.999 110.166 432.281 111.637C431.416 113.379 426.606 118.241 428.674 120.198C428.819 120.33 428.985 120.436 429.166 120.512C429.942 120.835 430.797 120.92 431.623 120.757L431.534 120.968C430.828 122.695 430.465 124.543 430.468 126.409C430.468 134.469 437.126 141.004 445.347 141.004C446.893 141.005 448.429 140.769 449.902 140.302C449.937 140.489 449.966 140.675 450 140.862C450 140.935 450.025 141.009 450.035 141.082L449.774 141.445C449.761 141.423 449.747 141.402 449.73 141.382L442.015 152.145C440.836 152.974 434.045 157.88 433.662 161.559C433.259 165.587 432.856 170.301 432.856 170.301L432.802 171.312C432.465 171.593 432.071 171.798 431.646 171.913C431.222 172.027 430.778 172.048 430.345 171.974C427.937 171.582 427.937 180.805 427.937 180.805C427.937 180.805 426.335 182.277 425.235 181.001C424.134 179.726 421.225 184.048 421.225 184.048L402.995 184.833L402.577 184.857L401.594 181.82C401.488 181.5 401.26 181.234 400.959 181.081C400.659 180.928 400.309 180.899 399.987 181.001C399.911 181.026 399.837 181.057 399.766 181.094L399.697 181.134L399.57 181.222L399.506 181.281C399.471 181.313 399.438 181.347 399.407 181.384L399.348 181.452L399.319 181.482C399.206 181.639 399.13 181.82 399.1 182.01C399.069 182.201 399.083 182.397 399.142 182.581L399.987 185.186C396.469 185.892 392.872 187.884 395.806 193.369L380.936 190.626L385.747 194.659L410.582 199.776C410.252 200.364 410.469 201.218 411.496 202.42C415.918 207.606 423.977 209.014 427.22 209.377C428.076 211.289 429.146 213.1 430.409 214.773L430.129 219.939C430.129 219.939 421.918 259.313 420.414 261.31C421.173 260.451 421.868 259.538 422.493 258.577C420.109 266.667 416.778 277.739 415.903 279.398C414.498 282.047 413.196 292.766 414.798 293.453C415.289 293.664 416.694 293.561 418.699 293.409V294.297L418.611 327.946C418.611 327.946 419.014 348.585 417.908 350.552C416.802 352.519 416.508 356.645 416.508 356.645C416.508 356.645 412.085 364.784 408.582 368.056C408.558 368.082 408.531 368.105 408.503 368.125L408.395 367.359C408.395 367.359 404.184 372.668 394.867 372.368C394.867 372.368 389.26 376.008 397.575 376.205C405.889 376.401 416.508 375.91 416.508 375.91C416.508 375.91 423.923 364.627 430.134 366.099V374.65H432.035V365.961C432.917 365.382 433.672 364.629 434.254 363.75C434.836 362.87 435.233 361.882 435.421 360.844C435.584 359.775 435.465 358.682 435.075 357.673C434.686 356.664 434.039 355.774 433.2 355.09C432.823 354.75 432.52 354.335 432.312 353.872C432.103 353.41 431.992 352.909 431.986 352.402L431.917 352.46C431.917 352.289 431.873 352.112 431.854 351.931C431.308 347.515 430.625 338.405 433.038 331.665C436.345 322.422 437.347 309.549 434.939 301.886C434.163 299.437 433.524 296.945 433.028 294.424C432.969 294.105 432.915 293.801 432.866 293.517C434.512 293.739 436.142 294.067 437.745 294.498C443.323 296.033 455.524 296.318 465.941 296.234C465.966 296.519 465.995 296.818 466.029 297.118C466.215 299.198 466.604 301.255 467.189 303.26C468.496 307.184 469.096 324.487 469.096 324.487C469.096 324.487 470.781 338.714 469.862 344.503C469.371 347.721 468.879 350.954 468.599 354.202V354.266C468.599 354.266 465.838 362.115 463.818 366.378C463.769 366.486 463.715 366.594 463.666 366.697C463.127 366.746 462.597 366.863 462.089 367.045C462.089 367.045 459.381 372.442 456.683 373.335C453.986 374.228 454.88 377.166 460.988 376.087C467.096 375.008 476.319 374.125 476.319 374.125L476.717 368.62L478.594 366.275L478.103 371.765L480.103 371.372L479.837 364.696L482.908 360.859C482.908 360.859 486.618 357.562 481.105 351.077V351.219C481.046 351.126 480.992 351.028 480.928 350.935V350.905C480.014 349.492 479.287 346.858 480.619 342.183C483.026 333.735 484.427 326.067 484.427 326.067C484.427 326.067 489.803 305.526 483.341 295.808H483.626C482.964 294.44 482.496 292.987 482.235 291.491C482.203 291.314 482.173 291.132 482.147 290.946C486.928 290.671 491.621 289.808 495.449 287.944C495.434 287.924 493.129 239.18 491.223 231.418ZM430.522 197.421V197.519L429.539 197.568L430.522 197.421ZM427.151 197.887C426.989 197.923 426.838 197.995 426.709 198.098C426.286 198.695 426.021 199.388 425.937 200.114L424.404 199.771C424.404 199.771 423.328 199.54 421.78 199.28L421.048 198.544C423.063 198.378 425.156 198.132 427.151 197.887Z" fill="url(#paint1_linear)"/>
<path d="M477.877 364.764L477.292 371.716L479.253 371.323L478.958 363.783L477.877 364.764Z" fill="#1D2366"/>
<path d="M433.146 331.758C430.782 338.479 431.451 347.55 431.981 351.955C432.178 353.584 432.36 354.575 432.36 354.575C432.36 354.575 428.827 362.611 428.532 362.915C428.237 363.219 418.134 369.376 418.134 369.376L411.073 373.492C411.073 373.492 403.909 370.357 407.343 369.278C408.045 368.996 408.677 368.566 409.196 368.017C412.636 364.754 416.955 356.645 416.955 356.645C416.955 356.645 417.25 352.529 418.331 350.572C419.412 348.614 419.019 328.044 419.019 328.044L419.102 294.513V290.141L432.542 290.24C432.626 291.723 432.82 293.199 433.121 294.655C433.604 297.167 434.229 299.65 434.994 302.092C437.362 309.74 436.379 322.549 433.146 331.758Z" fill="#FFB0B1"/>
<path opacity="0.1" d="M432.36 354.575C432.36 354.575 428.827 362.611 428.532 362.915C428.237 363.219 418.134 369.376 418.134 369.376L411.073 373.492C411.073 373.492 403.909 370.357 407.343 369.278C408.045 368.996 408.677 368.566 409.196 368.017L409.501 370.161L411.854 370.063L432.001 351.965C432.178 353.584 432.36 354.575 432.36 354.575Z" fill="black"/>
<path d="M432.114 352.421L411.854 370.641L409.501 370.739L409.009 367.305C409.009 367.305 404.891 372.594 395.742 372.3C395.742 372.3 390.248 375.925 398.39 376.121C406.533 376.317 416.93 375.827 416.93 375.827C416.93 375.827 424.193 364.543 430.271 366.015V374.537H432.139V365.937C433.007 365.353 433.748 364.6 434.317 363.724C434.886 362.847 435.272 361.864 435.451 360.835C435.612 359.774 435.498 358.69 435.118 357.686C434.739 356.683 434.107 355.794 433.284 355.105C432.916 354.76 432.622 354.345 432.421 353.883C432.22 353.422 432.116 352.924 432.114 352.421Z" fill="#1D2366"/>
<path d="M479.744 342.237C478.437 346.897 479.149 349.522 480.044 350.93V350.959C481.191 352.698 481.989 354.642 482.393 356.684L482.471 357.126L473.253 370.543L468.251 372.506C468.251 372.506 460.207 369.763 461.676 368.978C462.044 368.787 462.619 367.767 463.278 366.359C465.243 362.115 467.956 354.285 467.956 354.285V354.222C468.241 350.989 468.693 347.765 469.194 344.557C470.093 338.783 468.442 324.61 468.442 324.61C468.442 324.61 467.853 307.376 466.575 303.456C465.998 301.463 465.615 299.419 465.43 297.353C465.165 294.9 465.106 292.879 465.106 292.879C465.106 292.879 470.403 285.52 480.113 293.468C480.889 294.101 481.572 294.841 482.142 295.665C488.849 305.193 483.449 326.18 483.449 326.18C483.449 326.18 482.098 333.813 479.744 342.237Z" fill="#FFB0B1"/>
<path opacity="0.1" d="M482.486 357.126L473.268 370.543L468.265 372.506C468.265 372.506 460.221 369.763 461.691 368.978C462.059 368.787 462.634 367.767 463.292 366.359C466.698 366.329 468.462 369.567 468.462 369.567L472.776 368.88C472.776 368.88 478.466 357.715 479.744 357.033C481.022 356.351 479.941 351.935 479.941 351.935V350.812C479.975 350.851 480.004 350.895 480.044 350.935V350.964C481.191 352.702 481.989 354.647 482.393 356.689L482.486 357.126Z" fill="black"/>
<path d="M468.757 369.856C468.757 369.856 466.3 365.353 461.592 367.016C461.592 367.016 458.944 372.412 456.295 373.286C453.647 374.159 454.531 377.102 460.516 376.028C466.501 374.954 475.523 374.066 475.523 374.066L475.916 368.576L481.999 360.839C481.999 360.839 485.626 357.557 480.23 351.096V352.22C480.23 352.22 481.311 356.635 480.034 357.317C478.756 357.999 473.086 369.17 473.086 369.17L468.757 369.856Z" fill="#1D2366"/>
<path opacity="0.1" d="M432.556 290.23C432.641 291.714 432.835 293.189 433.136 294.645C427.603 293.835 422.468 294.238 419.102 294.503V290.132L432.556 290.23Z" fill="black"/>
<path opacity="0.1" d="M482.687 296.887C482.687 296.887 474.825 297.27 465.45 297.348C465.184 294.895 465.125 292.874 465.125 292.874C465.125 292.874 470.422 285.515 480.132 293.463C480.909 294.097 481.592 294.836 482.162 295.66C482.314 296.079 482.489 296.488 482.687 296.887Z" fill="black"/>
<path d="M482.687 296.004C482.687 296.004 448.251 297.667 437.755 294.728C427.259 291.79 416.857 294.336 415.289 293.654C413.721 292.972 414.994 282.292 416.37 279.648C417.746 277.004 425.294 250.262 425.294 250.262L432.556 212.457L440.207 210.353L440.748 210.201L454.079 206.531L463.848 203.838C463.848 203.838 483.272 279.55 481.606 285.133C481.001 287.27 480.904 289.519 481.321 291.701C481.576 293.192 482.035 294.639 482.687 296.004Z" fill="#1D2366"/>
<path d="M407.24 186.604C407.24 186.604 400.361 193.962 405.569 198.064C410.778 202.165 414.203 198.456 414.203 198.456L407.24 186.604Z" fill="#C7DAF5"/>
<path opacity="0.1" d="M407.24 186.604C407.24 186.604 400.361 193.962 405.569 198.064C410.778 202.165 414.203 198.456 414.203 198.456L407.24 186.604Z" fill="black"/>
<path d="M462.821 138.222C462.821 138.222 462.015 138.987 460.801 140.116C459.072 141.73 456.511 144.09 454.241 146.067C451.096 148.799 448.502 150.806 449.431 149.093C450.359 147.381 450.182 144.399 449.72 141.607C449.686 141.421 449.657 141.234 449.622 141.053C449.24 139.003 448.733 136.978 448.104 134.989C448.104 134.989 453.185 128.435 455.995 125.85C457.042 124.868 457.774 124.466 457.818 125.148C457.868 126.065 458.556 128.092 459.411 130.24C459.435 130.309 459.46 130.373 459.489 130.441C460.059 131.913 460.703 133.424 461.268 134.729C462.133 136.731 462.821 138.222 462.821 138.222Z" fill="#FFB0B1"/>
<path opacity="0.1" d="M459.489 130.441C459.012 133.005 457.853 135.394 456.135 137.359C454.416 139.323 452.201 140.79 449.72 141.607C449.33 139.368 448.79 137.157 448.104 134.989C448.104 134.989 457.671 122.651 457.818 125.148C457.853 126.095 458.6 128.195 459.489 130.441Z" fill="black"/>
<path opacity="0.1" d="M448.767 144.904L450.005 143.162C450.005 143.162 450.826 148.156 453.843 145.954C456.86 143.751 457.008 162.531 457.008 162.531L453.769 210.868L430.37 209.47L431.033 186.113L433.682 174.339L440.232 157.222L444.128 151.566L448.767 144.904Z" fill="black"/>
<path d="M457.008 162.83L454.059 206.536L453.75 211.167L440.704 210.387L440.212 210.358L430.385 209.769L431.048 186.407L433.696 174.633L440.247 157.517L444.143 151.86L448.782 145.174L450.02 143.437C450.02 143.437 450.841 148.431 453.858 146.228L453.922 146.184C456.87 144.32 457.008 162.83 457.008 162.83Z" fill="#1D2366"/>
<path d="M434.026 170.542C434.026 170.542 432.851 172.995 430.493 172.597C428.134 172.2 428.139 181.428 428.139 181.428C428.139 181.428 426.571 182.9 425.49 181.624C424.409 180.349 421.559 184.661 421.559 184.661L403.702 185.446C403.702 185.446 411.648 189.071 410.09 200.041C410.09 200.041 437.067 198.373 437.952 195.827C438.836 193.28 434.026 170.542 434.026 170.542Z" fill="white"/>
<path opacity="0.03" d="M434.026 170.542C434.026 170.542 432.851 172.995 430.493 172.597C428.134 172.2 428.139 181.428 428.139 181.428C428.139 181.428 426.571 182.9 425.49 181.624C424.409 180.349 421.559 184.661 421.559 184.661L403.702 185.446C403.702 185.446 411.648 189.071 410.09 200.041C410.09 200.041 437.067 198.373 437.952 195.827C438.836 193.28 434.026 170.542 434.026 170.542Z" fill="black"/>
<path d="M382.13 191.21L386.838 195.223L425.588 203.352L420.783 198.456L382.13 191.21Z" fill="white"/>
<path d="M448.841 146.449C448.197 147.43 446.354 152.454 444.816 156.84C443.534 160.495 442.463 163.708 442.463 163.708C442.463 163.708 439.961 179.966 438.684 182.905C437.406 185.843 438.099 197.303 438.099 197.303L433.338 225.605C433.338 225.605 431.18 240.2 427.849 248.918C424.561 257.498 420.901 261.521 420.788 261.648C422.262 259.656 430.296 220.439 430.296 220.439L432.949 170.978C432.949 170.978 433.338 166.279 433.731 162.261C434.124 158.243 442.084 152.758 442.084 152.758L449.76 141.862C450.531 142.893 450.015 144.688 448.841 146.449Z" fill="white"/>
<path d="M428.827 210.014C428.827 210.014 417.525 209.524 412.051 202.96C406.577 196.396 424.704 200.34 424.704 200.34L429.416 201.419L428.827 210.014Z" fill="#FFB0B1"/>
<path opacity="0.1" d="M481.606 285.137C481.001 287.275 480.904 289.524 481.321 291.706C468.993 292.58 455.804 289.253 455.804 289.253C453.347 291.51 446.875 294.836 446.875 294.836L443.347 251.174C441.092 245.287 440.207 214.444 440.207 214.444C440.207 214.444 440.409 212.83 440.699 210.412C440.699 210.353 440.699 210.289 440.723 210.23C441.603 203.475 443.347 190.793 444.202 189.081C445.382 186.726 440.576 180.461 440.576 180.461L442.762 161.844L443.028 159.597C447.637 157.541 451.17 150.977 451.17 150.977L453.882 146.233C456.831 144.345 456.983 162.854 456.983 162.854L454.035 206.561L463.804 203.867C463.804 203.867 483.272 279.555 481.606 285.137Z" fill="black"/>
<path d="M494.26 288.154C480.82 294.817 456.393 288.645 456.393 288.645C453.937 290.902 447.465 294.228 447.465 294.228L443.932 250.566C441.681 244.679 440.797 213.836 440.797 213.836C440.797 213.836 443.637 190.823 444.816 188.473C445.16 187.786 444.993 186.765 444.585 185.667C442.58 180.436 441.843 174.806 442.433 169.237L443.377 161.235L443.637 158.993C448.251 156.933 451.784 150.369 451.784 150.369L454.241 146.071L458.762 138.153L460.904 134.405L461.268 134.734L464.044 137.246C464.044 137.246 465.224 138.227 466.993 139.699C470.84 142.937 477.489 148.637 480.918 152.125C483.936 155.196 484.889 167.142 485.164 176.134C485.346 182.056 485.238 186.697 485.238 186.697C482.196 191.696 490.152 231.831 490.152 231.831C492.004 239.587 494.26 288.154 494.26 288.154Z" fill="white"/>
<path opacity="0.03" d="M468.462 150.271C468.462 150.271 459.239 167.799 460.31 174.462C461.381 181.124 464.428 188.664 462.958 190.425C462.454 191.092 461.801 191.634 461.052 192.008C460.302 192.381 459.477 192.577 458.639 192.579C457.165 192.677 453.234 195.419 453.234 195.714C453.234 196.008 449.602 196.008 446.354 197.382C443.106 198.755 438.31 199.535 438.31 199.535C438.31 199.535 428.974 199.241 428.104 200.124C427.235 201.007 426.34 206.291 428.203 210.505C430.065 214.719 432.134 217.864 433.696 218.438C435.259 219.012 445.175 215.695 453.219 214.91C461.263 214.125 469.995 207.762 469.995 207.762C469.995 207.762 479.611 204.328 481.297 198.554C482.982 192.78 479.238 161.044 479.238 161.044C479.238 161.044 476.408 146.253 468.462 150.271Z" fill="black"/>
<path opacity="0.03" d="M467.282 148.799C467.282 148.799 458.059 166.333 459.14 172.99C460.221 179.647 463.258 187.192 461.784 188.958C461.281 189.626 460.629 190.169 459.881 190.542C459.132 190.916 458.307 191.111 457.47 191.112C455.995 191.21 452.064 193.953 452.064 194.247C452.064 194.541 448.433 194.541 445.185 195.91C441.937 197.279 437.141 198.064 437.141 198.064C437.141 198.064 427.805 197.769 426.94 198.652C426.075 199.535 425.171 204.824 427.038 209.033C428.905 213.242 430.969 216.392 432.532 216.966C434.094 217.54 444.011 214.223 452.054 213.443C460.098 212.663 468.83 206.291 468.83 206.291C468.83 206.291 478.442 202.857 480.108 197.087C481.773 191.318 478.049 159.572 478.049 159.572C478.049 159.572 475.228 144.786 467.282 148.799Z" fill="black"/>
<path d="M468.172 149.388C468.172 149.388 458.949 166.921 460.03 173.579C461.111 180.236 464.147 187.781 462.678 189.542C462.175 190.212 461.523 190.755 460.774 191.13C460.024 191.505 459.197 191.7 458.359 191.701C456.885 191.799 452.954 194.541 452.954 194.831C452.954 195.12 449.327 195.125 446.074 196.499C442.821 197.872 438.03 198.652 438.03 198.652C438.03 198.652 428.694 198.358 427.824 199.241C426.955 200.124 426.06 205.413 427.923 209.622C429.785 213.831 431.854 216.981 433.416 217.555C434.979 218.129 444.895 214.812 452.939 214.027C460.983 213.242 469.715 206.879 469.715 206.879C469.715 206.879 479.331 203.445 481.017 197.671C482.702 191.897 478.982 160.161 478.982 160.161C478.982 160.161 476.113 145.394 468.172 149.388Z" fill="white"/>
<path opacity="0.1" d="M467.97 196.415C467.97 196.415 460.6 194.944 463.165 197.396C465.73 199.849 465.715 201.998 468.855 201.9C471.995 201.802 467.97 196.415 467.97 196.415Z" fill="black"/>
<path opacity="0.1" d="M480.427 249.192C480.427 249.192 477.095 251.444 483.469 256.634C489.842 261.825 480.427 249.192 480.427 249.192Z" fill="black"/>
<path opacity="0.1" d="M474.068 267.702C474.068 267.996 472.889 278.495 477.302 281.12C481.714 283.744 474.068 267.702 474.068 267.702Z" fill="black"/>
<path d="M404.007 185.421C400.449 185.544 392.764 186.628 396.749 194.051C400.272 200.62 406.194 196.229 409.525 192.898C408.712 189.792 406.737 187.116 404.007 185.421Z" fill="#FFB0B1"/>
<path d="M409.569 192.839L409.717 192.687L409.569 192.839Z" fill="#FFB0B1"/>
<path opacity="0.1" d="M466.993 139.998C463.219 142.574 460.054 144.747 459.435 145.198C457.745 146.449 454.521 153.793 452.443 157.541C450.787 160.558 445.406 161.334 443.377 161.525L443.637 159.283C448.251 157.222 451.784 150.658 451.784 150.658L460.904 134.695L464.044 137.545C464.044 137.545 465.224 138.526 466.993 139.998Z" fill="black"/>
<path d="M466.993 139.704C463.219 142.279 460.054 144.453 459.435 144.909C457.745 146.155 454.521 153.499 452.443 157.247C450.787 160.264 445.406 161.039 443.377 161.231L443.637 158.989C448.251 156.928 451.784 150.364 451.784 150.364L460.904 134.401L464.044 137.241C464.044 137.241 465.224 138.212 466.993 139.704Z" fill="#DCE7FF"/>
<path d="M459.73 127.204C459.732 130.149 458.837 133.025 457.165 135.45C455.19 138.318 452.25 140.385 448.879 141.274C445.509 142.163 441.93 141.817 438.794 140.297C435.657 138.778 433.17 136.186 431.783 132.993C430.397 129.799 430.203 126.215 431.237 122.891C432.271 119.567 434.464 116.723 437.418 114.875C440.373 113.027 443.893 112.298 447.34 112.82C450.787 113.342 453.933 115.08 456.206 117.719C458.479 120.358 459.729 123.723 459.73 127.204Z" fill="#FFB0B1"/>
<path opacity="0.1" d="M485.164 176.139C483.169 174.914 481.543 173.171 480.462 171.096C479.641 169.477 479.095 167.608 477.695 166.46C476.432 165.43 474.747 165.18 473.174 164.719C468.005 163.193 463.671 158.483 463.509 153.106C463.43 150.575 464.221 148.049 463.862 145.542C463.659 144.123 463.093 142.78 462.221 141.642C461.788 141.097 461.313 140.587 460.801 140.116C460.113 139.468 459.391 138.84 458.762 138.153C458.366 137.728 458.019 137.259 457.73 136.755C457.496 136.343 457.307 135.907 457.165 135.455C456.182 132.453 457.076 128.891 455.995 125.855L455.936 125.688C455.529 124.608 454.698 123.529 453.543 123.446C452.389 123.362 451.401 124.319 450.3 124.746C447.996 125.639 445.509 124.118 443.588 122.568C441.667 121.017 439.5 119.246 437.057 119.59C435.441 119.82 434.163 120.919 432.674 121.488C432.338 121.618 431.991 121.718 431.637 121.788C432.897 118.65 435.213 116.049 438.185 114.431C441.157 112.813 444.601 112.278 447.925 112.92C451.249 113.561 454.246 115.338 456.4 117.946C458.554 120.553 459.732 123.828 459.73 127.209C459.732 128.229 459.625 129.247 459.411 130.245C459.435 130.314 459.46 130.378 459.489 130.446C460.059 131.918 460.703 133.429 461.268 134.734L464.044 137.246C464.044 137.246 465.224 138.227 466.993 139.699C470.84 142.937 477.489 148.637 480.918 152.125C483.936 155.206 484.879 167.147 485.164 176.139Z" fill="black"/>
<path d="M432.502 112.525C433.205 111.098 433.554 109.498 434.394 108.144C435.628 106.182 437.78 104.926 439.991 104.166C445.765 102.179 457.966 99.2943 461.612 104.166C462.329 105.147 462.924 106.236 463.917 106.913C464.673 107.428 465.587 107.649 466.418 108.036C468.742 109.126 470.226 111.5 471.017 113.924C471.808 116.347 472.044 118.947 472.624 121.444C473.366 124.648 474.668 127.684 475.965 130.701C477.494 134.263 479.115 137.957 482.063 140.474C486.088 143.908 486.977 148.77 490.712 152.537C495.134 157.012 494.992 164.395 492.712 170.257C492.412 171.028 492.073 171.832 492.191 172.651C492.309 173.471 492.918 174.216 493.493 174.869L495.911 177.592C490.191 178.97 483.719 175.987 481.056 170.753C480.235 169.134 479.69 167.27 478.285 166.117C477.027 165.087 475.336 164.841 473.769 164.38C468.6 162.849 464.265 158.135 464.103 152.758C464.025 150.232 464.816 147.705 464.457 145.203C464.258 143.775 463.69 142.423 462.811 141.278C461.46 139.517 459.42 138.335 458.32 136.373C456.457 133.091 457.873 128.827 456.531 125.305C456.118 124.226 455.293 123.146 454.138 123.063C452.983 122.98 451.996 123.936 450.89 124.363C448.59 125.256 446.104 123.74 444.183 122.185C442.261 120.63 440.094 118.864 437.647 119.212C436.031 119.438 434.758 120.537 433.269 121.111C432.168 121.532 429.937 121.91 428.974 120.983C426.94 119.114 431.652 114.272 432.502 112.525Z" fill="#591D4B"/>
<path opacity="0.1" d="M482.422 169.134C481.596 167.515 481.056 165.651 479.65 164.503C478.393 163.473 476.702 163.222 475.13 162.761C469.965 161.235 465.631 156.521 465.464 151.144C465.386 148.618 466.177 146.086 465.823 143.584C465.617 142.165 465.05 140.822 464.177 139.684C462.821 137.923 460.781 136.741 459.686 134.778C457.823 131.501 459.238 127.238 457.892 123.711C457.484 122.636 456.654 121.557 455.504 121.469C454.354 121.38 453.356 122.347 452.256 122.774C449.956 123.666 447.465 122.146 445.548 120.595C443.632 119.045 441.455 117.274 439.013 117.618C437.396 117.848 436.119 118.947 434.635 119.516C433.534 119.938 431.298 120.321 430.335 119.393C428.311 117.431 433.023 112.599 433.868 110.862C434.571 109.43 434.92 107.835 435.765 106.481C435.809 106.408 435.858 106.334 435.907 106.261C435.275 106.783 434.73 107.403 434.291 108.095C433.451 109.449 433.102 111.039 432.399 112.476C431.549 114.213 426.836 119.06 428.866 121.008C429.849 121.94 432.06 121.557 433.161 121.135C434.635 120.561 435.922 119.462 437.539 119.237C439.996 118.888 442.158 120.659 444.074 122.209C445.991 123.76 448.497 125.281 450.787 124.388C451.887 123.961 452.85 122.999 454.03 123.088C455.209 123.176 455.995 124.25 456.423 125.33C457.764 128.852 456.349 133.115 458.211 136.397C459.312 138.325 461.351 139.532 462.703 141.303C463.582 142.447 464.149 143.799 464.349 145.228C464.707 147.73 463.916 150.256 463.995 152.783C464.157 158.179 468.491 162.874 473.66 164.405C475.218 164.866 476.918 165.111 478.176 166.141C479.587 167.294 480.142 169.158 480.948 170.777C483.611 176.012 490.083 178.995 495.802 177.616L494.662 176.331C489.704 176.404 484.687 173.588 482.422 169.134Z" fill="black"/>
<path opacity="0.1" d="M448.546 146.744C447.902 147.725 446.06 152.748 444.521 157.134C443.082 156.575 441.775 153.008 441.775 153.008L449.45 142.108C450.236 143.187 449.72 144.977 448.546 146.744Z" fill="black"/>
<path d="M448.841 146.449C448.197 147.43 446.354 152.454 444.816 156.84C443.377 156.285 442.07 152.714 442.07 152.714L449.745 141.818C450.531 142.892 450.015 144.688 448.841 146.449Z" fill="#DCE7FF"/>
<path d="M404.213 196.567L399.958 183.169C399.907 183.013 399.889 182.847 399.902 182.683C399.916 182.519 399.962 182.359 400.038 182.213C400.114 182.067 400.218 181.937 400.344 181.831C400.47 181.724 400.616 181.644 400.773 181.595C401.09 181.496 401.433 181.526 401.728 181.679C402.022 181.831 402.244 182.094 402.346 182.409L406.601 195.792L406.179 198.593L404.213 196.567Z" fill="#BE8B87"/>
<path opacity="0.1" d="M400.361 181.992C400.678 181.892 401.022 181.921 401.318 182.074C401.614 182.227 401.837 182.49 401.938 182.806L406.193 196.19L405.874 198.289L406.184 198.613L406.606 195.812L402.326 182.429C402.225 182.113 402.002 181.851 401.708 181.698C401.413 181.546 401.071 181.516 400.754 181.614C400.487 181.701 400.257 181.873 400.1 182.105C400.184 182.06 400.271 182.022 400.361 181.992Z" fill="white"/>
<path d="M404.213 196.567L406.601 195.812L406.252 198.108L406.179 198.613L405.481 197.887L404.213 196.567Z" fill="#EFC8C4"/>
<path d="M405.481 197.887C405.522 197.835 405.574 197.791 405.633 197.759C405.668 197.738 405.708 197.726 405.749 197.726C405.79 197.726 405.83 197.738 405.864 197.759C405.898 197.8 405.926 197.844 405.948 197.892C405.98 197.946 406.024 197.992 406.077 198.027C406.13 198.062 406.19 198.084 406.252 198.093L406.179 198.584L405.481 197.887Z" fill="#727A9C"/>
<path d="M399.933 187.928C399.933 187.928 408.468 187.879 406.459 191.504C404.449 195.13 401.309 195.567 401.309 195.567L399.933 187.928Z" fill="#FFB0B1"/>
<path d="M346.849 25.2258H346.48C331.817 25.2258 318.85 32.9722 311.391 44.4028C303.931 32.9722 290.964 25.2258 276.301 25.2258H275.932C264.928 25.3305 254.41 29.7667 246.664 37.5703C238.917 45.3739 234.568 55.9143 234.562 66.901C234.562 80.5441 240.548 99.9026 252.218 115.832C274.453 146.184 311.391 172.74 311.391 172.74C311.391 172.74 348.328 146.189 370.558 115.832C382.233 99.9026 388.214 80.5441 388.214 66.901C388.208 55.9151 383.86 45.3755 376.114 37.572C368.369 29.7686 357.852 25.3318 346.849 25.2258ZM341.576 118.167C339.906 118.161 338.277 117.65 336.903 116.703C335.529 115.756 334.474 114.416 333.876 112.859H325.11C324.533 112.855 323.971 112.672 323.503 112.334C323.035 111.996 322.685 111.521 322.501 110.975L319.808 102.876L311.287 132.6C311.121 133.172 310.774 133.675 310.297 134.034C309.821 134.392 309.24 134.586 308.644 134.587H308.472C307.849 134.557 307.256 134.314 306.791 133.9C306.326 133.486 306.017 132.925 305.916 132.311L297.135 79.5826L290.718 110.784C290.571 111.376 290.229 111.903 289.747 112.279C289.265 112.655 288.671 112.859 288.06 112.859H275.711C275.341 112.875 274.971 112.815 274.625 112.685C274.278 112.554 273.962 112.355 273.694 112.099C273.427 111.843 273.214 111.535 273.068 111.195C272.923 110.855 272.848 110.489 272.848 110.119C272.848 109.749 272.923 109.383 273.068 109.043C273.214 108.703 273.427 108.395 273.694 108.139C273.962 107.883 274.278 107.684 274.625 107.553C274.971 107.423 275.341 107.363 275.711 107.379H285.897L294.988 65.4292C295.137 64.809 295.498 64.2598 296.008 63.8755C296.518 63.4912 297.145 63.2956 297.784 63.3223C298.422 63.3489 299.031 63.5961 299.507 64.0216C299.983 64.4471 300.296 65.0244 300.393 65.6549L309.361 119.443L316.997 92.848C317.156 92.2879 317.492 91.7941 317.956 91.4405C318.419 91.0868 318.984 90.8922 319.567 90.8856H319.621C320.199 90.8858 320.761 91.068 321.229 91.4063C321.697 91.7446 322.045 92.2217 322.226 92.7695L327.095 107.394H333.768C334.243 105.955 335.106 104.675 336.263 103.694C337.42 102.714 338.826 102.073 340.326 101.84C341.825 101.607 343.36 101.793 344.761 102.376C346.161 102.959 347.373 103.917 348.263 105.144C349.153 106.372 349.685 107.821 349.802 109.331C349.919 110.842 349.616 112.355 348.925 113.704C348.235 115.053 347.185 116.186 345.891 116.977C344.597 117.768 343.109 118.187 341.591 118.187L341.576 118.167Z" fill="#EF476F"/>
</g>
<defs>
<linearGradient id="paint0_linear" x1="175.095" y1="380.139" x2="175.095" y2="78.2629" gradientUnits="userSpaceOnUse">
<stop stop-color="#808080" stop-opacity="0.25"/>
<stop offset="0.54" stop-color="#808080" stop-opacity="0.12"/>
<stop offset="1" stop-color="#808080" stop-opacity="0.1"/>
</linearGradient>
<linearGradient id="paint1_linear" x1="109685" y1="227770" x2="109685" y2="72814" gradientUnits="userSpaceOnUse">
<stop stop-color="#808080" stop-opacity="0.25"/>
<stop offset="0.54" stop-color="#808080" stop-opacity="0.12"/>
<stop offset="1" stop-color="#808080" stop-opacity="0.1"/>
</linearGradient>
<clipPath id="clip0">
<rect width="543" height="384" fill="white"/>
</clipPath>
</defs>
</svg>
